<svg width="32" height="32" viewBox="0 0 32 32" fill="none" xmlns="http://www.w3.org/2000/svg">
<rect width="31.9175" height="31.9175" rx="15.9588" fill="#264FA8"/>
<path d="M22.0593 14.3891C21.8242 14.1435 21.5811 13.8904 21.4895 13.6678C21.4047 13.464 21.3997 13.1261 21.3947 12.7988C21.3854 12.1904 21.3754 11.5009 20.896 11.0215C20.4166 10.5421 19.7272 10.5322 19.1187 10.5228C18.7914 10.5178 18.4536 10.5128 18.2497 10.4281C18.0278 10.3364 17.7741 10.0933 17.5285 9.85828C17.0983 9.44497 16.6096 8.97681 15.9588 8.97681C15.3079 8.97681 14.8198 9.44497 14.3891 9.85828C14.1435 10.0933 13.8904 10.3364 13.6678 10.4281C13.4652 10.5128 13.1261 10.5178 12.7988 10.5228C12.1904 10.5322 11.5009 10.5421 11.0215 11.0215C10.5421 11.5009 10.5353 12.1904 10.5228 12.7988C10.5178 13.1261 10.5128 13.464 10.4281 13.6678C10.3364 13.8897 10.0933 14.1435 9.85828 14.3891C9.44497 14.8192 8.97681 15.3079 8.97681 15.9588C8.97681 16.6096 9.44497 17.0977 9.85828 17.5285C10.0933 17.7741 10.3364 18.0272 10.4281 18.2497C10.5128 18.4536 10.5178 18.7914 10.5228 19.1187C10.5322 19.7272 10.5421 20.4166 11.0215 20.896C11.5009 21.3754 12.1904 21.3854 12.7988 21.3947C13.1261 21.3997 13.464 21.4047 13.6678 21.4895C13.8897 21.5811 14.1435 21.8242 14.3891 22.0593C14.8192 22.4726 15.3079 22.9407 15.9588 22.9407C16.6096 22.9407 17.0977 22.4726 17.5285 22.0593C17.7741 21.8242 18.0272 21.5811 18.2497 21.4895C18.4536 21.4047 18.7914 21.3997 19.1187 21.3947C19.7272 21.3854 20.4166 21.3754 20.896 20.896C21.3754 20.4166 21.3854 19.7272 21.3947 19.1187C21.3997 18.7914 21.4047 18.4536 21.4895 18.2497C21.5811 18.0278 21.8242 17.7741 22.0593 17.5285C22.4726 17.0983 22.9407 16.6096 22.9407 15.9588C22.9407 15.3079 22.4726 14.8198 22.0593 14.3891ZM18.8052 14.8155L15.3142 18.3064C15.2679 18.3528 15.2129 18.3896 15.1523 18.4147C15.0918 18.4398 15.0269 18.4527 14.9613 18.4527C14.8958 18.4527 14.8309 18.4398 14.7704 18.4147C14.7098 18.3896 14.6548 18.3528 14.6085 18.3064L13.1124 16.8103C13.0188 16.7167 12.9662 16.5898 12.9662 16.4575C12.9662 16.3251 13.0188 16.1982 13.1124 16.1046C13.2059 16.0111 13.3329 15.9585 13.4652 15.9585C13.5975 15.9585 13.7245 16.0111 13.818 16.1046L14.9613 17.2486L18.0995 14.1098C18.1458 14.0635 18.2008 14.0267 18.2614 14.0016C18.3219 13.9765 18.3868 13.9636 18.4523 13.9636C18.5178 13.9636 18.5827 13.9765 18.6433 14.0016C18.7038 14.0267 18.7588 14.0635 18.8052 14.1098C18.8515 14.1561 18.8883 14.2111 18.9133 14.2717C18.9384 14.3322 18.9513 14.3971 18.9513 14.4626C18.9513 14.5282 18.9384 14.593 18.9133 14.6536C18.8883 14.7141 18.8515 14.7691 18.8052 14.8155Z" fill="white"/>
</svg>
