<svg width="18" height="18" viewBox="0 0 18 18" fill="none" xmlns="http://www.w3.org/2000/svg">
<path d="M7.16239 11.3625L13.5186 5.00625C13.6686 4.85625 13.8436 4.78125 14.0436 4.78125C14.2436 4.78125 14.4186 4.85625 14.5686 5.00625C14.7186 5.15625 14.7936 5.3345 14.7936 5.541C14.7936 5.7475 14.7186 5.9255 14.5686 6.075L7.68739 12.975C7.53739 13.125 7.36239 13.2 7.16239 13.2C6.96239 13.2 6.78739 13.125 6.63739 12.975L3.41239 9.75C3.26239 9.6 3.19039 9.422 3.19639 9.216C3.20239 9.01 3.28064 8.83175 3.43114 8.68125C3.58164 8.53075 3.75989 8.45575 3.96589 8.45625C4.17189 8.45675 4.34989 8.53175 4.49989 8.68125L7.16239 11.3625Z" fill="white"/>
</svg>
