<svg width="229" height="138" viewBox="0 0 229 138" fill="none" xmlns="http://www.w3.org/2000/svg">
<path fill-rule="evenodd" clip-rule="evenodd" d="M79.9351 101.932H4.42286C3.24985 101.932 2.12487 102.398 1.29543 103.227C0.465979 104.057 0 105.182 0 106.355V119.082C0 121.525 1.98018 123.505 4.42286 123.505H79.9351C82.3778 123.505 84.358 121.525 84.358 119.082V106.355C84.358 103.912 82.3778 101.932 79.9351 101.932ZM13.7624 116.249L11.468 115.043L9.17358 116.249L9.61294 113.694L7.75648 111.881L10.3215 111.508L11.468 109.183L12.6159 111.508L15.1809 111.881L13.3245 113.694L13.7624 116.249ZM24.5928 115.043L26.8873 116.249L26.4493 113.694L28.3058 111.881L25.7408 111.508L24.5928 109.183L23.4463 111.508L20.8813 111.881L22.7378 113.694L22.2984 116.249L24.5928 115.043ZM40.7654 116.249L38.471 115.043L36.1821 116.249L36.6145 113.701L34.758 111.888L37.3231 111.515L38.471 109.19L39.6175 111.515L42.1797 111.888L40.3232 113.701L40.7654 116.249ZM52.3616 115.043L54.6616 116.249L54.2167 113.694L56.0731 111.881L53.5081 111.508L52.3616 109.183L51.2137 111.508L48.6487 111.881L50.5051 113.694L50.0672 116.249L52.3616 115.043Z" fill="url(#paint0_linear_118_3551)"/>
<path opacity="0.31" fill-rule="evenodd" clip-rule="evenodd" d="M101.231 79.5761H25.7212C23.2785 79.5761 21.2983 81.5563 21.2983 83.9989V96.725C21.2983 97.898 21.7643 99.0229 22.5938 99.8524C23.4232 100.682 24.5482 101.148 25.7212 101.148H101.231C103.673 101.148 105.654 99.1676 105.654 96.725V83.9989C105.654 81.5563 103.673 79.5761 101.231 79.5761ZM35.058 93.895L32.7635 92.6899L30.4635 93.895L30.9015 91.3411L29.0464 89.5279L31.617 89.1527L32.7635 86.829L33.9114 89.1527L36.4765 89.5251L34.62 91.3383L35.058 93.895ZM45.8884 92.6899L48.1828 93.895L47.7449 91.3383L49.6013 89.5251L47.0363 89.1527L45.8884 86.829L44.7419 89.1527L42.1769 89.5279L44.032 91.3411L43.594 93.895L45.8884 92.6899ZM62.0609 93.895L59.7665 92.6899L57.4721 93.895L57.9101 91.3411L56.0536 89.5279L58.6186 89.1527L59.7665 86.829L60.913 89.1527L63.4794 89.5251L61.623 91.3383L62.0609 93.895ZM73.6628 92.6899L75.9572 93.895L75.5178 91.3383L77.3743 89.5251L74.8093 89.1527L73.6628 86.829L72.5149 89.1527L69.9499 89.5279L71.8063 91.3411L71.3684 93.895L73.6628 92.6899Z" fill="url(#paint1_linear_118_3551)"/>
<rect x="144.052" y="66.3116" width="84.358" height="21.5717" rx="10.7859" fill="url(#paint2_linear_118_3551)"/>
<path d="M81.3858 50.6566C81.0308 50.6577 80.6996 50.4779 80.5071 50.1796L51.0771 4.83929C50.7813 4.35564 50.9246 3.72437 51.4003 3.41585C51.8759 3.10732 52.5108 3.23385 52.8318 3.70115L82.2617 49.0414C82.4701 49.3628 82.4862 49.7724 82.3036 50.1092C82.1209 50.4459 81.7689 50.6559 81.3858 50.6566Z" fill="url(#paint3_linear_118_3551)"/>
<path d="M152.994 50.6566C152.612 50.6571 152.26 50.4486 152.076 50.1131C151.893 49.7776 151.907 49.3687 152.114 49.047L178.311 8.07662C178.507 7.74965 178.865 7.55504 179.246 7.56863C179.626 7.58223 179.97 7.80187 180.142 8.14197C180.314 8.48206 180.287 8.88878 180.072 9.2036L153.876 50.1684C153.685 50.4717 153.352 50.656 152.994 50.6566Z" fill="url(#paint4_linear_118_3551)"/>
<path d="M138.608 34.0154C138.276 34.0151 137.964 33.8571 137.766 33.5897C137.569 33.3223 137.51 32.9772 137.608 32.6597L147.511 0.705169C147.695 0.171167 148.27 -0.120117 148.81 0.0471737C149.349 0.214464 149.659 0.779894 149.508 1.32445L139.605 33.279C139.47 33.7159 139.066 34.0141 138.608 34.0154Z" fill="url(#paint5_linear_118_3551)"/>
<path d="M104.004 34.1982C103.548 34.1976 103.146 33.9035 103.006 33.4701L93.9514 5.12806C93.8279 4.76963 93.9079 4.37241 94.1606 4.0898C94.4133 3.80719 94.7992 3.68344 95.1691 3.76634C95.5391 3.84924 95.8352 4.12582 95.9432 4.48925L105 32.8299C105.084 33.0942 105.06 33.3813 104.933 33.6279C104.806 33.8746 104.586 34.0607 104.322 34.1452C104.219 34.179 104.112 34.1969 104.004 34.1982Z" fill="url(#paint6_linear_118_3551)"/>
<path d="M66.6681 59.003C66.4773 59.0031 66.2901 58.951 66.1269 58.8524L35.9033 40.5598C35.5722 40.3719 35.3694 40.019 35.3736 39.6384C35.3778 39.2577 35.5885 38.9094 35.9236 38.7289C36.2588 38.5485 36.6655 38.5643 36.9857 38.7703L67.2106 57.0629C67.6115 57.3064 67.8013 57.7869 67.675 58.2386C67.5486 58.6903 67.1371 59.0028 66.6681 59.003Z" fill="url(#paint7_linear_118_3551)"/>
<path d="M170.082 59.003C169.599 59.0037 169.179 58.6749 169.064 58.2067C168.949 57.7385 169.169 57.2523 169.596 57.0293L197.838 42.3144C198.17 42.1329 198.574 42.1452 198.895 42.3464C199.216 42.5476 199.403 42.9064 199.384 43.2845C199.365 43.6626 199.143 44.001 198.804 44.1694L170.57 58.8858C170.419 58.9641 170.251 59.0043 170.082 59.003Z" fill="url(#paint8_linear_118_3551)"/>
<path d="M119.484 92.9981L74.0294 65.9504C74.0057 65.9839 73.9792 66.0145 73.9569 66.048C72.9105 67.5131 72.3487 69.2689 72.3501 71.0692V114.928C72.3639 119.726 76.2498 123.613 81.048 123.628H157.919C162.717 123.613 166.603 119.726 166.617 114.928V71.0679C166.617 68.8096 165.735 66.6406 164.159 65.0229L119.484 92.9981Z" fill="#264FA8" stroke="white"/>
<path d="M164.159 65.0229C162.525 63.3297 160.272 62.3732 157.919 62.3728H81.0481C78.2711 62.3772 75.6632 63.7076 74.0295 65.9532L119.484 93.0009L164.159 65.0229Z" fill="#264FA8"/>
<path d="M76.2568 63.8234C77.8399 65.458 80.398 68.1556 82.8402 68.1556H157.14C160.015 68.1556 161.925 66.5892 163.51 64.4231L125.231 41.451C121.223 39.0462 116.207 39.0817 112.234 41.5431L76.2568 63.8234Z" fill="#264FA8"/>
<path d="M93.7476 77.6847V61.197H142.692V78.6806L119.483 92.998L93.7476 77.6847Z" fill="white"/>
<path d="M134.742 79.1813H101.698C100.547 79.1813 99.614 78.2483 99.614 77.0975C99.614 75.9466 100.547 75.0137 101.698 75.0137H134.742C135.893 75.0137 136.825 75.9466 136.825 77.0975C136.825 78.2483 135.893 79.1813 134.742 79.1813Z" fill="#BDCFFF"/>
<path d="M134.742 71.1334H101.698C100.568 71.1042 99.6665 70.1795 99.6665 69.0489C99.6665 67.9183 100.568 66.9937 101.698 66.9644H134.742C135.872 66.9937 136.773 67.9183 136.773 69.0489C136.773 70.1795 135.872 71.1042 134.742 71.1334Z" fill="#BDCFFF"/>
<rect x="136.231" y="95.8727" width="41.8951" height="41.8951" rx="20.9476" fill="url(#paint9_linear_118_3551)"/>
<path d="M149.06 122.627C148.73 122.627 148.413 122.496 148.179 122.262C147.945 122.028 147.813 121.711 147.813 121.381V111.685C147.816 109.525 149.567 107.774 151.727 107.772H161.63C162.319 107.772 162.877 108.33 162.877 109.019C162.877 109.707 162.319 110.265 161.63 110.265H151.727C150.944 110.267 150.309 110.902 150.307 111.685V121.381C150.307 121.711 150.176 122.028 149.942 122.262C149.708 122.496 149.391 122.627 149.06 122.627Z" fill="white"/>
<path d="M165.509 126.801C165.178 126.801 164.861 126.669 164.628 126.435L149.115 110.922C148.646 110.433 148.655 109.658 149.134 109.179C149.613 108.699 150.388 108.691 150.878 109.159L166.391 124.672C166.747 125.029 166.854 125.565 166.661 126.031C166.468 126.497 166.013 126.8 165.509 126.801Z" fill="white"/>
<defs>
<linearGradient id="paint0_linear_118_3551" x1="0" y1="123.504" x2="84.358" y2="123.504" gradientUnits="userSpaceOnUse">
<stop stop-color="#CDDBFF"/>
<stop offset="0.89" stop-color="#FAFBFF"/>
<stop offset="1" stop-color="white"/>
</linearGradient>
<linearGradient id="paint1_linear_118_3551" x1="21.2956" y1="101.148" x2="105.654" y2="101.148" gradientUnits="userSpaceOnUse">
<stop stop-color="#CDDBFF"/>
<stop offset="0.89" stop-color="#FAFBFF"/>
<stop offset="1" stop-color="white"/>
</linearGradient>
<linearGradient id="paint2_linear_118_3551" x1="144.052" y1="87.8832" x2="228.409" y2="87.8832" gradientUnits="userSpaceOnUse">
<stop stop-color="#CDDBFF"/>
<stop offset="0.89" stop-color="#FAFBFF"/>
<stop offset="1" stop-color="white"/>
</linearGradient>
<linearGradient id="paint3_linear_118_3551" x1="50.907" y1="50.6527" x2="82.4305" y2="50.6527" gradientUnits="userSpaceOnUse">
<stop stop-color="#CDDBFF"/>
<stop offset="0.89" stop-color="#FAFBFF"/>
<stop offset="1" stop-color="white"/>
</linearGradient>
<linearGradient id="paint4_linear_118_3551" x1="151.951" y1="7.59402" x2="151.951" y2="50.651" gradientUnits="userSpaceOnUse">
<stop stop-color="#CDDBFF"/>
<stop offset="0.89" stop-color="#FAFBFF"/>
<stop offset="1" stop-color="white"/>
</linearGradient>
<linearGradient id="paint5_linear_118_3551" x1="135.236" y1="28.5441" x2="148.884" y2="30.1946" gradientUnits="userSpaceOnUse">
<stop stop-color="#CDDBFF"/>
<stop offset="0.89" stop-color="#FAFBFF"/>
<stop offset="1" stop-color="white"/>
</linearGradient>
<linearGradient id="paint6_linear_118_3551" x1="96.4825" y1="28.189" x2="102.874" y2="28.0488" gradientUnits="userSpaceOnUse">
<stop stop-color="#CDDBFF"/>
<stop offset="0.89" stop-color="#FAFBFF"/>
<stop offset="1" stop-color="white"/>
</linearGradient>
<linearGradient id="paint7_linear_118_3551" x1="35.3956" y1="59.004" x2="67.7142" y2="59.004" gradientUnits="userSpaceOnUse">
<stop stop-color="#CDDBFF"/>
<stop offset="0.89" stop-color="#FAFBFF"/>
<stop offset="1" stop-color="white"/>
</linearGradient>
<linearGradient id="paint8_linear_118_3551" x1="183.589" y1="33.9888" x2="170.089" y2="59.3763" gradientUnits="userSpaceOnUse">
<stop stop-color="#CDDBFF"/>
<stop offset="0.89" stop-color="#FAFBFF"/>
<stop offset="1" stop-color="white"/>
</linearGradient>
<linearGradient id="paint9_linear_118_3551" x1="136.231" y1="137.769" x2="178.126" y2="137.769" gradientUnits="userSpaceOnUse">
<stop stop-color="#FF7A46"/>
<stop offset="1" stop-color="#FF5946"/>
</linearGradient>
</defs>
</svg>
