<svg width="178" height="139" viewBox="0 0 178 139" fill="none" xmlns="http://www.w3.org/2000/svg">
<path opacity="0.31" fill-rule="evenodd" clip-rule="evenodd" d="M77.3083 76.9637H4.27767C1.91518 76.9637 0 78.8789 0 81.2414V93.5497C0 94.6842 0.450682 95.7722 1.2529 96.5744C2.05512 97.3766 3.14316 97.8273 4.27767 97.8273H77.3083C79.6708 97.8273 81.586 95.9121 81.586 93.5497V81.2414C81.586 78.8789 79.6708 76.9637 77.3083 76.9637ZM13.3078 90.8126L11.0887 89.647L8.86423 90.8126L9.28782 88.3426L7.49365 86.5889L9.97985 86.226L11.0887 83.9786L12.199 86.226L14.6798 86.5862L12.8842 88.3399L13.3078 90.8126ZM23.7828 89.647L26.0019 90.8126L25.5783 88.3399L27.3738 86.5862L24.893 86.226L23.7828 83.9786L22.6739 86.226L20.1931 86.5889L21.9873 88.3426L21.5637 90.8126L23.7828 89.647ZM39.4244 90.8126L37.2053 89.647L34.9862 90.8126L35.4098 88.3426L33.6143 86.5889L36.0951 86.226L37.2053 83.9786L38.3142 86.226L40.7963 86.5862L39.0008 88.3399L39.4244 90.8126ZM50.6454 89.647L52.8645 90.8126L52.4396 88.3399L54.2351 86.5862L51.7543 86.226L50.6454 83.9786L49.5352 86.226L47.0544 86.5889L48.8499 88.3426L48.4263 90.8126L50.6454 89.647Z" fill="url(#paint0_linear_118_3695)"/>
<rect x="95.7239" y="64.1348" width="81.5887" height="20.8636" rx="10.4318" fill="url(#paint1_linear_118_3695)"/>
<path d="M58.1148 48.9936C57.7714 48.9947 57.4511 48.8208 57.2649 48.5323L28.8011 4.68043C28.515 4.21266 28.6536 3.60211 29.1136 3.30372C29.5737 3.00532 30.1877 3.12769 30.4981 3.57965L58.962 47.4315C59.1635 47.7424 59.179 48.1385 59.0024 48.4642C58.8258 48.7899 58.4853 48.993 58.1148 48.9936Z" fill="url(#paint2_linear_118_3695)"/>
<path d="M127.372 48.9936C127.002 48.9941 126.662 48.7925 126.484 48.468C126.307 48.1435 126.321 47.748 126.521 47.4369L151.858 7.81147C152.047 7.49524 152.394 7.30702 152.762 7.32017C153.13 7.33331 153.462 7.54575 153.629 7.87468C153.795 8.20361 153.769 8.59698 153.562 8.90146L128.225 48.5215C128.041 48.8148 127.719 48.993 127.372 48.9936Z" fill="url(#paint3_linear_118_3695)"/>
<path d="M113.459 32.8988C113.137 32.8984 112.835 32.7457 112.644 32.4871C112.454 32.2284 112.397 31.8947 112.492 31.5875L122.069 0.682019C122.248 0.165548 122.804 -0.116173 123.325 0.0456251C123.847 0.207424 124.146 0.754292 124.001 1.28097L114.423 32.1865C114.292 32.6091 113.901 32.8975 113.459 32.8988Z" fill="url(#paint4_linear_118_3695)"/>
<path d="M79.9901 33.0755C79.5499 33.0749 79.1602 32.7905 79.0256 32.3713L70.2679 4.95972C70.1484 4.61306 70.2258 4.22888 70.4702 3.95555C70.7147 3.68222 71.0878 3.56253 71.4456 3.6427C71.8034 3.72288 72.0899 3.99038 72.1943 4.34188L80.9533 31.7521C81.0351 32.0078 81.012 32.2854 80.889 32.524C80.7661 32.7626 80.5534 32.9425 80.2977 33.0242C80.1984 33.057 80.0947 33.0742 79.9901 33.0755Z" fill="url(#paint5_linear_118_3695)"/>
<path d="M43.8802 57.0661C43.6957 57.0662 43.5147 57.0158 43.3568 56.9204L14.1254 39.2283C13.8052 39.0466 13.609 38.7053 13.6131 38.3371C13.6172 37.969 13.8209 37.6321 14.1451 37.4576C14.4692 37.283 14.8626 37.2983 15.1722 37.4975L44.405 55.1896C44.7927 55.4251 44.9763 55.8899 44.8541 56.3268C44.7319 56.7637 44.3339 57.0658 43.8802 57.0661Z" fill="url(#paint6_linear_118_3695)"/>
<path d="M143.899 57.066C143.433 57.0668 143.026 56.7487 142.915 56.2959C142.803 55.8431 143.016 55.3728 143.429 55.1572L170.744 40.9253C171.065 40.7498 171.456 40.7617 171.766 40.9563C172.077 41.1509 172.257 41.4979 172.239 41.8636C172.221 42.2293 172.007 42.5566 171.679 42.7195L144.371 56.9527C144.225 57.0285 144.063 57.0674 143.899 57.066Z" fill="url(#paint7_linear_118_3695)"/>
<path d="M93.1244 91.3991C94.1983 92.2799 95.7436 92.2837 96.8218 91.4081L140.827 56.5591C139.127 54.2776 136.531 52.8165 133.619 52.8165H54.6956C52.2619 52.8165 50.0965 54.056 48.6957 55.9831C48.748 56.005 48.7984 56.0313 48.8465 56.0615L93.1244 91.3991Z" fill="#264FA8"/>
<path d="M98.384 93.7409C96.3912 95.3631 93.5313 95.3568 91.5457 93.7258L84.8265 88.3622L50.8852 121.173C50.8595 121.197 50.8279 121.204 50.8022 121.227C51.547 121.57 52.3573 121.747 53.1772 121.747H136.771C137.235 121.743 137.697 121.681 138.146 121.565L104.351 89.0257L98.384 93.7409Z" fill="#264FA8"/>
<path d="M82.6385 86.6145L47.4351 58.5148C47.1758 59.3622 47.0437 60.2433 47.0431 61.1295V115.091C47.0344 116.775 47.6396 118.405 48.7455 119.675C48.8065 119.426 48.9324 119.198 49.1104 119.013L82.6385 86.6145Z" fill="#264FA8"/>
<path d="M140.469 119.948C140.538 120.025 140.597 120.11 140.646 120.201C142.088 118.895 142.905 117.037 142.893 115.091V62.8893C142.894 61.5786 142.656 60.2786 142.191 59.0532L106.545 87.2825L140.469 119.948Z" fill="#264FA8"/>
<rect x="111.16" y="92.7254" width="45.2927" height="45.2927" rx="22.6464" fill="url(#paint8_linear_118_3695)"/>
<path d="M131.456 123.803C130.898 123.803 130.364 123.58 129.971 123.183L124.208 117.363C123.426 116.537 123.447 115.239 124.255 114.439C125.063 113.639 126.362 113.631 127.18 114.421L131.315 118.598L140.306 107.699C141.05 106.841 142.342 106.733 143.218 107.456C144.093 108.178 144.233 109.467 143.532 110.36L133.068 123.042C132.691 123.496 132.14 123.77 131.55 123.796L131.456 123.803Z" fill="white"/>
<defs>
<linearGradient id="paint0_linear_118_3695" x1="-0.00269799" y1="97.8277" x2="81.586" y2="97.8277" gradientUnits="userSpaceOnUse">
<stop stop-color="#CDDBFF"/>
<stop offset="0.89" stop-color="#FAFBFF"/>
<stop offset="1" stop-color="white"/>
</linearGradient>
<linearGradient id="paint1_linear_118_3695" x1="95.7239" y1="84.9982" x2="177.311" y2="84.9982" gradientUnits="userSpaceOnUse">
<stop stop-color="#CDDBFF"/>
<stop offset="0.89" stop-color="#FAFBFF"/>
<stop offset="1" stop-color="white"/>
</linearGradient>
<linearGradient id="paint2_linear_118_3695" x1="28.6365" y1="48.9899" x2="59.1252" y2="48.9899" gradientUnits="userSpaceOnUse">
<stop stop-color="#CDDBFF"/>
<stop offset="0.89" stop-color="#FAFBFF"/>
<stop offset="1" stop-color="white"/>
</linearGradient>
<linearGradient id="paint3_linear_118_3695" x1="126.364" y1="7.34472" x2="126.364" y2="48.9882" gradientUnits="userSpaceOnUse">
<stop stop-color="#CDDBFF"/>
<stop offset="0.89" stop-color="#FAFBFF"/>
<stop offset="1" stop-color="white"/>
</linearGradient>
<linearGradient id="paint4_linear_118_3695" x1="110.197" y1="27.607" x2="123.398" y2="29.2033" gradientUnits="userSpaceOnUse">
<stop stop-color="#CDDBFF"/>
<stop offset="0.89" stop-color="#FAFBFF"/>
<stop offset="1" stop-color="white"/>
</linearGradient>
<linearGradient id="paint5_linear_118_3695" x1="72.7159" y1="27.2637" x2="78.8976" y2="27.128" gradientUnits="userSpaceOnUse">
<stop stop-color="#CDDBFF"/>
<stop offset="0.89" stop-color="#FAFBFF"/>
<stop offset="1" stop-color="white"/>
</linearGradient>
<linearGradient id="paint6_linear_118_3695" x1="13.6344" y1="57.0671" x2="44.892" y2="57.0671" gradientUnits="userSpaceOnUse">
<stop stop-color="#CDDBFF"/>
<stop offset="0.89" stop-color="#FAFBFF"/>
<stop offset="1" stop-color="white"/>
</linearGradient>
<linearGradient id="paint7_linear_118_3695" x1="156.962" y1="32.8731" x2="143.906" y2="57.4271" gradientUnits="userSpaceOnUse">
<stop stop-color="#CDDBFF"/>
<stop offset="0.89" stop-color="#FAFBFF"/>
<stop offset="1" stop-color="white"/>
</linearGradient>
<linearGradient id="paint8_linear_118_3695" x1="133.806" y1="92.7254" x2="133.806" y2="138.018" gradientUnits="userSpaceOnUse">
<stop stop-color="#FF7A46"/>
<stop offset="1" stop-color="#FF5946"/>
</linearGradient>
</defs>
</svg>
