<svg width="400" height="400" viewBox="0 0 400 400" fill="none" xmlns="http://www.w3.org/2000/svg">
<path d="M48.5838 54L59.0798 53.776L64.4078 53.688C66.1918 53.688 67.9758 53.688 69.7678 53.688H70.1198V54.048L70.1678 63V63.4H69.7678L59.1998 63.304C55.6638 63.304 52.1358 63.216 48.6078 63.168H48.3838V62.952C48.3838 61.432 48.4558 59.928 48.4878 58.432L48.5838 54ZM48.5838 54L48.6958 58.528C48.6958 60.016 48.7838 61.488 48.7998 62.952L48.5838 62.736C52.1118 62.736 55.6398 62.608 59.1758 62.608L69.7678 62.552L69.3678 62.952L69.4078 54L69.7678 54.36C68.0158 54.36 66.2798 54.36 64.5278 54.312L59.2638 54.224L48.5838 54Z" fill="#EBEBEB"/>
<path d="M60.3998 42.7124L70.8958 42.4884L76.2238 42.4004C78.0078 42.4004 79.7998 42.4004 81.5838 42.4004H81.9358V42.7604L81.9838 51.7124V52.1124H81.5998L70.9918 52.0004C67.4558 52.0004 63.9278 51.9124 60.3998 51.8644H60.1758V51.6484C60.1758 50.1284 60.2478 48.6244 60.2798 47.1284L60.3998 42.7124ZM60.3998 42.7124L60.5118 47.2404C60.5118 48.7284 60.5998 50.2004 60.6158 51.6644L60.3998 51.4484C63.9278 51.4484 67.4558 51.3204 70.9918 51.3204L81.5998 51.2644L81.1998 51.6644V42.7124L81.5598 43.0724C79.8158 43.0724 78.0718 43.0724 76.3198 43.0244L71.0558 42.9364L60.3998 42.7124Z" fill="#EBEBEB"/>
<path d="M80.944 157.728L91.44 157.504L96.768 157.416C98.552 157.376 100.344 157.416 102.128 157.368H102.48V157.728L102.528 166.68V167.08H102.128L91.536 167.024C88 167.024 84.472 166.936 80.944 166.896H80.72V166.68C80.72 165.16 80.792 163.648 80.824 162.152L80.944 157.728ZM80.944 157.728L81.056 162.248C81.056 163.736 81.144 165.216 81.16 166.68L80.944 166.456C84.472 166.456 88 166.328 91.536 166.328L102.128 166.28L101.728 166.68V157.728L102.088 158.08C100.336 158.08 98.6 158.08 96.848 158.08L91.584 157.992L80.944 157.728Z" fill="#EBEBEB"/>
<path d="M92.7999 146.44L103.296 146.216L108.624 146.128C110.408 146.128 112.2 146.128 113.984 146.08H114.336V146.44L114.384 155.392V155.792H113.984L103.392 155.736C99.8559 155.736 96.3279 155.648 92.7999 155.608H92.5759V155.392C92.5759 153.872 92.6479 152.36 92.6879 150.864L92.7999 146.44ZM92.7999 146.44L92.9119 150.96C92.9119 152.448 92.9999 153.928 93.0159 155.392L92.7999 155.2C96.3279 155.16 99.8559 155.08 103.392 155.072L113.984 155.024L113.584 155.424V146.472L113.944 146.824C112.2 146.824 110.456 146.824 108.704 146.784L103.44 146.696L92.7999 146.44Z" fill="#EBEBEB"/>
<path d="M36.7999 42.7124L47.3039 42.4884L52.5919 42.4004C54.3679 42.4004 56.1599 42.4004 57.9439 42.4004H58.3039V42.7604L58.3439 51.7124V52.1124H57.9359L47.3519 52.0004C43.8239 52.0004 40.2959 51.9124 36.7599 51.8644H36.5439V51.6484C36.5439 50.1284 36.6159 48.6244 36.6479 47.1284L36.7999 42.7124ZM36.7999 42.7124L36.9199 47.2404C36.9199 48.7284 37.0079 50.2004 37.0239 51.6644L36.7999 51.4484C40.3359 51.4484 43.8639 51.3204 47.3919 51.3204L57.9839 51.2644L57.5839 51.6644L57.5999 42.7124L57.9519 43.0724C56.2079 43.0724 54.4719 43.0724 52.7199 43.0244L47.4559 42.9364L36.7999 42.7124Z" fill="#EBEBEB"/>
<path d="M351.416 237.128L340.92 237.352L335.592 237.448C333.808 237.448 332.024 237.448 330.232 237.488H329.88V237.128L329.832 228.184V227.776H330.232L340.824 227.824C344.36 227.824 347.888 227.912 351.416 227.952H351.64V228.168C351.64 229.68 351.568 231.192 351.536 232.688L351.416 237.128ZM351.416 237.128L351.304 232.608C351.304 231.12 351.216 229.648 351.2 228.184L351.416 228.4C347.888 228.44 344.36 228.528 340.824 228.528L330.232 228.576L330.632 228.184L330.592 237.128L330.232 236.776C331.984 236.776 333.72 236.776 335.472 236.776L340.736 236.872L351.416 237.128Z" fill="#EBEBEB"/>
<path d="M363.24 248.416L352.736 248.64L347.408 248.736C345.624 248.736 343.84 248.736 342.056 248.776H341.696V248.416L341.656 239.464V239.064H342.064L352.656 239.112C356.184 239.112 359.712 239.2 363.248 239.24H363.464V239.448C363.464 240.968 363.392 242.48 363.36 243.976L363.24 248.416ZM363.24 248.416L363.12 243.896C363.12 242.408 363.032 240.936 363.016 239.464L363.24 239.688C359.704 239.728 356.176 239.816 352.648 239.816L342.056 239.864L342.456 239.464L342.4 248.416L342.048 248.064C343.792 248.064 345.528 248.064 347.28 248.104L352.544 248.2L363.24 248.416Z" fill="#EBEBEB"/>
<path d="M69.9439 248.416L59.4479 248.64L54.1199 248.736C52.3359 248.736 50.5439 248.736 48.7599 248.776H48.4079V248.416L48.3599 239.464V239.064H48.7999L59.3919 239.112C62.9279 239.112 66.4559 239.2 69.9839 239.24H70.2079V239.448C70.2079 240.968 70.1359 242.48 70.0959 243.976L69.9439 248.416ZM69.9439 248.416L69.8319 243.896C69.8319 242.408 69.7439 240.936 69.7279 239.464L69.9439 239.688C66.4159 239.728 62.8879 239.816 59.3519 239.816L48.7999 239.864L49.1999 239.464L49.1599 248.416L48.7999 248.064C50.5439 248.064 52.2879 248.064 54.0399 248.104L59.3039 248.2L69.9439 248.416Z" fill="#EBEBEB"/>
<path d="M330.144 42.7124L340.648 42.4884L345.976 42.4004C347.752 42.4004 349.544 42.4004 351.328 42.4004H351.688V42.7604L351.728 51.7124V52.1124H351.328L340.736 52.0004C337.208 52.0004 333.672 51.9124 330.144 51.8644H329.928V51.6484C329.928 50.1284 329.992 48.6244 330.032 47.1284L330.144 42.7124ZM330.144 42.7124L330.256 47.2404C330.296 48.7284 330.352 50.2004 330.36 51.6644L330.144 51.4484C333.672 51.4484 337.208 51.3204 340.736 51.3204L351.328 51.2644L350.928 51.6644L350.976 42.7124L351.328 43.0724C349.584 43.0724 347.84 43.0724 346.096 43.0244L340.8 42.9364L330.144 42.7124Z" fill="#EBEBEB"/>
<path d="M360.536 180.624H254.024V31.8804H360.536V180.624ZM257.184 177.464H357.376V35.0404H257.184V177.464Z" fill="#EBEBEB"/>
<path d="M308.856 35.8643H305.696V179.04H308.856V35.8643Z" fill="#EBEBEB"/>
<path d="M363.408 38.272H251.16V42.672H363.408V38.272Z" fill="#EBEBEB"/>
<path d="M363.408 43.2241H251.16V47.6241H363.408V43.2241Z" fill="#EBEBEB"/>
<path d="M363.408 48.168H251.16V52.568H363.408V48.168Z" fill="#EBEBEB"/>
<path d="M363.408 53.1201H251.16V57.5201H363.408V53.1201Z" fill="#EBEBEB"/>
<path d="M363.408 58.0723H251.16V62.4723H363.408V58.0723Z" fill="#EBEBEB"/>
<path d="M363.408 63.0239H251.16V67.4239H363.408V63.0239Z" fill="#EBEBEB"/>
<path d="M363.408 67.9761H251.16V72.3761H363.408V67.9761Z" fill="#EBEBEB"/>
<path d="M363.408 72.9282H251.16V77.3282H363.408V72.9282Z" fill="#EBEBEB"/>
<path d="M363.408 77.8804H251.16V82.2804H363.408V77.8804Z" fill="#EBEBEB"/>
<path d="M354.016 37.376H353.224V123.016H354.016V37.376Z" fill="#A6A6A6"/>
<path d="M355.024 126.696H352.216L352.92 122.664H354.32L355.024 126.696Z" fill="#A6A6A6"/>
<path d="M356.864 37.376H356.072V144.616H356.864V37.376Z" fill="#A6A6A6"/>
<path d="M357.872 147.584H355.064L355.768 143.552H357.168L357.872 147.584Z" fill="#A6A6A6"/>
<path d="M368.312 31.2642H246.256V40.4722H368.312V31.2642Z" fill="#DBDBDB"/>
<path d="M123.232 84.064H33.7759V89.376H123.232V84.064Z" fill="#EBEBEB"/>
<path d="M45.8799 89.376H40.5679V106.944H45.8799V89.376Z" fill="#EBEBEB"/>
<path d="M45.8799 89.376H40.5679V94.808H45.8799V89.376Z" fill="#DBDBDB"/>
<path d="M116.44 89.376H111.128V106.944H116.44V89.376Z" fill="#EBEBEB"/>
<path d="M116.44 89.376H111.128V94.808H116.44V89.376Z" fill="#DBDBDB"/>
<path d="M53.9438 84.064V50.208H45.4158V84.064H53.9438Z" fill="#C7C7C7"/>
<path d="M53.9438 52.1282V48.4082H45.4158V52.1282H53.9438Z" fill="#DBDBDB"/>
<path d="M53.9438 58.2722V56.8882H45.4158V58.2722H53.9438Z" fill="#DBDBDB"/>
<path d="M55.0078 79.6243V75.9043H45.4238V79.6243H55.0078Z" fill="#DBDBDB"/>
<path d="M59.896 84.0642V44.5762H53.936V84.0642H59.896Z" fill="#DBDBDB"/>
<path d="M58.6799 63.4801V48.2881H55.1039V63.4801H58.6799Z" fill="#EBEBEB"/>
<path d="M102.274 79.8376L74.1912 52.0767L70.0012 56.3152L98.0837 84.0762L102.274 79.8376Z" fill="#C7C7C7"/>
<path d="M94.8714 74.1549L84.0674 63.4746L81.5534 66.0177L92.3574 76.6981L94.8714 74.1549Z" fill="#DBDBDB"/>
<path d="M70.0159 84.0721V54.0801H59.8959V84.0721H70.0159Z" fill="#A6A6A6"/>
<path d="M70.0159 80.8882V78.0962H59.8959V80.8882H70.0159Z" fill="#C7C7C7"/>
<path d="M70.0159 76.2643V75.1763H59.8959V76.2643H70.0159Z" fill="#C7C7C7"/>
<path d="M45.4158 84.0802V55.8882H38.4238V84.0802H45.4158Z" fill="#A6A6A6"/>
<path d="M45.4158 81.0801V78.4561H38.4238V81.0801H45.4158Z" fill="#C7C7C7"/>
<path d="M45.4158 64.312V61.688H38.4238V64.312H45.4158Z" fill="#C7C7C7"/>
<path d="M45.4158 67.1361V66.1201H38.4238V67.1361H45.4158Z" fill="#C7C7C7"/>
<path d="M361.056 357.272C361.056 368.624 288.944 377.832 200 377.832C111.056 377.832 38.9441 368.624 38.9441 357.272C38.9441 345.92 111.056 336.712 200 336.712C288.944 336.712 361.056 345.92 361.056 357.272Z" fill="#EBEBEB"/>
<path d="M320.112 261.312C320.112 261.312 306.84 258.304 299.568 251.6C292.296 244.896 288.224 232.888 288.224 232.888C293.269 233.855 298.243 235.162 303.112 236.8C304.939 238.684 306.459 240.844 307.616 243.2C307.73 241.685 307.73 240.163 307.616 238.648C309.316 239.38 310.907 240.344 312.344 241.512C318.4 246.76 320.112 261.312 320.112 261.312Z" fill="#FF7010"/>
<path d="M296.512 238.72C294.704 237.472 292.864 236.264 291.064 235C290.952 234.928 291.064 234.752 291.168 234.824C294.592 236.864 297.96 239.048 301.224 241.336C302.36 242.136 303.48 242.96 304.584 243.808L304.352 243.416C303.952 242.752 303.552 242.096 303.112 241.44C302.281 240.11 301.339 238.852 300.296 237.68C300.256 237.64 300.296 237.576 300.36 237.616C301.392 238.808 302.424 240.016 303.368 241.256C303.816 241.856 304.232 242.48 304.632 243.112C304.84 243.448 305.04 243.776 305.224 244.12L305.424 244.456C307.144 245.808 308.816 247.216 310.408 248.696C311.395 249.613 312.347 250.563 313.264 251.544C312.744 249.944 312.296 248.344 311.704 246.744C311.704 246.688 311.776 246.664 311.792 246.744C312.368 248.4 313 250.072 313.448 251.776C314.464 252.872 315.44 254.008 316.352 255.2L316.304 254.984C316.152 254.352 316 253.728 315.832 253.112C315.512 251.912 315.152 250.712 314.752 249.536C313.987 247.093 312.777 244.812 311.184 242.808C311.144 242.76 311.184 242.696 311.248 242.744C313.735 245.846 315.476 249.479 316.336 253.36C316.48 253.92 316.608 254.488 316.736 255.056C316.808 255.36 316.888 255.664 316.936 255.976C317.336 256.52 317.736 257.064 318.112 257.624C320.365 261.086 322.243 264.779 323.712 268.64C325.38 272.97 326.812 277.387 328 281.872C327.995 281.886 327.986 281.898 327.974 281.907C327.962 281.916 327.947 281.92 327.932 281.92C327.917 281.92 327.903 281.916 327.89 281.907C327.878 281.898 327.869 281.886 327.864 281.872C325.264 274.104 322.616 266.224 318.168 259.288C317.23 257.821 316.218 256.404 315.136 255.04C312.937 254.899 310.767 254.469 308.68 253.76C306.404 252.989 304.233 251.938 302.216 250.632C301.067 249.855 299.959 249.02 298.896 248.128C298.889 248.126 298.883 248.121 298.877 248.116C298.872 248.11 298.868 248.104 298.866 248.096C298.864 248.089 298.864 248.081 298.865 248.074C298.867 248.066 298.87 248.059 298.874 248.053C298.879 248.047 298.885 248.043 298.892 248.039C298.899 248.036 298.906 248.035 298.914 248.035C298.922 248.035 298.929 248.037 298.936 248.041C298.942 248.045 298.948 248.05 298.952 248.056C300.807 249.553 302.854 250.794 305.04 251.744C307.185 252.729 309.43 253.48 311.736 253.984C312.712 254.2 313.712 254.36 314.704 254.496C313.477 252.983 312.171 251.536 310.792 250.16C310.344 249.712 309.88 249.28 309.416 248.848C307.869 247.766 306.228 246.826 304.512 246.04C302.336 244.984 300.192 243.872 298.04 242.776C296.824 242.16 295.64 241.528 294.4 240.928C294.344 240.928 294.4 240.832 294.448 240.856C296.624 241.912 298.84 242.896 301.04 243.904C303.24 244.912 305.216 245.808 307.2 246.92L307.456 247.072C305.656 245.472 303.792 244.016 301.856 242.576C300.112 241.28 298.328 240 296.512 238.72Z" fill="#263238"/>
<path d="M297.272 245.6C298.352 246.072 299.448 246.488 300.52 246.992C301.592 247.496 302.656 248.104 303.72 248.72C303.725 248.723 303.729 248.726 303.732 248.73C303.736 248.735 303.738 248.74 303.74 248.745C303.741 248.75 303.742 248.755 303.741 248.761C303.74 248.766 303.739 248.771 303.736 248.776C303.733 248.781 303.73 248.785 303.726 248.788C303.721 248.792 303.717 248.794 303.711 248.796C303.706 248.797 303.701 248.798 303.695 248.797C303.69 248.796 303.685 248.795 303.68 248.792C302.624 248.288 301.552 247.816 300.48 247.288C299.408 246.76 298.344 246.168 297.24 245.688C297.192 245.6 297.216 245.544 297.272 245.6Z" fill="#263238"/>
<path d="M363.2 194.4C360.736 197.56 359.336 201.419 359.2 205.424C359.16 206.616 359.344 208.28 359.488 210.224C356.174 212.147 353.238 214.657 350.824 217.632C353.474 216.092 356.517 215.363 359.576 215.536C359.508 216.88 359.339 218.217 359.072 219.536C357.151 219.542 355.25 219.919 353.472 220.648C355.214 220.63 356.941 220.973 358.544 221.656C356.144 229.184 349.152 236.92 329.744 240.2C327.688 230.967 328.904 221.307 333.184 212.872C339.016 201.408 363.2 194.4 363.2 194.4Z" fill="#FF7010"/>
<path d="M323.04 272.392C323.376 269.192 323.795 265.992 324.296 262.792C325.279 256.394 326.585 250.05 328.208 243.784C328.971 240.843 329.909 237.949 331.016 235.12C330.96 234.604 330.936 234.086 330.944 233.568C330.944 232.944 330.944 232.32 330.944 231.696C330.944 230.456 331.016 229.216 331.12 227.976C331.317 225.518 331.716 223.08 332.312 220.688C332.672 219.304 333.112 217.944 333.488 216.576C333.492 216.567 333.498 216.56 333.506 216.555C333.514 216.55 333.523 216.547 333.532 216.547C333.541 216.547 333.551 216.55 333.558 216.555C333.566 216.56 333.572 216.567 333.576 216.576C332.928 218.963 332.447 221.393 332.136 223.848C331.792 226.264 331.576 228.697 331.488 231.136C331.488 231.8 331.448 232.472 331.448 233.136C331.448 233.424 331.448 233.712 331.448 233.992C332.404 231.673 333.497 229.413 334.72 227.224C336.693 223.753 338.915 220.43 341.368 217.28C341.373 216.912 341.427 216.546 341.528 216.192C341.616 215.76 341.712 215.328 341.808 214.888C342.008 214.008 342.232 213.12 342.472 212.248C342.952 210.488 343.592 208.784 344.144 207.048C344.148 207.039 344.154 207.032 344.162 207.027C344.17 207.022 344.179 207.019 344.188 207.019C344.197 207.019 344.207 207.022 344.214 207.027C344.222 207.032 344.228 207.039 344.232 207.048C343.72 208.768 343.376 210.552 342.984 212.304C342.784 213.168 342.6 214.032 342.408 214.904C342.312 215.336 342.216 215.768 342.128 216.2C342.128 216.2 342.128 216.272 342.128 216.304C342.912 215.312 343.712 214.336 344.528 213.376C348.232 209.024 352.296 205.008 356.392 201.032C356.896 200.536 357.408 200.064 357.92 199.576C357.92 199.576 358.024 199.576 357.984 199.648C354.072 203.728 350.224 207.848 346.576 212.168C345.704 213.2 344.856 214.24 344.016 215.288L345.344 214.408C346.472 213.672 347.616 212.952 348.792 212.296C349.968 211.64 351.192 210.984 352.368 210.384C353.544 209.784 354.944 209.264 356.152 208.568C356.2 208.568 356.248 208.624 356.192 208.648C354.965 209.214 353.78 209.869 352.648 210.608C351.464 211.312 350.288 212.016 349.128 212.752C347.968 213.488 346.84 214.192 345.704 214.928C344.76 215.544 343.832 216.216 342.848 216.776C340.597 219.669 338.519 222.693 336.624 225.832C335.454 227.81 334.386 229.848 333.424 231.936L334.12 231.632L335.904 230.832C337.04 230.328 338.192 229.832 339.336 229.336C341.512 228.384 343.728 227.52 345.864 226.48C347.068 225.912 348.233 225.265 349.352 224.544C349.4 224.544 349.44 224.544 349.392 224.624C345.392 227.368 340.944 229.296 336.544 231.248L334.632 232.096C334.104 232.328 333.576 232.584 333.032 232.792C331.726 235.711 330.627 238.718 329.744 241.792C328.009 247.975 326.6 254.245 325.52 260.576C324.408 266.92 323.656 273.304 323.072 279.72C323 280.52 322.928 281.32 322.832 282.12C322.822 282.179 322.791 282.232 322.744 282.271C322.698 282.309 322.64 282.331 322.58 282.331C322.52 282.331 322.462 282.309 322.416 282.271C322.37 282.232 322.339 282.179 322.328 282.12C322.4 278.888 322.696 275.632 323.04 272.392Z" fill="#263238"/>
<path d="M334.856 218.76C335.208 216.784 335.736 214.856 336.264 212.92C336.264 212.864 336.368 212.92 336.352 212.92C335.864 214.816 335.512 216.752 335.152 218.672C334.792 220.592 334.472 222.608 334.192 224.584C334.192 224.584 334.136 224.624 334.136 224.584C334.265 222.63 334.506 220.686 334.856 218.76Z" fill="#263238"/>
<path d="M343.2 224.112C344.552 223.217 345.963 222.415 347.424 221.712C348.128 221.352 348.848 221 349.56 220.656C350.272 220.312 351.072 220 351.808 219.632C351.856 219.632 351.896 219.68 351.808 219.704C351.096 220.064 350.424 220.504 349.728 220.872L347.568 222.056C346.152 222.816 344.752 223.656 343.264 224.28C343.247 224.275 343.232 224.266 343.219 224.255C343.206 224.243 343.196 224.228 343.19 224.212C343.184 224.196 343.181 224.178 343.183 224.161C343.185 224.143 343.191 224.127 343.2 224.112Z" fill="#263238"/>
<path opacity="0.1" d="M319.872 238.32C319.872 238.32 307.592 235.384 301.952 227.12C296.568 219.256 294.824 205.84 294.688 204.656C294.904 205.744 297.44 217.456 305.8 222.928C312.208 227.136 318.4 230.576 319.872 238.32Z" fill="#263238"/>
<path d="M319.872 238.32C319.872 238.32 307.592 235.384 301.952 227.12C296.568 219.256 294.824 205.84 294.688 204.656C294.684 204.629 294.684 204.602 294.688 204.576C294.688 204.576 300.576 212.952 306.768 215.088C312.96 217.224 321.648 224.632 319.872 238.32Z" fill="#FF7010"/>
<path d="M296.848 209.216C297.95 211.473 299.221 213.645 300.648 215.712C302.079 217.673 303.778 219.424 305.696 220.912C307.368 222.24 309.128 223.44 310.816 224.736V224.672C310.496 224.208 310.16 223.744 309.808 223.304C309.104 222.4 308.336 221.552 307.56 220.712C306.04 219.056 304.48 217.432 303.112 215.64C302.349 214.643 301.69 213.57 301.144 212.44C301.144 212.384 301.2 212.36 301.224 212.44C303.216 216.592 307.2 219.248 310.024 222.752C310.426 223.25 310.802 223.768 311.152 224.304C311.434 224.693 311.673 225.111 311.864 225.552C313.42 226.799 314.826 228.222 316.056 229.792C315.95 228.981 315.784 228.179 315.56 227.392C315.276 226.298 314.837 225.25 314.256 224.28C314.256 224.232 314.304 224.176 314.336 224.232C314.929 225.204 315.409 226.24 315.768 227.32C316.028 228.18 316.178 229.07 316.216 229.968C316.824 230.793 317.38 231.656 317.88 232.552C317.824 232.288 317.776 232.024 317.728 231.752C317.48 230.528 317.216 229.304 316.928 228.096C316.349 225.637 315.35 223.296 313.976 221.176C313.936 221.128 313.976 221.08 314.048 221.128C315.457 223.216 316.559 225.495 317.32 227.896C317.712 229.104 318.024 230.296 318.304 231.568C318.44 232.168 318.56 232.776 318.672 233.384C318.736 233.696 318.8 234.024 318.856 234.344C320.072 237.02 321.021 239.809 321.688 242.672C322.892 247.786 323.766 252.973 324.304 258.2C324.938 263.672 325.222 269.179 325.152 274.688C325.152 275.384 325.096 276.072 325.064 276.76C325.064 276.936 324.784 276.968 324.776 276.76C324.656 274.032 324.584 271.304 324.424 268.584C324.264 265.864 324.024 263.144 323.736 260.424C323.176 255.087 322.321 249.786 321.176 244.544C320.176 240.056 318.888 235.536 316.432 231.6C315.212 229.641 313.72 227.866 312 226.328C310.28 224.784 308.4 223.432 306.584 222C304.744 220.599 303.074 218.988 301.608 217.2C300.109 215.216 298.802 213.095 297.704 210.864L296.824 209.2C296.744 209.216 296.8 209.168 296.848 209.216Z" fill="#263238"/>
<path d="M298.968 211.024C299.776 212.681 300.69 214.284 301.704 215.824C301.704 215.824 301.704 215.896 301.648 215.824C300.593 214.304 299.667 212.698 298.88 211.024C298.856 211 298.944 210.968 298.968 211.024Z" fill="#263238"/>
<path d="M364.944 232.888C364.944 232.888 365.144 250.344 354.704 255.376C344.264 260.408 338.704 256.224 331.584 257.912C331.856 257.496 336.92 250.216 344.968 248.216C353.256 246.144 362.4 240.16 364.944 232.888Z" fill="#FF7010"/>
<path opacity="0.1" d="M364.944 232.888C364.944 232.888 365.144 250.344 354.704 255.376C344.264 260.408 338.704 256.224 331.584 257.912C335.332 256.124 339.339 254.938 343.456 254.4C350.04 253.6 362.608 249.32 364.944 232.888Z" fill="black"/>
<path d="M330.896 258.224C332.136 257.088 333.534 256.14 335.048 255.408C335.264 255.304 335.496 255.216 335.728 255.12C335.834 254.979 335.949 254.846 336.072 254.72C336.392 254.392 336.712 254.08 337.056 253.784C337.713 253.221 338.417 252.715 339.16 252.272C340.888 251.256 342.784 250.544 344.552 249.6C344.6 249.6 344.648 249.648 344.592 249.68C343.72 250.128 342.872 250.632 342.024 251.128C341.176 251.624 340.352 252.072 339.544 252.592C338.821 253.058 338.131 253.574 337.48 254.136C337.296 254.296 337.12 254.472 336.944 254.648C338.099 254.26 339.277 253.948 340.472 253.712C342.384 253.328 344.312 253.056 346.224 252.648C347.159 252.448 348.083 252.2 348.992 251.904C349.856 251.2 350.72 250.512 351.544 249.752C352.535 248.842 353.438 247.84 354.24 246.76C354.24 246.72 354.352 246.76 354.312 246.808C353.047 248.521 351.616 250.105 350.04 251.536C350.488 251.36 350.928 251.176 351.368 250.976C354.955 249.37 358.032 246.811 360.264 243.576C360.264 243.528 360.376 243.576 360.344 243.624C358.446 246.399 355.995 248.753 353.144 250.536C351.718 251.427 350.193 252.149 348.6 252.688C346.75 253.261 344.863 253.708 342.952 254.024C341.08 254.328 339.233 254.766 337.424 255.336C335.759 255.9 334.193 256.724 332.784 257.776C330.127 259.841 327.985 262.495 326.528 265.528C324.657 269.567 323.491 273.896 323.08 278.328C323.08 278.512 322.776 278.512 322.784 278.328C323.272 270.952 325.24 263.312 330.896 258.224Z" fill="#263238"/>
<path d="M343.008 252.528C343.553 251.714 344.289 251.046 345.152 250.584C346.142 250.067 347.012 249.348 347.704 248.472C347.704 248.424 347.816 248.472 347.776 248.52C347.15 249.318 346.389 250 345.528 250.536C344.581 251.041 343.745 251.732 343.072 252.568C343.04 252.608 342.976 252.568 343.008 252.528Z" fill="#263238"/>
<path d="M337.464 271.104L336.992 280.704L335.536 310.024H313.64L312.184 280.704L311.712 271.104H337.464Z" fill="#37474F"/>
<path d="M337.464 271.104L336.992 280.704H312.184L311.712 271.104H337.464Z" fill="#263238"/>
<path d="M339 267.096H310.176V276.256H339V267.096Z" fill="#37474F"/>
<path d="M33.7759 310.024L75.3279 309.832L116.888 309.76L200 309.624L283.112 309.76L324.672 309.832L366.224 310.024L324.672 310.224L283.112 310.296L200 310.424L116.888 310.288L75.3279 310.224L33.7759 310.024Z" fill="#263238"/>
<path d="M300.176 331.408V52.584C300.176 46.8888 295.559 42.272 289.864 42.272L110.144 42.272C104.449 42.272 99.832 46.8888 99.832 52.584L99.832 331.408C99.832 337.103 104.449 341.72 110.144 341.72H289.864C295.559 341.72 300.176 337.103 300.176 331.408Z" fill="#263238"/>
<path d="M291.72 63.2319H108.512V320.944H291.72V63.2319Z" fill="white"/>
<path d="M221.792 54.9919V53.8799C221.792 53.3276 221.344 52.8799 220.792 52.8799H179.192C178.64 52.8799 178.192 53.3276 178.192 53.8799V54.9919C178.192 55.5442 178.64 55.9919 179.192 55.9919H220.792C221.344 55.9919 221.792 55.5442 221.792 54.9919Z" fill="#37474F"/>
<path d="M200 336.712C203.115 336.712 205.64 334.187 205.64 331.072C205.64 327.957 203.115 325.432 200 325.432C196.885 325.432 194.36 327.957 194.36 331.072C194.36 334.187 196.885 336.712 200 336.712Z" fill="#37474F"/>
<path d="M263.496 98.624H136.744V100.408H263.496V98.624Z" fill="#EBEBEB"/>
<path d="M263.496 104.16H136.744V105.944H263.496V104.16Z" fill="#EBEBEB"/>
<path d="M263.496 272.744H136.744V274.528H263.496V272.744Z" fill="#EBEBEB"/>
<path d="M263.496 278.28H136.744V280.064H263.496V278.28Z" fill="#EBEBEB"/>
<path d="M167.56 297.488C170.794 297.488 173.416 294.866 173.416 291.632C173.416 288.398 170.794 285.776 167.56 285.776C164.326 285.776 161.704 288.398 161.704 291.632C161.704 294.866 164.326 297.488 167.56 297.488Z" fill="#FF7010"/>
<path d="M167.656 295.048L164.168 291.52L165.344 290.36L167.376 292.424L171.616 285.784L173 286.672L167.656 295.048Z" fill="white"/>
<path d="M182.224 291.584C182.228 291.164 182.304 290.747 182.448 290.352C182.596 289.949 182.822 289.58 183.112 289.264C183.421 288.915 183.802 288.637 184.229 288.451C184.656 288.264 185.118 288.173 185.584 288.184C186.145 288.174 186.699 288.318 187.184 288.6C187.619 288.852 187.971 289.224 188.2 289.672L187.2 290.4C187.12 290.219 187.009 290.054 186.872 289.912C186.751 289.789 186.614 289.684 186.464 289.6C186.317 289.525 186.161 289.469 186 289.432C185.845 289.4 185.687 289.384 185.528 289.384C185.228 289.376 184.93 289.445 184.664 289.584C184.423 289.71 184.213 289.888 184.048 290.104C183.883 290.323 183.759 290.569 183.68 290.832C183.499 291.377 183.499 291.967 183.68 292.512C183.769 292.781 183.907 293.03 184.088 293.248C184.265 293.457 184.479 293.631 184.72 293.76C184.968 293.887 185.242 293.952 185.52 293.952C185.682 293.949 185.843 293.928 186 293.888C186.165 293.853 186.325 293.794 186.472 293.712C186.624 293.624 186.764 293.516 186.888 293.392C187.019 293.251 187.125 293.089 187.2 292.912L188.28 293.536C188.173 293.792 188.015 294.023 187.816 294.216C187.615 294.412 187.386 294.577 187.136 294.704C186.627 294.977 186.058 295.12 185.48 295.12C185.017 295.124 184.56 295.02 184.144 294.816C183.749 294.618 183.396 294.347 183.104 294.016C182.813 293.686 182.583 293.307 182.424 292.896C182.272 292.476 182.204 292.03 182.224 291.584Z" fill="#FF7010"/>
<path d="M192.064 295.088C191.594 295.095 191.129 294.994 190.704 294.792C189.909 294.407 189.293 293.731 188.984 292.904C188.825 292.499 188.744 292.067 188.744 291.632C188.744 291.185 188.831 290.742 189 290.328C189.163 289.921 189.399 289.546 189.696 289.224C189.997 288.892 190.358 288.621 190.76 288.424C191.18 288.236 191.636 288.14 192.096 288.144C192.562 288.135 193.023 288.24 193.44 288.448C193.839 288.642 194.196 288.914 194.488 289.248C194.795 289.584 195.037 289.975 195.2 290.4C195.357 290.803 195.439 291.232 195.44 291.664C195.44 292.111 195.353 292.554 195.184 292.968C195.027 293.374 194.794 293.746 194.496 294.064C194.197 294.381 193.838 294.637 193.44 294.816C193.008 295.011 192.538 295.104 192.064 295.088ZM190.088 291.632C190.089 291.923 190.135 292.211 190.224 292.488C190.308 292.751 190.438 292.998 190.608 293.216C190.782 293.425 190.993 293.599 191.232 293.728C191.493 293.856 191.781 293.919 192.072 293.912C192.369 293.918 192.662 293.852 192.928 293.72C193.169 293.59 193.381 293.413 193.552 293.2C193.72 292.978 193.85 292.729 193.936 292.464C194.015 292.205 194.058 291.935 194.064 291.664C194.065 291.373 194.016 291.083 193.92 290.808C193.835 290.544 193.702 290.297 193.528 290.08C193.362 289.866 193.149 289.693 192.904 289.576C192.656 289.453 192.382 289.39 192.104 289.392C191.81 289.386 191.519 289.452 191.256 289.584C191.01 289.705 190.796 289.884 190.632 290.104C190.462 290.322 190.332 290.569 190.248 290.832C190.155 291.089 190.101 291.359 190.088 291.632Z" fill="#FF7010"/>
<path d="M197.736 290.672V295.04H196.416V288.224H197.44L200.992 292.696V288.232H202.32V295.04H201.24L197.736 290.672Z" fill="#FF7010"/>
<path d="M203.736 295.04V288.224H208.32V289.384H205.064V291.144H207.768V292.216H205.064V295.04H203.736Z" fill="#FF7010"/>
<path d="M209.248 295.04V288.224H210.576V295.04H209.248Z" fill="#FF7010"/>
<path d="M212 295.04V288.224H215.016C215.317 288.221 215.616 288.287 215.888 288.416C216.146 288.548 216.379 288.724 216.576 288.936C216.764 289.152 216.915 289.398 217.024 289.664C217.128 289.918 217.182 290.189 217.184 290.464C217.191 290.889 217.078 291.308 216.856 291.672C216.651 292.028 216.337 292.308 215.96 292.472L217.512 295.04H216L214.608 292.752H213.304V295.04H212ZM213.328 291.592H214.992C215.11 291.595 215.227 291.564 215.328 291.504C215.434 291.447 215.527 291.368 215.6 291.272C215.683 291.167 215.745 291.048 215.784 290.92C215.832 290.781 215.857 290.635 215.856 290.488C215.855 290.338 215.828 290.189 215.776 290.048C215.729 289.919 215.658 289.799 215.568 289.696C215.484 289.601 215.384 289.522 215.272 289.464C215.165 289.41 215.047 289.383 214.928 289.384H213.328V291.592Z" fill="#FF7010"/>
<path d="M223.936 295.04V290.528L222.184 293.888H221.464L219.704 290.528V295.04H218.4V288.224H219.824L221.84 292.104L223.872 288.224H225.288V295.04H223.936Z" fill="#FF7010"/>
<path d="M231.416 293.88V295.04H226.68V288.224H231.328V289.384H228V290.984H230.872V292.064H228V293.84L231.416 293.88Z" fill="#FF7010"/>
<path d="M232.456 295.04V288.224H234.928C235.43 288.211 235.928 288.304 236.392 288.496C236.793 288.658 237.154 288.906 237.448 289.224C237.732 289.536 237.947 289.904 238.08 290.304C238.373 291.19 238.373 292.146 238.08 293.032C237.934 293.432 237.703 293.797 237.403 294.101C237.104 294.404 236.743 294.64 236.344 294.792C235.9 294.963 235.428 295.048 234.952 295.04H232.456ZM236.952 291.624C236.958 291.317 236.912 291.011 236.816 290.72C236.737 290.457 236.604 290.215 236.424 290.008C236.251 289.807 236.035 289.649 235.792 289.544C235.517 289.435 235.224 289.381 234.928 289.384H233.776V293.88H234.928C235.228 293.883 235.525 293.823 235.8 293.704C236.043 293.596 236.259 293.435 236.432 293.232C236.607 293.02 236.737 292.775 236.816 292.512C236.912 292.226 236.958 291.925 236.952 291.624Z" fill="#FF7010"/>
<path d="M250.112 260.32H149.888V175.536L199.992 143.712L250.112 175.536V260.32Z" fill="#FF7010"/>
<path opacity="0.2" d="M250.112 260.32H149.888V175.536L199.992 143.712L250.112 175.536V260.32Z" fill="black"/>
<path d="M244.456 139.68H155.536V253.832H244.456V139.68Z" fill="#EBEBEB"/>
<path d="M194.584 207.976L174.224 187.368L181.064 180.608L192.96 192.648L217.664 153.912L225.776 159.08L194.584 207.976Z" fill="#FF7010"/>
<path d="M250.112 196.8V260.32H149.888V196.8C154.192 199.2 158.424 201.792 162.688 204.288C166.952 206.784 171.176 209.376 175.392 211.968C180.088 214.824 184.784 217.736 189.464 220.664L189.616 220.576C189.568 220.576 189.536 220.656 189.496 220.68C192.995 222.84 196.496 225.013 200 227.2C203.488 225 207 222.784 210.504 220.616C210.464 220.616 210.432 220.544 210.384 220.512C210.431 220.545 210.482 220.572 210.536 220.592C215.213 217.674 219.904 214.773 224.608 211.888C228.827 209.312 233.056 206.757 237.296 204.224C241.6 201.752 245.808 199.2 250.112 196.8Z" fill="#FF7010"/>
<g opacity="0.2">
<path d="M250.112 196.8C246.064 199.64 241.944 202.4 237.864 205.168C233.784 207.936 229.632 210.64 225.488 213.352C221.168 216.184 216.84 218.989 212.504 221.768L212.112 222.04L200.568 229.4L199.992 229.744L199.432 229.4L187.904 222.024L187.496 221.768C183.149 218.984 178.816 216.173 174.496 213.336C170.368 210.64 166.248 207.904 162.136 205.168C158.024 202.432 153.936 199.6 149.888 196.8C154.192 199.2 158.424 201.792 162.688 204.288C166.952 206.784 171.176 209.376 175.392 211.968C180.088 214.824 184.784 217.736 189.464 220.664C192.984 222.834 196.496 225.013 200 227.2C203.488 225 207 222.784 210.504 220.616C215.181 217.698 219.872 214.797 224.576 211.912C228.795 209.336 233.024 206.781 237.264 204.248C241.6 201.752 245.808 199.2 250.112 196.8Z" fill="black"/>
<path d="M189.6 220.536C189.552 220.536 189.52 220.616 189.48 220.64L187.88 221.984C185.368 224.104 182.792 226.136 180.176 228.112C176.976 230.512 173.72 232.912 170.44 235.2C167.16 237.488 163.832 239.728 160.44 241.896C157.048 244.064 153.64 246.184 150.104 248.128C153.144 245.464 156.304 242.976 159.496 240.56C162.688 238.144 165.968 235.76 169.232 233.464C172.496 231.168 175.856 228.92 179.24 226.752C181.936 225.024 184.68 223.32 187.472 221.728C188.12 221.352 188.768 220.992 189.432 220.624L189.6 220.536Z" fill="black"/>
<path d="M249.872 248.128C246.336 246.184 242.904 244.064 239.536 241.896C236.168 239.728 232.8 237.472 229.52 235.2C226.24 232.928 222.976 230.544 219.784 228.112C217.184 226.136 214.608 224.112 212.112 222L210.512 220.64C210.472 220.64 210.44 220.568 210.392 220.536C210.439 220.568 210.49 220.595 210.544 220.616C211.208 220.992 211.856 221.352 212.504 221.728C215.296 223.328 218.024 225.024 220.736 226.752C224.12 228.92 227.432 231.176 230.728 233.464C234.024 235.752 237.272 238.12 240.464 240.56C243.656 243 246.832 245.464 249.872 248.128Z" fill="black"/>
</g>
<path d="M157.12 134.24C156.587 129.843 156.587 125.397 157.12 121C157.653 125.397 157.653 129.843 157.12 134.24Z" fill="#263238"/>
<path d="M151.488 136.344C149.735 134.991 148.075 133.521 146.52 131.944C144.941 130.394 143.471 128.736 142.12 126.984C145.607 129.717 148.752 132.859 151.488 136.344Z" fill="#263238"/>
<path d="M149 141.808C146.804 142.093 144.591 142.226 142.376 142.208C140.164 142.233 137.953 142.102 135.76 141.816C137.953 141.527 140.164 141.394 142.376 141.416C144.59 141.395 146.804 141.526 149 141.808Z" fill="#263238"/>
<path d="M151.104 147.432C148.368 150.916 145.226 154.061 141.744 156.8C144.473 153.308 147.616 150.159 151.104 147.424V147.432Z" fill="#263238"/>
<path d="M242.28 134.24C242.002 132.043 241.871 129.83 241.888 127.616C241.872 125.404 242.008 123.193 242.296 121C242.829 125.397 242.829 129.843 242.296 134.24H242.28Z" fill="#263238"/>
<path d="M247.912 136.344C250.648 132.859 253.793 129.717 257.28 126.984C255.929 128.736 254.459 130.394 252.88 131.944C251.325 133.521 249.666 134.991 247.912 136.344Z" fill="#263238"/>
<path d="M250.4 141.808C252.596 141.526 254.81 141.395 257.024 141.416C259.236 141.394 261.447 141.527 263.64 141.816C261.447 142.102 259.236 142.233 257.024 142.208C254.809 142.226 252.596 142.093 250.4 141.808Z" fill="#263238"/>
<path d="M248.296 147.432C251.783 150.165 254.926 153.311 257.656 156.8C255.905 155.444 254.248 153.972 252.696 152.392C251.117 150.842 249.647 149.184 248.296 147.432Z" fill="#263238"/>
<path d="M135.432 365.696C133.704 366.256 84.4798 365.616 82.6318 364.4C81.9198 363.952 81.5918 356.776 81.4478 348.088V347.816C81.4478 346.032 81.3918 344.184 81.3838 342.32C81.3838 342.064 81.3838 341.808 81.3838 341.52L83.7838 315.984L116.712 316.312L113.456 341.608V342.608L113.256 347.84V348.384C113.256 348.384 131.992 357.056 133.896 358.608C135.8 360.16 137.152 365.152 135.432 365.696Z" fill="#F7A9A0"/>
<path d="M135.432 365.696C133.704 366.256 84.4798 365.616 82.6318 364.4C81.9198 363.952 81.5918 356.776 81.4478 348.088V347.816C81.4478 346.032 81.3918 344.184 81.3838 342.32C81.3838 342.064 81.3838 341.808 81.3838 341.52L113.448 341.608V342.608L113.248 347.84V348.384C113.248 348.384 131.984 357.056 133.888 358.608C135.792 360.16 137.152 365.152 135.432 365.696Z" fill="#EBEBEB"/>
<path d="M135.576 365.816C133.832 366.376 84.16 365.904 82.28 364.688C81.56 364.232 81.208 356.992 81.032 348.232L113.032 348.448C113.032 348.448 131.968 357.136 133.896 358.688C135.824 360.24 137.312 365.248 135.576 365.816Z" fill="#FF7010"/>
<path d="M134.88 363.824C126.56 363.536 92.9518 363.176 84.7038 363.528C84.6398 363.528 84.6398 363.576 84.7038 363.584C92.9518 364.04 126.552 364.128 134.88 363.96C135.056 363.952 135.056 363.824 134.88 363.824Z" fill="#263238"/>
<path d="M130.736 356.872C129.811 356.841 128.889 357.001 128.029 357.343C127.169 357.684 126.388 358.199 125.736 358.856C124.558 360.036 123.877 361.622 123.832 363.288C123.832 363.336 123.928 363.336 123.936 363.288C124.233 361.642 125.057 360.136 126.283 358.998C127.509 357.86 129.072 357.15 130.736 356.976C130.744 356.98 130.753 356.981 130.763 356.98C130.772 356.979 130.78 356.976 130.788 356.971C130.796 356.965 130.802 356.958 130.806 356.95C130.81 356.942 130.813 356.933 130.813 356.924C130.813 356.915 130.81 356.906 130.806 356.898C130.802 356.89 130.796 356.883 130.788 356.878C130.78 356.873 130.772 356.869 130.763 356.868C130.753 356.868 130.744 356.869 130.736 356.872Z" fill="#263238"/>
<path d="M116.28 349.312C112.944 349.232 109.08 350.368 106.976 353.072C106.896 353.184 107.048 353.296 107.144 353.24C110.074 351.743 113.155 350.563 116.336 349.72C116.384 349.706 116.426 349.676 116.453 349.634C116.48 349.592 116.492 349.541 116.485 349.492C116.478 349.442 116.454 349.397 116.416 349.364C116.378 349.331 116.33 349.312 116.28 349.312Z" fill="#263238"/>
<path d="M118.84 350.336C115.512 350.256 111.64 351.4 109.536 354.104C109.456 354.208 109.608 354.32 109.704 354.272C112.633 352.771 115.715 351.588 118.896 350.744C118.944 350.73 118.986 350.7 119.013 350.658C119.04 350.616 119.052 350.565 119.045 350.516C119.038 350.466 119.014 350.421 118.976 350.388C118.938 350.355 118.89 350.336 118.84 350.336Z" fill="#263238"/>
<path d="M121.408 351.36C118.072 351.288 114.208 352.424 112.104 355.128C112.024 355.232 112.168 355.352 112.272 355.296C115.2 353.801 118.278 352.621 121.456 351.776C121.501 351.759 121.539 351.728 121.564 351.686C121.589 351.645 121.599 351.597 121.594 351.549C121.588 351.502 121.567 351.457 121.533 351.423C121.5 351.389 121.455 351.367 121.408 351.36Z" fill="#263238"/>
<path d="M124 352.392C120.672 352.312 116.8 353.456 114.696 356.16C114.616 356.264 114.768 356.376 114.864 356.328C117.775 354.831 120.838 353.648 124 352.8C124.047 352.791 124.089 352.765 124.12 352.728C124.151 352.691 124.167 352.644 124.167 352.596C124.167 352.548 124.151 352.501 124.12 352.464C124.089 352.427 124.047 352.401 124 352.392Z" fill="#263238"/>
<path d="M86.9038 355.64C83.1598 355.64 83.1198 361.424 86.9038 361.448C90.6878 361.472 90.6478 355.664 86.9038 355.64Z" fill="white"/>
<path d="M120 340.448C118.328 339.032 116.184 340.384 115.136 341.824C113.362 344.331 112.28 347.262 112 350.32C112 350.384 112.048 350.416 112.104 350.416C112.116 350.479 112.143 350.538 112.182 350.588C112.221 350.638 112.272 350.678 112.33 350.705C112.388 350.731 112.451 350.744 112.515 350.741C112.579 350.738 112.641 350.72 112.696 350.688C115.096 349.088 117.84 347.632 119.664 345.336C120.72 344 121.552 341.792 120 340.448ZM115.84 347.496C114.688 348.296 113.496 349.096 112.376 349.952C112.932 348.28 113.573 346.638 114.296 345.032C114.66 344.259 115.075 343.511 115.536 342.792C116.272 341.696 119.536 338.944 119.864 342.576C120 344.576 117.184 346.512 115.808 347.496H115.84Z" fill="#263238"/>
<path d="M103.696 351.472C106.6 351.944 109.6 351.152 112.456 350.736C112.518 350.72 112.575 350.69 112.623 350.648C112.671 350.606 112.709 350.554 112.734 350.495C112.758 350.437 112.769 350.373 112.766 350.309C112.762 350.246 112.743 350.184 112.712 350.128C112.722 350.12 112.73 350.11 112.736 350.098C112.741 350.086 112.744 350.073 112.744 350.06C112.744 350.047 112.741 350.034 112.736 350.023C112.73 350.011 112.722 350.001 112.712 349.992C110.458 347.922 107.699 346.482 104.712 345.816C102.96 345.456 100.472 345.904 100.192 348.08C99.9119 350.136 102.008 351.2 103.696 351.472ZM101.704 349.6C99.4799 346.72 103.768 346.528 105.048 346.84C105.865 347.052 106.667 347.319 107.448 347.64C109.096 348.296 110.648 349.168 112.192 349.976C110.776 350.096 109.384 350.336 107.968 350.504C106.312 350.68 102.936 351.144 101.704 349.6Z" fill="#263238"/>
<path opacity="0.1" d="M107.44 365.896C95.096 365.68 83.184 365.272 82.28 364.688C81.56 364.232 81.208 356.992 81.032 348.232H85.592C90.632 352.36 101.296 360.944 107.44 365.896Z" fill="black"/>
<path d="M115.36 348H79.9118C79.9118 348 87.0478 265.208 86.7678 263.76C86.4158 261.904 84.3198 253.528 81.5358 242.576C80.6638 239.152 79.7198 235.48 78.7438 231.672C76.0958 221.368 73.1438 210.112 70.6478 200.312C66.8398 185.64 63.8638 174.24 63.8638 174.24H93.9038C93.9038 174.24 97.4078 185.336 101.824 199.784C109.024 223.248 118.624 255.552 119.568 263.408C121.104 276.072 115.36 348 115.36 348Z" fill="#37474F"/>
<path d="M113.792 341.936C108.376 341.824 109.928 341.784 104.512 341.728C101.864 341.728 84.4559 341.552 81.9759 341.96C81.9611 341.96 81.9468 341.966 81.9363 341.977C81.9258 341.987 81.9199 342.001 81.9199 342.016C81.9199 342.031 81.9258 342.045 81.9363 342.056C81.9468 342.066 81.9611 342.072 81.9759 342.072C84.4559 342.48 101.864 342.328 104.512 342.304C109.928 342.256 108.376 342.208 113.792 342.096C113.813 342.096 113.833 342.088 113.848 342.073C113.863 342.058 113.872 342.037 113.872 342.016C113.872 341.995 113.863 341.975 113.848 341.96C113.833 341.945 113.813 341.936 113.792 341.936Z" fill="#263238"/>
<path d="M93.4399 258.68C92.2799 253.56 90.5359 248.536 89.0239 243.48C85.9519 233.267 82.8612 223.053 79.7519 212.84C78.1999 207.736 76.6426 202.632 75.0799 197.528C74.2906 194.952 73.4906 192.379 72.6799 189.808C71.8799 187.288 70.9919 184.8 70.2799 182.256C69.9919 181.224 69.8319 181.792 70.2079 183.104C70.9519 185.744 71.6879 188.392 72.4639 191.032C73.9839 196.259 75.5199 201.48 77.0719 206.696C80.1439 217.08 83.2426 227.456 86.3679 237.824C87.9306 243.029 89.4959 248.229 91.0639 253.424C91.8567 255.899 92.4953 258.422 92.9759 260.976C93.3983 263.645 93.5057 266.354 93.2959 269.048C92.9519 274.472 92.3199 279.888 91.8239 285.296C91.3279 290.704 90.8159 296.144 90.3199 301.56C89.3226 312.355 88.3306 323.147 87.3439 333.936C87.2239 335.304 87.1039 336.672 86.9999 338.048C86.9999 338.504 87.6559 338.464 87.7039 338.048C88.8719 327.384 89.7679 316.672 90.7679 305.992C91.7679 295.312 92.7679 284.72 93.7599 274.088C94.0079 271.416 94.2959 268.744 94.2959 266.088C94.2893 263.594 94.0022 261.11 93.4399 258.68Z" fill="#263238"/>
<path d="M90.4958 174.224C88.4078 190.36 84.4318 220.624 81.5358 242.56C74.7598 216 63.8638 174.224 63.8638 174.224H90.4958Z" fill="#263238"/>
<path d="M97.872 366.176C96.152 366.736 46.928 366.28 45.072 365.072C44.36 364.624 44.008 357.448 43.832 348.76V348.488C43.792 346.704 43.76 344.856 43.752 342.992C43.752 342.736 43.752 342.48 43.752 342.192C43.64 329.664 44.552 316.664 44.552 316.664L76.728 316.872L75.824 342.168V343.168L75.648 348.408V348.944C75.648 348.944 94.328 357.6 96.232 359.12C98.136 360.64 99.6 365.6 97.872 366.176Z" fill="#F7A9A0"/>
<path d="M97.8719 366.176C96.152 366.736 46.928 366.28 45.072 365.072C44.36 364.624 44.008 357.448 43.832 348.76V348.488C43.792 346.704 43.76 344.856 43.752 342.992C43.752 342.736 43.752 342.48 43.752 342.192H75.816V343.192L75.64 348.432V348.968C75.64 348.968 94.328 357.6 96.232 359.12C98.136 360.64 99.5999 365.6 97.8719 366.176Z" fill="#EBEBEB"/>
<path d="M98.0718 366.072C96.3278 366.632 46.6558 366.16 44.7758 364.944C44.0558 364.488 43.7038 357.248 43.5278 348.488L75.5278 348.704C75.5278 348.704 94.4638 357.392 96.3838 358.944C98.3038 360.496 99.8078 365.504 98.0718 366.072Z" fill="#FF7010"/>
<path d="M97.3759 364.08C89.0479 363.792 55.4479 363.432 47.1999 363.784C47.1359 363.784 47.1359 363.832 47.1999 363.832C55.4399 364.296 89.0479 364.384 97.3759 364.216C97.5519 364.208 97.5519 364.08 97.3759 364.08Z" fill="#263238"/>
<path d="M93.2319 357.128C92.3068 357.096 91.3851 357.256 90.5247 357.598C89.6643 357.939 88.8837 358.455 88.2319 359.112C87.0512 360.29 86.3694 361.877 86.3279 363.544C86.3279 363.592 86.4239 363.592 86.4319 363.544C86.7293 361.898 87.553 360.392 88.7793 359.254C90.0055 358.116 91.5679 357.406 93.2319 357.232C93.2423 357.228 93.2512 357.221 93.2575 357.211C93.2637 357.202 93.2671 357.191 93.2671 357.18C93.2671 357.169 93.2637 357.158 93.2575 357.149C93.2512 357.139 93.2423 357.132 93.2319 357.128Z" fill="#263238"/>
<path d="M78.776 349.6C75.44 349.528 71.576 350.664 69.472 353.368C69.392 353.472 69.536 353.592 69.64 353.536C72.5702 352.039 75.6516 350.859 78.832 350.016C78.8771 349.998 78.9149 349.966 78.9395 349.924C78.964 349.883 78.9739 349.834 78.9674 349.786C78.961 349.738 78.9386 349.694 78.9039 349.66C78.8692 349.626 78.8241 349.605 78.776 349.6Z" fill="#263238"/>
<path d="M81.336 350.592C78.008 350.512 74.136 351.648 72.032 354.36C71.952 354.464 72.104 354.576 72.2 354.528C75.129 353.027 78.2107 351.844 81.392 351C81.4401 350.986 81.4817 350.955 81.5091 350.913C81.5364 350.872 81.5477 350.821 81.5409 350.772C81.5341 350.722 81.5097 350.676 81.472 350.643C81.4344 350.61 81.3861 350.592 81.336 350.592Z" fill="#263238"/>
<path d="M83.9038 351.616C80.5678 351.536 76.7038 352.68 74.5998 355.384C74.5118 355.488 74.6638 355.6 74.7678 355.552C77.6937 354.052 80.7729 352.872 83.9518 352.032C83.9968 352.015 84.0347 351.984 84.0597 351.943C84.0846 351.902 84.0952 351.853 84.0897 351.806C84.0842 351.758 84.0629 351.713 84.0293 351.679C83.9956 351.645 83.9515 351.623 83.9038 351.616Z" fill="#263238"/>
<path d="M86.4639 352.648C83.1279 352.568 79.2639 353.704 77.1599 356.416C77.0799 356.52 77.2319 356.632 77.3279 356.584C80.2564 355.081 83.3381 353.899 86.5199 353.056C86.5681 353.042 86.6096 353.012 86.637 352.97C86.6644 352.928 86.6757 352.877 86.6689 352.828C86.6621 352.778 86.6376 352.733 86.5999 352.7C86.5623 352.667 86.514 352.648 86.4639 352.648Z" fill="#263238"/>
<path d="M49.3999 355.896C45.6559 355.896 45.6159 361.68 49.3999 361.704C53.1839 361.728 53.1439 355.92 49.3999 355.896Z" fill="white"/>
<path d="M82.4638 340.704C80.7838 339.288 78.6478 340.64 77.5918 342.08C75.8303 344.588 74.7598 347.515 74.4878 350.568C74.4863 350.582 74.4881 350.595 74.4929 350.608C74.4977 350.621 74.5055 350.633 74.5156 350.642C74.5257 350.651 74.5379 350.658 74.5511 350.662C74.5644 350.666 74.5783 350.666 74.5918 350.664C74.6027 350.727 74.6287 350.787 74.6675 350.838C74.7064 350.889 74.757 350.93 74.815 350.958C74.8731 350.985 74.9369 350.998 75.0011 350.996C75.0653 350.993 75.128 350.976 75.1838 350.944C77.5838 349.344 80.3278 347.888 82.1518 345.584C83.1998 344.24 84.0478 342.04 82.4638 340.704ZM78.3038 347.752C77.1518 348.552 75.9598 349.352 74.8398 350.2C75.4088 348.528 76.063 346.885 76.7998 345.28C77.1641 344.51 77.5784 343.764 78.0398 343.048C78.7758 341.952 82.0398 339.2 82.3678 342.824C82.4958 344.8 79.6798 346.768 78.3038 347.752Z" fill="#263238"/>
<path d="M66.1918 351.728C69.0878 352.2 72.0958 351.4 74.9438 350.992C75.0041 350.976 75.0601 350.947 75.1074 350.907C75.1547 350.867 75.1922 350.816 75.2169 350.759C75.2416 350.702 75.2529 350.64 75.2499 350.577C75.247 350.515 75.2298 350.454 75.1998 350.4C75.2114 350.392 75.2208 350.381 75.2273 350.369C75.2338 350.356 75.2372 350.342 75.2372 350.328C75.2372 350.314 75.2338 350.3 75.2273 350.287C75.2208 350.275 75.2114 350.264 75.1998 350.256C72.9429 348.19 70.185 346.751 67.1998 346.08C65.4478 345.728 62.9598 346.176 62.6798 348.352C62.3998 350.4 64.5038 351.448 66.1918 351.728ZM64.1998 349.808C61.9758 346.928 66.2638 346.744 67.5438 347.056C68.3612 347.267 69.1631 347.535 69.9438 347.856C71.561 348.554 73.1417 349.334 74.6798 350.192C73.2638 350.312 71.8718 350.544 70.4638 350.72C68.7998 350.936 65.4318 351.4 64.1998 349.808Z" fill="#263238"/>
<path d="M92.9359 174.224C92.9359 174.224 92.2399 188.624 88.9359 199.984C88.6719 200.928 88.3839 201.848 88.0799 202.736C85.068 203.959 82.1735 205.453 79.4319 207.2C79.4319 207.2 79.0879 218.76 78.7439 231.664C78.3599 246.064 77.9439 262.16 78.0399 265.576C78.3439 278.376 76.4399 348.512 76.4399 348.512L40.9919 348.656C40.9919 348.656 47.3919 270.256 47.3919 265.608C47.3199 258.096 49.1039 224.88 50.4879 200.664C51.2879 185.736 52.0239 174.264 52.0239 174.264L92.9359 174.224Z" fill="#37474F"/>
<path d="M75.1999 342.2C69.7839 342.112 71.3359 342.064 65.9279 342.032C63.2719 342.032 45.8639 341.936 43.3919 342.36C43.3771 342.36 43.3628 342.366 43.3523 342.377C43.3418 342.387 43.3359 342.401 43.3359 342.416C43.3359 342.431 43.3418 342.445 43.3523 342.456C43.3628 342.466 43.3771 342.472 43.3919 342.472C45.8639 342.872 63.2799 342.64 65.9279 342.608C71.3439 342.528 69.7839 342.496 75.1999 342.36C75.2212 342.36 75.2415 342.352 75.2565 342.337C75.2715 342.322 75.2799 342.301 75.2799 342.28C75.2799 342.259 75.2715 342.239 75.2565 342.224C75.2415 342.209 75.2212 342.2 75.1999 342.2Z" fill="#263238"/>
<path d="M54.9758 179.36C54.3198 199.136 53.6318 218.912 52.7438 238.672C51.8558 258.432 50.6638 278.336 49.0078 298.112C48.0798 309.168 47.1998 324.72 46.0078 335.712C46.0078 335.784 46.1118 335.816 46.1278 335.712C48.7038 316.096 50.1278 291.848 51.4158 272.104C52.7038 252.36 53.5438 232.6 54.2158 212.84C54.5998 201.64 54.8878 190.44 55.2238 179.288C55.1998 179.2 54.9838 179.2 54.9758 179.36Z" fill="#263238"/>
<path d="M89.5998 201.88C86.0633 203.357 82.6613 205.137 79.4318 207.2C79.4098 207.218 79.3946 207.242 79.3889 207.27C79.3833 207.298 79.3875 207.326 79.4008 207.351C79.4142 207.376 79.4358 207.395 79.462 207.406C79.4881 207.416 79.5171 207.417 79.5438 207.408C82.9598 205.744 86.4478 204.144 89.7758 202.296C89.8181 202.265 89.8486 202.221 89.8626 202.171C89.8765 202.12 89.873 202.067 89.8526 202.019C89.8323 201.97 89.7962 201.931 89.7503 201.905C89.7044 201.88 89.6514 201.871 89.5998 201.88Z" fill="#263238"/>
<path d="M89.7678 189.688C89.5278 190.944 89.2238 192.192 88.9678 193.448C88.7118 194.704 88.5278 195.848 88.2158 196.984C87.9576 198.107 87.3861 199.133 86.5678 199.944C86.1118 200.368 85.5998 200.744 85.1118 201.144L84.3118 201.776C84.3118 201.608 84.3838 201.44 84.4078 201.264C84.4958 200.784 84.5758 200.312 84.6558 199.832C84.8318 198.768 84.9998 197.704 85.1678 196.632C85.4878 194.536 85.7758 192.424 86.2158 190.36C86.2158 190.272 86.1038 190.24 86.0878 190.36C85.5678 192.408 84.9918 194.432 84.5358 196.504C84.3118 197.52 83.5198 202.528 83.4878 202.904C83.4558 203.28 83.4158 203.64 83.4078 204.008C83.3553 204.38 83.3553 204.757 83.4078 205.128C83.4078 205.224 83.5358 205.208 83.5758 205.128C83.7315 204.782 83.8392 204.416 83.8958 204.04C83.9918 203.688 84.0718 203.32 84.1358 202.96C84.1358 202.832 84.1358 202.696 84.1918 202.56C84.6878 202.264 85.1438 201.864 85.6078 201.528C86.0718 201.192 86.6158 200.816 87.0798 200.424C87.9224 199.676 88.5215 198.692 88.7998 197.6C89.1045 196.42 89.3026 195.215 89.3918 194C89.5518 192.576 89.6638 191.144 89.8638 189.728C89.9118 189.6 89.7838 189.6 89.7678 189.688Z" fill="#263238"/>
<path d="M76.7998 141.656C79.5438 149.92 91.8318 176.192 96.9918 178.032C102.368 179.936 123.128 182.312 127.736 178.688C129.992 176.904 130.776 157.888 127.736 158.368C124.696 158.848 106.392 159.512 104.216 158.736C102.04 157.96 87.5038 136.8 81.5998 131.648C71.4158 122.808 75.3358 137.2 76.7998 141.656Z" fill="#F7A9A0"/>
<path d="M123.144 158.048L122.848 181.72C122.848 181.72 101.56 181.776 95.8878 178.792C90.2158 175.808 78.2158 148.456 75.2158 137.992C72.2158 127.528 77.0158 125.912 84.6398 133.592C92.2638 141.272 103.728 157.368 105.088 157.696C106.448 158.024 123.144 158.048 123.144 158.048Z" fill="#FF7010"/>
<path d="M94.7359 145.288C90.3556 146.023 86.1142 147.426 82.1599 149.448L81.4399 149.824C81.2559 149.912 81.0799 150.008 80.9039 150.112C80.5519 150.296 80.2079 150.488 79.8639 150.696L79.7119 150.312L80.4399 149.888L80.9679 149.608C81.2959 149.424 81.6319 149.24 81.9679 149.072C83.9985 148.019 86.1156 147.141 88.2959 146.448C90.3139 145.795 92.3785 145.295 94.4719 144.952L94.7359 145.288ZM99.4879 151.264C99.1105 151.462 98.7233 151.641 98.3279 151.8C97.306 152.231 96.2289 152.516 95.1279 152.648C94.5679 152.712 94.0079 152.808 93.4479 152.84L91.7599 152.888C89.5016 152.827 87.2733 152.355 85.1839 151.496C83.9279 151.008 82.7039 150.416 81.4799 149.824C81.3199 149.76 81.1679 149.68 81.0079 149.608C80.6239 149.432 80.2079 149.248 79.8479 149.08L79.4719 148.92L79.1199 148.768L79.2559 149.104C79.2559 149.2 79.3359 149.296 79.3679 149.392H79.4399L80.4719 149.856L80.9359 150.08C82.2639 150.712 83.5999 151.384 84.9919 151.928C87.1372 152.811 89.425 153.296 91.7439 153.36L93.4719 153.32C94.0479 153.32 94.6239 153.184 95.1919 153.12C96.3469 152.987 97.4778 152.693 98.5519 152.248C98.9974 152.073 99.4328 151.872 99.8559 151.648L99.4879 151.264ZM91.2959 141.072C89.799 141.767 88.3432 142.547 86.9359 143.408C84.2881 145.037 81.7784 146.881 79.4319 148.92L79.2159 149.104C79.2159 149.2 79.2959 149.296 79.3279 149.392V149.456C79.3279 149.456 79.3279 149.456 79.3759 149.456C79.5119 149.336 79.6399 149.216 79.7759 149.112C82.081 147.148 84.5395 145.372 87.1279 143.8C88.5621 142.942 90.0386 142.157 91.5519 141.448L91.2959 141.072Z" fill="white"/>
<path d="M116.944 169.736C116.944 167.856 117.08 160.36 117.248 158.536H117.304C117.488 160.344 117.584 167.744 117.576 169.624C117.638 173.362 117.496 177.101 117.152 180.824C117.147 180.836 117.139 180.847 117.128 180.854C117.118 180.862 117.105 180.866 117.092 180.866C117.079 180.866 117.066 180.862 117.055 180.854C117.045 180.847 117.036 180.836 117.032 180.824C116.752 177.136 116.904 173.432 116.944 169.736Z" fill="#263238"/>
<path opacity="0.1" d="M75.1998 137.984C78.1998 148.456 90.1998 175.8 95.8718 178.784C98.5918 180.216 104.896 180.952 110.728 181.32L77.3198 128.8C74.4638 128.496 73.3838 131.592 75.1998 137.984Z" fill="black"/>
<path d="M48.3039 195.576C48.4319 195.704 100.368 192.152 100.8 191.576C101.408 190.776 84.9679 137.976 80.8479 130.256C79.0959 126.952 70.6959 126.472 67.3759 129.6C59.0639 137.416 53.2799 162.688 52.0639 170.264C50.0479 182.76 47.8399 195.12 48.3039 195.576Z" fill="#FF7010"/>
<path d="M98.0238 181.072L96.5678 180.216C94.6053 179.073 92.5838 178.034 90.5118 177.104L89.3758 176.608L88.8238 176.384C87.2938 175.752 85.7253 175.217 84.1278 174.784C81.9445 174.175 79.7074 173.778 77.4478 173.6C72.9133 173.403 68.376 173.916 63.9998 175.12L63.1998 175.344C62.9998 175.392 62.8078 175.448 62.6158 175.512C59.5666 176.444 56.6036 177.638 53.7598 179.08C52.9598 179.456 52.1598 179.88 51.4238 180.272L51.1838 180.4L50.3038 180.872L50.3758 180.464L51.2798 180C52.1758 179.512 53.0798 179.04 53.9918 178.6C54.7438 178.216 55.5118 177.856 56.2798 177.512C58.2116 176.626 60.1937 175.854 62.2158 175.2L62.7998 175.032C63.1598 174.912 63.5198 174.808 63.8878 174.712C66.0917 174.092 68.3456 173.666 70.6238 173.44C72.8977 173.193 75.1882 173.134 77.4718 173.264C81.4884 173.607 85.4238 174.593 89.1278 176.184L89.6718 176.424L90.6238 176.848C92.6989 177.804 94.7206 178.872 96.6798 180.048L97.9278 180.784L98.0238 181.072ZM95.3358 172.272C94.0078 173.072 92.7118 173.872 91.4238 174.72C90.6238 175.216 89.8958 175.72 89.1278 176.208L88.8238 176.408C87.7758 177.08 86.7118 177.728 85.6238 178.336C83.676 179.474 81.5544 180.285 79.3438 180.736C78.2397 180.948 77.1115 181.004 75.9918 180.904C75.4318 180.848 74.8638 180.832 74.3118 180.752L72.6478 180.456C70.4506 179.93 68.3664 179.011 66.4958 177.744C65.3678 177.008 64.2958 176.144 63.2078 175.344L62.7918 175.032C62.4558 174.776 62.1118 174.52 61.7678 174.28L61.4398 174.04L60.9598 173.712C59.0541 172.355 56.7935 171.585 54.4558 171.496C53.5335 171.513 52.6223 171.7 51.7678 172.048L51.6958 172.48C52.5687 172.116 53.5024 171.921 54.4478 171.904C56.7005 172.012 58.8723 172.777 60.6958 174.104L60.9758 174.296L61.3038 174.528C61.6078 174.744 61.9118 174.968 62.2078 175.2L62.6238 175.512C63.7998 176.408 64.9678 177.336 66.2238 178.152C68.1393 179.454 70.2753 180.397 72.5278 180.936L74.2398 181.248C74.8078 181.328 75.3838 181.352 75.9598 181.408C77.1194 181.508 78.2873 181.451 79.4318 181.24C81.6878 180.773 83.8505 179.935 85.8318 178.76C87.0238 178.088 88.1838 177.36 89.3278 176.608L89.6238 176.424L91.6398 175.104C92.8878 174.304 94.1518 173.504 95.4318 172.704L95.3358 172.272ZM94.4558 169.44C93.0663 168.991 91.6536 168.617 90.2238 168.32C87.9731 167.865 85.6797 167.655 83.3838 167.696C81.0874 167.739 78.7989 167.98 76.5438 168.416C74.2902 168.841 72.0728 169.44 69.9118 170.208C66.9892 171.258 64.1582 172.548 61.4478 174.064C61.2878 174.144 61.1358 174.232 60.9838 174.32C59.8478 174.952 58.7358 175.608 57.6318 176.288C56.4078 177.04 55.1918 177.816 53.9918 178.6C53.0558 179.2 52.1278 179.816 51.1998 180.424L50.3038 181.008C50.3038 181.136 50.2638 181.256 50.2478 181.376C51.4318 180.624 52.5998 179.856 53.7758 179.104C54.5758 178.568 55.4398 178.032 56.2798 177.504C56.7838 177.184 57.2878 176.872 57.7998 176.568C58.9518 175.872 60.1278 175.192 61.3118 174.544L61.7758 174.296C64.4313 172.842 67.2004 171.606 70.0558 170.6C74.3417 169.073 78.837 168.215 83.3838 168.056C85.6566 168.003 87.9285 168.196 90.1598 168.632C91.6498 168.932 93.1215 169.317 94.5678 169.784C94.5278 169.648 94.4878 169.528 94.4558 169.416V169.44Z" fill="white"/>
<path d="M60.3999 135.6C46.6159 150.8 31.0719 176.488 37.7199 182C43.7999 187.008 65.9759 182.24 79.9199 176.792C82.5759 175.752 71.8079 152.28 69.1039 153.672C66.2568 155.187 63.3178 156.523 60.3039 157.672C59.5039 157.88 63.7279 152.76 68.3999 140.456C73.1199 127.888 68.2799 126.904 60.3999 135.6Z" fill="#F7A9A0"/>
<path d="M102.984 151.896C102.984 154.624 96.272 154.088 96.272 154.088C97.2504 154.725 97.9749 155.685 98.32 156.8C98.824 158.808 95.92 160.488 95.92 160.488C96.7918 161.363 97.3848 162.477 97.624 163.688C97.912 165.656 95.224 167.776 95.224 167.776C95.5796 169.033 95.4717 170.376 94.92 171.56C93.32 174.672 87.944 174.76 84.624 175.432C80.9039 176.292 77.2599 177.454 73.728 178.904L67.552 154.384C67.552 154.384 81.952 145.832 85.952 146.024C89.328 146.256 102.968 147.72 102.984 151.896Z" fill="#F7A9A0"/>
<path d="M96.2158 154.008C92.6478 152.968 88.8398 152.792 85.1678 152.656C85.0878 152.656 85.0798 152.776 85.1678 152.784C88.8318 152.872 92.5518 153.944 96.1918 154.184C96.2151 154.187 96.2388 154.181 96.2575 154.167C96.2763 154.153 96.2886 154.132 96.2918 154.108C96.295 154.085 96.2887 154.061 96.2745 154.043C96.2602 154.024 96.2391 154.011 96.2158 154.008Z" fill="#263238"/>
<path d="M95.7998 160.24C94.9668 160.084 94.1168 160.038 93.2718 160.104C92.3758 160.104 91.4798 160.144 90.5838 160.184C88.7865 160.264 86.9945 160.392 85.2078 160.568C85.1278 160.568 85.1198 160.696 85.2078 160.696C86.9998 160.616 88.7918 160.56 90.5758 160.552H93.2638C94.1094 160.622 94.9602 160.595 95.7998 160.472C95.8219 160.462 95.8406 160.446 95.8537 160.425C95.8667 160.404 95.8737 160.381 95.8737 160.356C95.8737 160.332 95.8667 160.308 95.8537 160.287C95.8406 160.267 95.8219 160.251 95.7998 160.24Z" fill="#263238"/>
<path d="M95.0958 167.848C94.3416 167.716 93.5701 167.716 92.8158 167.848L90.3998 168C88.7998 168.088 87.1278 168.184 85.4878 168.216C85.4709 168.216 85.4546 168.223 85.4426 168.235C85.4306 168.247 85.4238 168.263 85.4238 168.28C85.4238 168.297 85.4306 168.313 85.4426 168.325C85.4546 168.337 85.4709 168.344 85.4878 168.344C87.1518 168.344 88.8158 168.344 90.4798 168.272L92.9278 168.2C93.6737 168.245 94.4216 168.156 95.1358 167.936C95.1475 167.931 95.1566 167.921 95.1611 167.909C95.1656 167.897 95.1651 167.884 95.1598 167.872C95.1545 167.86 95.1448 167.851 95.1328 167.847C95.1208 167.842 95.1075 167.843 95.0958 167.848Z" fill="#263238"/>
<path d="M66.8559 154.184L72.1679 180.584C72.1679 180.584 39.1519 189.2 35.7279 180.848C32.3039 172.496 51.7279 141.48 62.9279 132.632C74.1279 123.784 69.9199 137.72 69.5759 138.84C68.0639 143.792 61.0239 156.704 61.0239 156.704L66.8559 154.184Z" fill="#FF7010"/>
<path d="M72.1678 180.552C72.1678 180.552 39.1518 189.168 35.7278 180.816C33.8878 176.32 38.6558 165.272 45.1918 154.64L45.2958 154.472L45.4318 154.256C45.4718 154.184 45.5198 154.112 45.5678 154.04C47.9282 150.235 50.4809 146.553 53.2158 143.008L53.4958 142.648C56.2506 138.959 59.4088 135.588 62.9118 132.6C74.1118 123.752 69.9038 137.688 69.5598 138.808C69.4558 139.16 69.3198 139.552 69.1598 139.976C69.0958 140.136 69.0318 140.312 68.9598 140.488C68.0398 142.84 66.5598 146.008 65.0638 148.92L64.8878 149.272C64.8878 149.272 64.8878 149.352 64.8318 149.384L64.7358 149.568C62.8398 153.304 61.1198 156.472 61.0158 156.664L66.8558 154.184L72.1678 180.552Z" fill="#FF7010"/>
<path d="M65.0638 148.92L64.8878 149.272C64.8878 149.272 64.8878 149.352 64.8318 149.384L64.4318 149.64L61.1758 151.76C59.2649 153.018 57.268 154.141 55.1998 155.12C54.1528 155.603 53.0554 155.968 51.9278 156.208C50.7863 156.474 49.5953 156.438 48.4718 156.104C48.1918 156.024 47.9038 155.96 47.6718 155.872L46.8718 155.528C46.3401 155.301 45.8266 155.034 45.3358 154.728L45.2158 154.656L45.3198 154.488L45.4558 154.272C45.4918 154.306 45.5322 154.336 45.5758 154.36L45.6878 154.424C46.119 154.708 46.5741 154.954 47.0478 155.16L47.8478 155.496L48.6478 155.728C49.7121 156.053 50.8426 156.094 51.9278 155.848C53.0292 155.619 54.1023 155.27 55.1278 154.808C57.1819 153.852 59.1679 152.756 61.0718 151.528L63.6718 149.864L64.3518 149.424L65.0638 148.92ZM64.2638 149.408C60.1598 150.408 56.1358 151.68 52.0398 152.68C49.8958 153.216 47.7198 153.688 45.5358 154.04C45.4878 154.112 45.4398 154.184 45.3998 154.256L45.2638 154.472L45.6318 154.408C47.8158 154.04 49.9838 153.552 52.1278 153.008C55.9758 152.04 59.7518 150.84 63.5838 149.848L64.3838 149.64C64.4798 149.64 64.5838 149.584 64.6878 149.568L64.7838 149.384C64.7838 149.384 64.7838 149.312 64.8398 149.272L64.2638 149.408ZM64.5278 142.76C63.5321 143.297 62.4907 143.744 61.4158 144.096C60.3619 144.455 59.246 144.597 58.1358 144.512C56.4513 144.275 54.8487 143.636 53.4638 142.648L53.1838 143.008C54.6406 144.031 56.323 144.687 58.0878 144.92C59.2568 145.005 60.4307 144.847 61.5358 144.456C62.6436 144.096 63.715 143.633 64.7358 143.072C66.1895 142.283 67.602 141.421 68.9678 140.488C69.0398 140.312 69.1038 140.136 69.1678 139.976C67.6812 140.984 66.1431 141.913 64.5598 142.76H64.5278Z" fill="white"/>
<path d="M66.2879 154.208C62.4959 155.536 52.5599 160.496 50.3759 162.528C50.3665 162.54 50.3613 162.555 50.3611 162.571C50.3608 162.586 50.3655 162.601 50.3745 162.614C50.3834 162.626 50.3962 162.636 50.4108 162.64C50.4255 162.645 50.4413 162.645 50.4559 162.64C52.5999 161.128 64.8559 155.12 66.7999 154.384C66.7999 154.384 66.8959 154.616 66.9359 154.68C66.9759 154.744 67.0479 154.72 67.0479 154.632C67.0139 154.416 66.9658 154.202 66.9039 153.992L66.2879 154.208Z" fill="#263238"/>
<path d="M63.4638 168.96C63.1038 167.12 61.7278 159.744 61.5278 157.888C61.5278 157.888 61.5278 157.848 61.5758 157.888C62.1198 159.616 63.6878 166.856 64.0558 168.696C64.8698 172.355 65.4813 176.057 65.8878 179.784C65.8878 179.848 65.7918 179.888 65.7678 179.784C64.7998 176.248 64.1678 172.584 63.4638 168.96Z" fill="#263238"/>
<path d="M60.752 156.8C61.784 154.552 63.048 152.416 64.184 150.224C65.32 148.032 66.496 145.856 67.552 143.64H67.6C66.96 145.152 66.32 146.664 65.632 148.152C65.84 147.92 66.032 147.672 66.224 147.424C66.576 146.976 66.896 146.504 67.216 146.032C67.216 146.032 67.272 146.032 67.264 146.032C67.0149 146.562 66.7063 147.061 66.344 147.52C66.0762 147.865 65.782 148.189 65.464 148.488C65.184 149.096 64.888 149.704 64.584 150.304C63.599 152.537 62.4463 154.693 61.136 156.752C61.088 156.904 60.712 156.904 60.752 156.8Z" fill="#263238"/>
<path d="M49.792 184.272C53.688 184.224 68.4 181.336 72.04 180.584C71.992 180.2 72.04 180.064 71.944 179.52C71.944 179.448 72.048 179.416 72.064 179.52C72.16 180.04 72.512 181.072 72.368 181.12C70.616 181.808 53.616 184.776 49.792 184.456C49.7799 184.456 49.7679 184.454 49.7567 184.449C49.7456 184.445 49.7354 184.438 49.7269 184.429C49.7184 184.421 49.7116 184.411 49.707 184.399C49.7023 184.388 49.7 184.376 49.7 184.364C49.7 184.352 49.7023 184.34 49.707 184.329C49.7116 184.318 49.7184 184.308 49.7269 184.299C49.7354 184.291 49.7456 184.284 49.7567 184.279C49.7679 184.275 49.7799 184.272 49.792 184.272Z" fill="#263238"/>
<path d="M89.408 181.608L116.8 185.296L127.192 147.224L99.8 143.544L89.408 181.608Z" fill="#263238"/>
<path d="M90.7598 181.784L118.144 185.472L128.536 147.408L101.152 143.72L90.7598 181.784Z" fill="#37474F"/>
<path d="M113.472 163.384C113.301 164.096 112.875 164.72 112.275 165.138C111.675 165.557 110.943 165.741 110.216 165.656C109.873 165.62 109.542 165.51 109.246 165.335C108.949 165.159 108.694 164.922 108.497 164.638C108.3 164.355 108.167 164.033 108.106 163.694C108.045 163.355 108.058 163.006 108.144 162.672C108.315 161.96 108.74 161.336 109.34 160.916C109.94 160.496 110.672 160.31 111.4 160.392C111.744 160.428 112.075 160.538 112.373 160.714C112.67 160.89 112.926 161.129 113.122 161.413C113.319 161.697 113.452 162.02 113.513 162.36C113.573 162.701 113.559 163.05 113.472 163.384Z" fill="white"/>
<path d="M128.264 155.256C129.408 158.456 132.672 162.624 132.72 165.152C132.752 165.775 132.584 166.391 132.24 166.911C131.896 167.431 131.394 167.827 130.808 168.04C130.808 168.04 133.208 169.536 132.832 171.832C132.664 173.016 130.616 173.784 130.616 173.784C131.134 174.15 131.54 174.653 131.79 175.236C132.04 175.819 132.123 176.46 132.032 177.088C131.696 178.688 129.696 179.224 129.696 179.224C129.696 179.224 130.896 181.28 130.024 182.816C128.248 185.928 114.16 184.496 112.512 179.08C111.712 176.56 115.16 177.096 115.16 177.096C115.16 177.096 110.424 175.136 110.648 172.224C110.872 169.312 115.272 170.272 115.272 170.272C115.272 170.272 110.704 168.336 111.272 165.336C111.84 162.336 116.072 163.936 116.072 163.936C116.072 163.936 113.152 161.536 114.088 159.296C115.632 155.656 121.088 160.984 124.256 160.56L126.488 155.624L128.264 155.256Z" fill="#F7A9A0"/>
<path d="M130.64 160C129.84 156.872 133.936 153.528 133.584 150.4C133.112 146.2 128.08 149.76 126.448 155.616L125.976 160.416L130.64 160Z" fill="#F7A9A0"/>
<path d="M129.4 179.352C129.411 179.352 129.421 179.356 129.428 179.364C129.436 179.371 129.44 179.381 129.44 179.392C129.44 179.403 129.436 179.413 129.428 179.42C129.421 179.428 129.411 179.432 129.4 179.432C124.473 180.125 119.452 179.308 115 177.088C114.856 177.016 114.92 176.752 115.088 176.808C119.71 178.346 124.531 179.203 129.4 179.352Z" fill="#263238"/>
<path d="M130.68 173.816C130.736 173.816 130.736 173.912 130.68 173.92C125.232 174.643 119.704 173.394 115.096 170.4C114.936 170.288 114.904 170.032 115.096 170.144C118.32 172 126.104 173.744 130.68 173.816Z" fill="#263238"/>
<path d="M115.768 163.6C120.304 166.488 125.304 167.6 130.608 168.072C130.672 168.072 130.664 168.176 130.608 168.184C127.952 168.68 124.6 168.048 122.04 167.336C119.643 166.722 117.45 165.489 115.68 163.76C115.6 163.688 115.672 163.536 115.768 163.6Z" fill="#263238"/>
<path d="M81.8158 132.288C81.9118 134.688 81.9838 140.136 78.2878 139.728C76.8023 139.433 75.4331 138.716 74.3438 137.664C73.1779 136.696 72.1234 135.601 71.1998 134.4C70.1404 133.095 69.188 131.706 68.3518 130.248C68.3518 130.192 68.2238 130.248 68.2638 130.312C69.1118 131.776 69.8158 133.288 70.8078 134.672C71.7445 136.014 72.8587 137.222 74.1198 138.264C75.3043 139.364 76.7985 140.074 78.3998 140.296C79.0866 140.345 79.7689 140.153 80.3305 139.755C80.8922 139.357 81.2983 138.776 81.4798 138.112C82.0261 136.22 82.141 134.23 81.8158 132.288Z" fill="#263238"/>
<path d="M78.176 137.32C75.504 137.552 71.136 132.52 69.856 129.104C70.1916 127.324 70.6161 125.562 71.128 123.824C71.536 122.136 71.928 120.24 72.216 118.488L82.824 122.768C81.8769 124.872 81.1892 127.083 80.776 129.352C80.7524 129.594 80.7524 129.838 80.776 130.08C80.776 130.08 80.776 130.16 80.776 130.2C80.8 131.6 80.752 137.096 78.176 137.32Z" fill="#F7A9A0"/>
<path d="M80.744 130.08C80.748 130.12 80.748 130.16 80.744 130.2C80.3634 130.198 79.9836 130.166 79.608 130.104C73.256 129.024 72.896 121.016 72.928 118.784L75.584 119.848L82.784 122.768C81.8372 124.871 81.1521 127.082 80.744 129.352C80.7207 129.594 80.7207 129.838 80.744 130.08Z" fill="#263238"/>
<path d="M70.9998 106.488C69.8958 110.488 72.2638 121.792 75.1278 124.256C79.2878 127.84 85.9438 128.024 88.9518 123.056C91.8638 118.256 88.5198 103.528 85.3278 101.304C80.6318 98.0159 72.6238 100.616 70.9998 106.488Z" fill="#F7A9A0"/>
<path d="M82.176 113.64C82.176 113.64 82.128 113.688 82.176 113.72C82.352 114.48 82.432 115.384 81.792 115.776C81.792 115.776 81.792 115.824 81.792 115.816C82.584 115.528 82.472 114.336 82.176 113.64Z" fill="#263238"/>
<path d="M81.3359 112.984C80.0879 113.144 80.5359 115.624 81.6479 115.48C82.7599 115.336 82.3999 112.856 81.3359 112.984Z" fill="#263238"/>
<path d="M86.5198 112.8C86.5198 112.8 86.5918 112.8 86.5918 112.864C86.6958 113.664 86.9438 114.504 87.6798 114.648V114.688C86.8078 114.688 86.4958 113.536 86.5198 112.8Z" fill="#263238"/>
<path d="M87.0799 111.872C88.3039 111.576 88.8079 114.04 87.6719 114.272C86.5359 114.504 86.0559 112.12 87.0799 111.872Z" fill="#263238"/>
<path d="M80.1678 112C80.48 111.855 80.782 111.689 81.0718 111.504C81.4074 111.374 81.6892 111.134 81.8718 110.824C81.913 110.713 81.9165 110.592 81.8818 110.479C81.847 110.366 81.7761 110.268 81.6798 110.2C81.4702 110.093 81.2358 110.044 81.0009 110.058C80.766 110.072 80.5391 110.149 80.3438 110.28C79.9099 110.485 79.5678 110.845 79.3838 111.288C79.3427 111.395 79.3349 111.512 79.3613 111.623C79.3878 111.734 79.4473 111.835 79.5321 111.912C79.6169 111.989 79.7229 112.039 79.8364 112.054C79.9498 112.07 80.0654 112.051 80.1678 112Z" fill="#263238"/>
<path d="M87.8799 111.112C87.5279 111.112 87.1999 111.048 86.8479 111.016C86.4807 111.033 86.1182 110.929 85.8159 110.72C85.7355 110.634 85.685 110.525 85.672 110.408C85.659 110.291 85.6843 110.173 85.7439 110.072C85.8937 109.891 86.0891 109.754 86.3099 109.673C86.5307 109.593 86.7689 109.574 86.9999 109.616C87.4823 109.629 87.9422 109.823 88.2879 110.16C88.3618 110.241 88.411 110.341 88.4293 110.449C88.4477 110.557 88.4346 110.667 88.3915 110.768C88.3484 110.869 88.2772 110.954 88.1864 111.016C88.0957 111.077 87.9892 111.11 87.8799 111.112Z" fill="#263238"/>
<path d="M82.2879 120.84C82.4837 121.037 82.7404 121.161 83.0159 121.192C83.303 121.137 83.5755 121.023 83.8159 120.856C83.8159 120.856 83.8719 120.856 83.8159 120.896C83.729 121.065 83.5986 121.207 83.4383 121.308C83.278 121.41 83.0934 121.466 82.9039 121.472C82.7412 121.455 82.5872 121.39 82.4607 121.287C82.3343 121.183 82.2408 121.044 82.1919 120.888C82.2079 120.848 82.2639 120.8 82.2879 120.84Z" fill="#263238"/>
<path d="M82.7198 118.224C82.9663 118.496 83.266 118.714 83.6004 118.866C83.9348 119.017 84.2968 119.098 84.6638 119.104C84.9848 119.11 85.3051 119.073 85.6158 118.992L85.7918 118.944L85.9518 118.888C85.9925 118.874 86.0272 118.846 86.0504 118.81C86.0736 118.774 86.084 118.731 86.0798 118.688C86.0844 118.662 86.0844 118.634 86.0798 118.608V118.544C85.9998 117.944 85.7918 117.056 85.7918 117.056C86.0238 117.128 87.2158 117.448 87.1438 117.136C86.6399 114.477 85.8652 111.877 84.8318 109.376C84.8269 109.362 84.8177 109.35 84.8055 109.341C84.7933 109.332 84.7787 109.328 84.7638 109.328C84.7488 109.328 84.7343 109.332 84.7221 109.341C84.7099 109.35 84.7007 109.362 84.6958 109.376C85.1438 111.84 86.0318 114.176 86.5278 116.664C86.1035 116.545 85.6643 116.489 85.2238 116.496C85.1438 116.496 85.6558 118.208 85.6638 118.48C85.1865 118.607 84.6884 118.638 84.1992 118.569C83.71 118.5 83.2395 118.334 82.8158 118.08C82.7198 118.104 82.6638 118.168 82.7198 118.224Z" fill="#263238"/>
<path d="M85.264 118.848C85.0087 119.314 84.64 119.707 84.192 119.992C83.9501 120.133 83.6711 120.197 83.392 120.176C82.76 120.12 82.656 119.568 82.688 119.072C82.7048 118.8 82.7559 118.531 82.84 118.272C83.5673 118.714 84.4155 118.916 85.264 118.848Z" fill="#263238"/>
<path d="M84.192 120C83.9501 120.141 83.6711 120.205 83.392 120.184C82.76 120.128 82.656 119.576 82.688 119.08C83.0052 119.045 83.325 119.116 83.5972 119.283C83.8695 119.449 84.0787 119.702 84.192 120Z" fill="#FF9ABB"/>
<path d="M87.5039 104.608C86.8639 103.72 86.1599 102.832 85.5199 102.76C84.8799 102.688 84.8079 104.224 83.4799 104.608C81.6799 105.12 80.4399 103.64 77.8799 104.008C74.1599 104.544 73.2079 107.952 74.2399 113.16C75.1599 117.816 72.4559 118.856 72.4559 118.856C72.4559 118.856 68.5519 108.992 70.7039 104.984C72.8559 100.976 79.1519 98.0561 84.3039 100.336C86.1359 101.16 87.5039 104.608 87.5039 104.608Z" fill="#263238"/>
<path d="M74.336 116.272C74.336 116.272 71.592 112.712 69.968 113.704C68.344 114.696 70.512 119.944 72.512 120.584C72.7614 120.684 73.0286 120.733 73.2974 120.727C73.5662 120.721 73.8309 120.66 74.0756 120.549C74.3202 120.437 74.5397 120.277 74.7206 120.078C74.9015 119.88 75.0401 119.646 75.128 119.392L74.336 116.272Z" fill="#F7A9A0"/>
<path d="M70.6238 115.2C70.6238 115.2 70.6238 115.2 70.6238 115.256C71.2674 115.542 71.844 115.96 72.3165 116.482C72.7891 117.004 73.1472 117.619 73.3678 118.288C73.2813 118.154 73.1667 118.04 73.032 117.955C72.8972 117.869 72.7456 117.814 72.5874 117.793C72.4293 117.771 72.2683 117.785 72.1158 117.831C71.9633 117.878 71.8227 117.958 71.7038 118.064C71.7038 118.064 71.7038 118.144 71.7438 118.136C71.9822 118.047 72.2426 118.033 72.489 118.098C72.7354 118.162 72.9558 118.301 73.1198 118.496C73.3847 118.828 73.6177 119.184 73.8158 119.56C73.8798 119.68 74.1038 119.608 74.0478 119.464C73.9918 117.672 72.5198 115.28 70.6238 115.2Z" fill="#263238"/>
<path d="M80.5678 98.9281C79.0071 98.483 77.3906 98.2647 75.7678 98.2801C73.9358 98.3361 68.3598 99.6561 67.1838 101C66.0078 102.344 66.4878 107.72 66.5758 108.504C66.6638 109.288 67.7438 113.936 69.6318 114.808C71.5198 115.68 70.4318 107.656 72.6958 104.584C74.9598 101.512 80.5678 98.9281 80.5678 98.9281Z" fill="#FF7010"/>
<path opacity="0.1" d="M80.568 98.9359C80.568 98.9359 74.968 101.512 72.656 104.584C70.344 107.656 71.472 115.672 69.6 114.808C69.1636 114.567 68.7792 114.243 68.4689 113.853C68.1586 113.463 67.9285 113.015 67.792 112.536C67.792 110.136 68.152 106.376 69.704 103.56C71.16 100.928 74.112 99.2399 77.408 98.3359C78.4767 98.444 79.534 98.6447 80.568 98.9359Z" fill="black"/>
<path d="M70.7998 119.48C70.6158 117.328 71.8878 111.28 73.6478 107.656C75.4078 104.032 81.7838 101.08 82.7198 100.984C85.0078 100.76 85.6798 101.784 86.0078 101.504C86.3358 101.224 83.6638 99.024 82.9598 98.744C81.9097 98.4057 80.797 98.3073 79.7038 98.456C78.7198 98.632 72.7438 100.192 70.9438 103.128C69.1438 106.064 67.1998 113.816 67.9998 115.584C68.2078 116.008 68.7998 116.2 69.1278 116.808C69.5118 117.608 69.8318 118.528 70.1758 119.072C70.5198 119.616 70.8158 119.664 70.7998 119.48Z" fill="#FF7010"/>
<path d="M73.9358 106.112C73.3807 105.872 72.8457 105.589 72.3358 105.264C71.7996 104.942 71.3052 104.555 70.8638 104.112C70.8638 104.112 70.7758 104.112 70.8078 104.16C71.1956 104.673 71.6628 105.121 72.1918 105.488C72.7232 105.843 73.318 106.093 73.9438 106.224C73.9586 106.223 73.9725 106.216 73.9822 106.205C73.992 106.193 73.9968 106.179 73.9958 106.164C73.9947 106.149 73.9878 106.135 73.9766 106.125C73.9653 106.116 73.9506 106.111 73.9358 106.112Z" fill="#263238"/>
<path d="M70.4479 117.352C70.3599 117.208 70.2399 117.088 70.1439 116.952C70.0306 116.799 69.9366 116.632 69.8639 116.456C69.7647 116.112 69.6279 115.779 69.4559 115.464C69.2783 115.231 69.0743 115.019 68.8479 114.832C68.5765 114.636 68.3792 114.354 68.2879 114.032H68.2239C68.3199 114.68 68.8239 115.072 69.1919 115.568C69.379 115.908 69.5343 116.264 69.6559 116.632C69.7975 116.968 70.0446 117.249 70.3599 117.432C70.3999 117.456 70.4719 117.408 70.4479 117.352Z" fill="#263238"/>
<path d="M70.816 114.936C70.576 114.728 70.328 114.544 70.104 114.312C69.88 114.08 69.704 113.832 69.52 113.584C69.336 113.336 69.192 113.072 69.016 112.784C68.84 112.496 68.576 112.216 68.384 111.904C68.384 111.904 68.304 111.904 68.328 111.952C68.528 112.264 68.664 112.624 68.848 112.944C69.0129 113.221 69.1945 113.488 69.392 113.744C69.5786 113.992 69.7875 114.222 70.016 114.432C70.2446 114.652 70.5173 114.821 70.816 114.928C70.816 114.928 70.832 114.952 70.816 114.936Z" fill="#263238"/>
<path d="M71.264 112.736C70.7569 112.43 70.2985 112.05 69.904 111.608C69.52 111.176 69.152 110.72 68.8 110.264C68.8 110.264 68.72 110.264 68.744 110.264C69.0056 110.806 69.3364 111.311 69.728 111.768C69.9183 111.992 70.136 112.191 70.376 112.36C70.6359 112.533 70.9118 112.68 71.2 112.8C71.2 112.8 71.304 112.8 71.264 112.736Z" fill="#263238"/>
<path d="M71.7919 110.608C71.547 110.491 71.3269 110.328 71.1439 110.128C70.9199 109.92 70.7039 109.704 70.4959 109.48C70.2879 109.264 70.0799 109.064 69.8799 108.848C69.6638 108.645 69.4922 108.4 69.3759 108.128C69.3759 108.128 69.3039 108.128 69.3119 108.128C69.3747 108.42 69.5033 108.693 69.6879 108.928C69.8662 109.212 70.0697 109.48 70.2959 109.728C70.5196 109.958 70.7574 110.175 71.0079 110.376C71.2195 110.569 71.4842 110.695 71.7679 110.736C71.7763 110.738 71.7849 110.737 71.7933 110.736C71.8017 110.734 71.8096 110.73 71.8167 110.726C71.8237 110.721 71.8298 110.715 71.8344 110.708C71.8391 110.7 71.8423 110.692 71.8439 110.684C71.8455 110.676 71.8454 110.667 71.8436 110.659C71.8419 110.65 71.8385 110.642 71.8336 110.635C71.8288 110.628 71.8226 110.622 71.8155 110.617C71.8083 110.613 71.8003 110.609 71.7919 110.608Z" fill="#263238"/>
<path d="M71.9998 108C71.7651 107.84 71.5411 107.672 71.3278 107.496C71.1198 107.312 70.9118 107.128 70.7118 106.936C70.5118 106.744 70.2798 106.536 70.0798 106.32C70.0798 106.32 69.9998 106.32 70.0238 106.36C70.1761 106.612 70.3501 106.85 70.5438 107.072C70.7349 107.288 70.9408 107.492 71.1598 107.68C71.3768 107.869 71.6067 108.043 71.8478 108.2C72.0846 108.381 72.3573 108.509 72.6478 108.576C72.6544 108.571 72.6598 108.566 72.6635 108.559C72.6673 108.552 72.6692 108.544 72.6692 108.536C72.6692 108.528 72.6673 108.52 72.6635 108.513C72.6598 108.506 72.6544 108.5 72.6478 108.496C72.4475 108.311 72.2306 108.145 71.9998 108Z" fill="#263238"/>
<path d="M75.384 104.64C75.128 104.416 74.88 104.192 74.584 103.984C74.288 103.776 74.016 103.592 73.712 103.416C73.1378 103.064 72.526 102.776 71.888 102.56C71.888 102.56 71.816 102.6 71.888 102.624C73.024 103.328 74.2 103.984 75.336 104.704C75.3444 104.71 75.3551 104.713 75.3656 104.712C75.3761 104.71 75.3856 104.705 75.392 104.696C75.3983 104.688 75.4011 104.677 75.3996 104.666C75.3981 104.656 75.3924 104.646 75.384 104.64Z" fill="#263238"/>
<path d="M76.3839 102.616C76.1368 102.4 75.8688 102.21 75.5839 102.048C74.9526 101.73 74.2869 101.486 73.5999 101.32C73.5519 101.32 73.5279 101.368 73.5999 101.384C74.2159 101.664 74.8319 101.936 75.4239 102.248C75.7119 102.408 76.0079 102.568 76.2799 102.752C76.5519 102.936 76.7839 103.184 77.0799 103.384C76.9027 103.083 76.6658 102.822 76.3839 102.616Z" fill="#263238"/>
<path d="M78.0238 101.504C77.7789 101.283 77.5106 101.09 77.2238 100.928C76.7003 100.61 76.1269 100.383 75.5278 100.256C75.5278 100.256 75.4718 100.312 75.5278 100.328C76.0843 100.546 76.6198 100.813 77.1278 101.128C77.3838 101.288 77.6398 101.464 77.9278 101.64C78.2158 101.816 78.4158 102.04 78.6798 102.184C78.4832 101.937 78.2636 101.709 78.0238 101.504Z" fill="#263238"/>
<path d="M79.1359 100.24C78.8879 100.096 78.6239 99.9598 78.3359 99.8318C78.0857 99.6914 77.8161 99.589 77.5359 99.5278V99.5998L78.9919 100.456C79.4205 100.753 79.8173 101.093 80.1759 101.472C80.1759 101.472 80.2239 101.472 80.1759 101.472C79.9617 100.965 79.5991 100.536 79.1359 100.24Z" fill="#263238"/>
<path d="M80.68 99.6479C80.2066 99.33 79.6773 99.1047 79.12 98.9839C79.08 98.9839 79.064 99.0399 79.12 99.0559C79.6411 99.246 80.1296 99.5159 80.568 99.8559C81.0122 100.179 81.42 100.549 81.784 100.96C81.784 100.96 81.84 100.96 81.824 100.96C81.5552 100.436 81.1625 99.9855 80.68 99.6479Z" fill="#263238"/>
<path d="M84.2238 100.184C84.0768 100.037 83.9219 99.8982 83.7598 99.7681C83.5975 99.639 83.4264 99.5214 83.2478 99.4161C83.0638 99.3041 82.8798 99.2001 82.7038 99.0801C82.7038 99.0801 82.6238 99.1201 82.7038 99.1441C82.891 99.2529 83.0677 99.3787 83.2318 99.5201L83.6958 99.9041L84.1678 100.288C84.316 100.432 84.4737 100.565 84.6398 100.688C84.5207 100.505 84.3812 100.336 84.2238 100.184Z" fill="#263238"/>
<path d="M133.144 85.0482C132.811 88.2538 131.593 91.3037 129.626 93.8572C127.66 96.4107 125.022 98.3672 122.008 99.5083C118.994 100.649 115.722 100.93 112.557 100.319C109.393 99.7081 106.461 98.2294 104.088 96.0482L95.384 97.3282L99.736 89.8082C98.7389 87.3616 98.3122 84.7199 98.4885 82.0837C98.6647 79.4476 99.4393 76.8862 100.753 74.5941C102.067 72.302 103.886 70.3394 106.072 68.8553C108.258 67.3712 110.753 66.4046 113.368 66.0288C115.983 65.6531 118.65 65.8781 121.165 66.6868C123.68 67.4955 125.978 68.8666 127.884 70.696C129.791 72.5254 131.255 74.7651 132.166 77.245C133.078 79.7249 133.412 82.3798 133.144 85.0082V85.0482Z" fill="white"/>
<path d="M133.144 85.0482C132.805 88.2487 131.59 91.2937 129.632 93.8482C128.675 95.1386 127.526 96.2744 126.224 97.2162C124.943 98.1912 123.528 98.9778 122.024 99.5522C120.523 100.14 118.948 100.517 117.344 100.672C116.546 100.739 115.744 100.756 114.944 100.72C114.139 100.694 113.337 100.609 112.544 100.464C109.338 99.8762 106.359 98.405 103.944 96.2162L104.144 96.2802L95.432 97.6002L94.8 97.6962L95.1201 97.1442L99.448 89.6002V89.9042C98.4244 87.4121 97.9866 84.7183 98.1683 82.0303C98.35 79.3423 99.1464 76.7319 100.496 74.4002C101.852 72.081 103.714 70.0983 105.944 68.6002C108.72 66.7712 111.956 65.7656 115.279 65.6997C118.603 65.6339 121.877 66.5104 124.722 68.2279C127.568 69.9454 129.87 72.4337 131.36 75.4048C132.85 78.3758 133.469 81.7082 133.144 85.0162V85.0482ZM133.144 85.0482C133.422 82.4292 133.095 79.7814 132.188 77.3087C131.281 74.8361 129.819 72.6045 127.914 70.786C126.009 68.9675 123.712 67.6105 121.2 66.8196C118.687 66.0287 116.027 65.825 113.424 66.2242C110.839 66.6105 108.377 67.5818 106.224 69.0642C104.097 70.5582 102.32 72.4962 101.016 74.7442C99.7369 76.9978 98.9822 79.5107 98.8081 82.0962C98.6508 84.6836 99.0688 87.2736 100.032 89.6802L100.096 89.8322L100.016 89.9762L95.632 97.4802L95.3281 97.0242L104.032 95.8002H104.152L104.24 95.8802C106.563 98.0563 109.447 99.5412 112.568 100.168C113.359 100.33 114.161 100.427 114.968 100.456C115.767 100.513 116.569 100.513 117.368 100.456C118.957 100.333 120.522 99.988 122.016 99.4322C123.518 98.8895 124.931 98.1265 126.208 97.1682C126.853 96.6988 127.468 96.1884 128.048 95.6402C128.617 95.073 129.152 94.4719 129.648 93.8402C131.599 91.2866 132.809 88.2445 133.144 85.0482Z" fill="#263238"/>
<path d="M113.808 93.1601L106.384 85.6401L108.88 83.1761L113.216 87.5681L122.232 73.4321L125.192 75.3201L113.808 93.1601Z" fill="#FF7010"/>
</svg>
