<svg width="19" height="19" viewBox="0 0 19 19" fill="none" xmlns="http://www.w3.org/2000/svg">
<path d="M17.9916 4.57416L13.8019 0.38447C13.68 0.262579 13.5353 0.165889 13.3761 0.0999211C13.2168 0.0339534 13.0461 0 12.8738 0C12.7014 0 12.5307 0.0339534 12.3714 0.0999211C12.2122 0.165889 12.0675 0.262579 11.9456 0.38447L0.384377 11.9448C0.262253 12.0665 0.165418 12.2111 0.0994493 12.3704C0.0334804 12.5297 -0.000317693 12.7005 2.2504e-06 12.8729V17.0626C2.2504e-06 17.4107 0.138283 17.7445 0.384425 17.9907C0.630566 18.2368 0.964406 18.3751 1.3125 18.3751H17.0625C17.2117 18.3751 17.3548 18.3158 17.4603 18.2103C17.5657 18.1049 17.625 17.9618 17.625 17.8126C17.625 17.6634 17.5657 17.5203 17.4603 17.4148C17.3548 17.3094 17.2117 17.2501 17.0625 17.2501H7.17094L17.9916 6.43041C18.1135 6.30853 18.2101 6.16383 18.2761 6.00459C18.3421 5.84534 18.376 5.67465 18.376 5.50228C18.376 5.32991 18.3421 5.15923 18.2761 4.99998C18.2101 4.84073 18.1135 4.69604 17.9916 4.57416ZM5.58 17.2501H1.3125C1.26277 17.2501 1.21508 17.2303 1.17992 17.1952C1.14476 17.16 1.125 17.1123 1.125 17.0626V12.8729C1.12521 12.8233 1.1451 12.7757 1.18031 12.7407L9.5625 4.35853L14.0175 8.8126L5.58 17.2501ZM17.1956 5.63447L14.8125 8.0176L10.3584 3.5626L12.7406 1.18041C12.758 1.16297 12.7787 1.14914 12.8015 1.13971C12.8242 1.13027 12.8486 1.12542 12.8733 1.12542C12.8979 1.12542 12.9223 1.13027 12.9451 1.13971C12.9678 1.14914 12.9885 1.16297 13.0059 1.18041L17.1956 5.36916C17.2131 5.38657 17.2269 5.40725 17.2363 5.43001C17.2458 5.45278 17.2506 5.47717 17.2506 5.50181C17.2506 5.52645 17.2458 5.55085 17.2363 5.57362C17.2269 5.59638 17.2131 5.61706 17.1956 5.63447Z" fill="currentColor"/>
</svg>
