<svg width="400" height="400" viewBox="0 0 400 400" fill="none" xmlns="http://www.w3.org/2000/svg">
<path d="M400 305.92H0V306.12H400V305.92Z" fill="#EBEBEB"/>
<path d="M71.6 311.368H41.968V311.568H71.6V311.368Z" fill="#EBEBEB"/>
<path d="M192 315.696H135.2V315.896H192V315.696Z" fill="#EBEBEB"/>
<path d="M116.536 311.464H75.936V311.664H116.536V311.464Z" fill="#EBEBEB"/>
<path d="M364.36 317.448H325.424V317.648H364.36V317.448Z" fill="#EBEBEB"/>
<path d="M321.864 317.448H296.288V317.648H321.864V317.448Z" fill="#EBEBEB"/>
<path d="M271.376 314.072H221.768V314.272H271.376V314.072Z" fill="#EBEBEB"/>
<path d="M189.6 270.24H35.128C33.9179 270.238 32.758 269.756 31.9031 268.899C31.0482 268.043 30.568 266.882 30.568 265.672V48.528C30.5785 47.3248 31.0633 46.1744 31.9171 45.3266C32.7709 44.4788 33.9248 44.0021 35.128 44H189.6C190.811 44 191.973 44.4813 192.83 45.3379C193.687 46.1946 194.168 47.3565 194.168 48.568V265.672C194.168 266.884 193.687 268.045 192.83 268.902C191.973 269.759 190.811 270.24 189.6 270.24ZM35.128 44.16C33.9709 44.1621 32.862 44.6233 32.0445 45.4422C31.2271 46.2611 30.768 47.3709 30.768 48.528V265.672C30.768 266.829 31.2271 267.939 32.0445 268.758C32.862 269.577 33.9709 270.038 35.128 270.04H189.6C190.758 270.038 191.868 269.577 192.686 268.758C193.505 267.94 193.966 266.83 193.968 265.672V48.528C193.966 47.3702 193.505 46.2604 192.686 45.4417C191.868 44.623 190.758 44.1621 189.6 44.16H35.128Z" fill="#EBEBEB"/>
<path d="M362.648 270.24H208.168C206.957 270.238 205.796 269.756 204.94 268.9C204.084 268.044 203.602 266.883 203.6 265.672V48.528C203.613 47.3241 204.099 46.1737 204.954 45.3261C205.809 44.4785 206.964 44.002 208.168 44H362.648C363.85 44.0042 365.002 44.4818 365.854 45.3294C366.706 46.177 367.189 47.3262 367.2 48.528V265.672C367.2 266.881 366.721 268.04 365.868 268.896C365.014 269.753 363.857 270.236 362.648 270.24ZM208.168 44.16C207.01 44.1621 205.9 44.623 205.082 45.4417C204.263 46.2604 203.802 47.3702 203.8 48.528V265.672C203.802 266.83 204.263 267.94 205.082 268.758C205.9 269.577 207.01 270.038 208.168 270.04H362.648C363.806 270.038 364.916 269.577 365.734 268.758C366.553 267.94 367.014 266.83 367.016 265.672V48.528C367.014 47.3702 366.553 46.2604 365.734 45.4417C364.916 44.623 363.806 44.1621 362.648 44.16H208.168Z" fill="#EBEBEB"/>
<path d="M348.496 303.456H286.096C283.185 303.456 280.393 302.3 278.335 300.241C276.276 298.183 275.12 295.391 275.12 292.48V236.416C275.12 233.505 276.276 230.713 278.335 228.655C280.393 226.596 283.185 225.44 286.096 225.44H348.496V303.456Z" fill="#F0F0F0"/>
<path d="M347.984 303.456H349.016C355.078 303.456 359.992 298.542 359.992 292.48V236.416C359.992 230.354 355.078 225.44 349.016 225.44H347.984C341.922 225.44 337.008 230.354 337.008 236.416V292.48C337.008 298.542 341.922 303.456 347.984 303.456Z" fill="#F5F5F5"/>
<path d="M340.136 254.216H203.4V303.456H340.136V254.216Z" fill="#F0F0F0"/>
<path d="M346.832 305.92H144.736C144.44 305.921 144.147 305.864 143.873 305.751C143.6 305.639 143.351 305.473 143.141 305.264C142.932 305.056 142.765 304.807 142.652 304.534C142.538 304.261 142.48 303.968 142.48 303.672V303.456H286.048L349.08 303.672C349.08 304.268 348.843 304.84 348.422 305.262C348 305.683 347.428 305.92 346.832 305.92Z" fill="#E0E0E0"/>
<path d="M157.792 193.072H288.864C292.923 193.072 296.815 194.684 299.686 197.554C302.556 200.424 304.168 204.317 304.168 208.376V265.344H142.48V208.376C142.48 204.317 144.092 200.424 146.962 197.554C149.832 194.684 153.725 193.072 157.784 193.072H157.792Z" fill="#E0E0E0"/>
<path d="M168.288 193.072H300.8C304.664 193.072 308.369 194.607 311.101 197.339C313.833 200.071 315.368 203.776 315.368 207.64V265.352H153.72V207.64C153.72 203.776 155.255 200.071 157.987 197.339C160.719 194.607 164.424 193.072 168.288 193.072Z" fill="#F5F5F5"/>
<path d="M333.6 249.72H213.808C211.975 249.72 210.217 250.448 208.92 251.745C207.624 253.041 206.896 254.799 206.896 256.632V262.864C206.896 264.697 207.624 266.455 208.92 267.752C210.217 269.048 211.975 269.776 213.808 269.776H333.6C334.917 269.776 336.221 269.517 337.438 269.012C338.655 268.508 339.76 267.769 340.691 266.837C341.622 265.906 342.36 264.8 342.863 263.583C343.367 262.366 343.625 261.061 343.624 259.744C343.624 257.086 342.568 254.536 340.688 252.656C338.808 250.776 336.259 249.72 333.6 249.72Z" fill="#E0E0E0"/>
<path d="M203.048 303.456H140.648C137.737 303.456 134.945 302.3 132.887 300.241C130.828 298.183 129.672 295.391 129.672 292.48V236.416C129.672 233.505 130.828 230.713 132.887 228.655C134.945 226.596 137.737 225.44 140.648 225.44H203.048V303.456Z" fill="#F0F0F0"/>
<path d="M202.528 303.456H203.56C209.622 303.456 214.536 298.542 214.536 292.48V236.416C214.536 230.354 209.622 225.44 203.56 225.44H202.528C196.466 225.44 191.552 230.354 191.552 236.416V292.48C191.552 298.542 196.466 303.456 202.528 303.456Z" fill="#F5F5F5"/>
<path d="M320.848 74.0161H264.344V157.104H320.848V74.0161Z" fill="#E0E0E0"/>
<path d="M324.248 74.0161H265.888V157.104H324.248V74.0161Z" fill="#F5F5F5"/>
<path d="M270.776 80.5598V150.552H319.36V80.5598H270.776Z" fill="white"/>
<path d="M289.024 118.936V124.264C290.611 124.264 292.183 123.951 293.65 123.344C295.116 122.737 296.449 121.846 297.571 120.724C298.694 119.601 299.584 118.269 300.192 116.802C300.799 115.335 301.112 113.764 301.112 112.176V106.848C299.524 106.847 297.952 107.159 296.485 107.766C295.018 108.373 293.685 109.264 292.562 110.386C291.439 111.509 290.549 112.842 289.942 114.309C289.335 115.776 289.023 117.348 289.024 118.936Z" fill="#F5F5F5"/>
<path d="M289.024 100.968V106.296C292.229 106.294 295.303 105.02 297.569 102.753C299.836 100.487 301.11 97.4134 301.112 94.2081V88.8721C299.524 88.8721 297.951 89.185 296.484 89.793C295.017 90.401 293.684 91.2921 292.562 92.4154C291.439 93.5387 290.549 94.8722 289.942 96.3397C289.335 97.8072 289.023 99.38 289.024 100.968Z" fill="#F5F5F5"/>
<path d="M289.024 136.912V142.24C292.231 142.238 295.305 140.962 297.572 138.694C299.839 136.426 301.112 133.35 301.112 130.144V124.8C299.523 124.8 297.949 125.113 296.481 125.722C295.012 126.331 293.679 127.224 292.556 128.349C291.433 129.474 290.543 130.809 289.937 132.279C289.331 133.748 289.021 135.322 289.024 136.912Z" fill="#F5F5F5"/>
<path d="M236.928 139.184V80.5601L52.4 80.5601V139.184H236.928Z" fill="#EBEBEB"/>
<path d="M52.4 139.184L52.4 80.5601H51.288V139.184H52.4Z" fill="#E0E0E0"/>
<path d="M227.832 89.6558H61.496V130.088H227.832V89.6558Z" fill="#F5F5F5"/>
<path d="M101.36 130.088H87.544L98.36 89.6558H112.176L101.36 130.088Z" fill="white"/>
<path d="M114.208 130.088H106.216L117.032 89.6558H125.024L114.208 130.088Z" fill="white"/>
<path d="M183.752 130.088H175.76L186.576 89.6558H194.568L183.752 130.088Z" fill="white"/>
<path d="M124.256 238.872H79.528L73.992 178.104H118.728L124.256 238.872Z" fill="#E6E6E6"/>
<path d="M126.576 238.872H81.84L76.312 178.104H121.048L126.576 238.872Z" fill="#F0F0F0"/>
<path d="M87.952 232.144L83.648 184.832H114.928L119.232 232.144H87.952Z" fill="white"/>
<path d="M157.784 238.872H151.76V305.912H157.784V238.872Z" fill="#E6E6E6"/>
<path d="M159.68 238.872H155.496V305.912H159.68V238.872Z" fill="#F5F5F5"/>
<path d="M97.408 246.272H160.976V238.872H97.408V246.272Z" fill="#F5F5F5"/>
<path d="M94.712 246.272H88.688V305.92H94.712V246.272Z" fill="#E6E6E6"/>
<path d="M96.616 246.272H92.432V305.92H96.616V246.272Z" fill="#F5F5F5"/>
<path d="M56.6 246.272H50.576V305.92H56.6V246.272Z" fill="#E6E6E6"/>
<path d="M58.504 246.272H54.32V305.92H58.504V246.272Z" fill="#F5F5F5"/>
<path d="M119.672 246.272H113.648V305.92H119.672V246.272Z" fill="#E6E6E6"/>
<path d="M121.568 246.272H117.384V305.92H121.568V246.272Z" fill="#F5F5F5"/>
<path d="M97.408 238.872H50.576V246.272H97.408V238.872Z" fill="#E6E6E6"/>
<path d="M200 342.048C285.666 342.048 355.112 337.994 355.112 332.992C355.112 327.991 285.666 323.936 200 323.936C114.334 323.936 44.888 327.991 44.888 332.992C44.888 337.994 114.334 342.048 200 342.048Z" fill="#F5F5F5"/>
<path d="M262.688 108.8C259.632 106.888 250.856 108.8 252.288 118.4C253.72 128 242.44 125.544 244.904 136.712C247.368 147.88 267.36 164.472 279.672 153.208C291.984 141.944 281.608 136.976 281.84 123.608C282 115.664 278.4 101.44 262.688 108.8Z" fill="#263238"/>
<path d="M280.8 152.728C280.743 152.728 280.688 152.705 280.648 152.664C280.629 152.646 280.613 152.623 280.603 152.598C280.592 152.574 280.587 152.547 280.587 152.52C280.587 152.493 280.592 152.467 280.603 152.442C280.613 152.417 280.629 152.395 280.648 152.376C288.232 144.84 286.48 140.248 284.264 134.44C283.032 131.24 281.648 127.592 281.528 122.864C281.408 117.76 279.544 110.792 274.688 107.92C271.248 105.888 266.832 106.24 261.568 108.968C261.52 108.991 261.465 108.995 261.414 108.978C261.364 108.962 261.321 108.927 261.296 108.88C261.282 108.856 261.274 108.83 261.271 108.802C261.268 108.775 261.271 108.747 261.279 108.721C261.287 108.695 261.301 108.67 261.319 108.65C261.337 108.629 261.359 108.612 261.384 108.6C266.784 105.8 271.328 105.456 274.904 107.568C279.896 110.528 281.816 117.648 281.944 122.848C282.056 127.512 283.432 131.112 284.648 134.288C286.912 140.24 288.712 144.944 280.936 152.688C280.896 152.716 280.849 152.731 280.8 152.728Z" fill="#263238"/>
<path d="M282.576 151.632C282.576 151.632 282.704 151.816 282.792 151.936L283.112 152.368C283.347 152.667 283.595 152.963 283.856 153.256C284.392 153.86 284.964 154.432 285.568 154.968C286.807 156.103 288.146 157.123 289.568 158.016C291.012 158.936 292.514 159.761 294.064 160.488C294.864 160.88 295.664 161.192 296.464 161.544C296.616 161.616 296.464 161.544 296.36 161.608C296.256 161.672 296.168 161.728 296.256 161.68C296.648 161.346 296.96 160.928 297.168 160.456C297.522 159.751 297.824 159.021 298.072 158.272C298.609 156.601 299.044 154.9 299.376 153.176C299.736 151.416 300.016 149.616 300.264 147.8C300.512 145.984 300.736 144.144 300.936 142.344H304.192C304.459 146.17 304.429 150.011 304.104 153.832C303.955 155.813 303.652 157.778 303.2 159.712C302.957 160.763 302.625 161.79 302.208 162.784C301.703 164.05 300.921 165.187 299.92 166.112C299.182 166.758 298.284 167.192 297.32 167.368C296.365 167.528 295.385 167.443 294.472 167.12C293.536 166.784 292.584 166.504 291.656 166.12C289.772 165.385 287.948 164.505 286.2 163.488C284.425 162.433 282.746 161.223 281.184 159.872C280.392 159.17 279.644 158.419 278.944 157.624C278.584 157.224 278.232 156.824 277.896 156.36L277.4 155.656C277.224 155.392 277.104 155.208 276.856 154.776L282.576 151.632Z" fill="#FFC3BD"/>
<path d="M281.48 148.672C288.96 153.472 288.352 156.384 288.352 156.384L283.648 163.2C283.648 163.2 271.648 158.4 270.904 154.632C270.12 150.704 277.848 146.352 281.48 148.672Z" fill="#263238"/>
<path opacity="0.1" d="M281.48 148.672C288.96 153.472 288.352 156.384 288.352 156.384L283.648 163.2C283.648 163.2 271.648 158.4 270.904 154.632C270.12 150.704 277.848 146.352 281.48 148.672Z" fill="white"/>
<path d="M288.8 155.712C288.939 155.811 289.034 155.96 289.064 156.127C289.094 156.295 289.056 156.468 288.96 156.608L284.16 163.496C284.113 163.567 284.052 163.627 283.981 163.674C283.909 163.72 283.83 163.752 283.746 163.767C283.662 163.782 283.577 163.78 283.494 163.761C283.411 163.742 283.333 163.706 283.264 163.656C283.195 163.608 283.136 163.546 283.091 163.474C283.046 163.403 283.015 163.323 283.001 163.24C282.987 163.157 282.99 163.071 283.009 162.989C283.028 162.907 283.063 162.829 283.112 162.76L287.912 155.872C288.01 155.735 288.158 155.642 288.324 155.612C288.489 155.582 288.66 155.618 288.8 155.712Z" fill="#FF7010"/>
<path d="M301.464 143.912L297.752 138.952L304.872 137.12C304.872 137.12 306.32 141.536 303.952 144.776L301.464 143.912Z" fill="#FFC3BD"/>
<path d="M297.952 132.856L303.88 131.856L304.872 137.12L297.752 138.952L297.952 132.856Z" fill="#FFC3BD"/>
<path d="M237.632 326.08L244.416 326.736L249.264 310.784L242.48 310.128L237.632 326.08Z" fill="#FFC3BD"/>
<path d="M194.472 302.504L199.504 307.224L210.368 295.288L205.336 290.568L194.472 302.504Z" fill="#FFC3BD"/>
<path d="M201.832 304.96L198.048 298.152C197.986 298.033 197.882 297.941 197.757 297.894C197.631 297.847 197.493 297.847 197.368 297.896L191.544 300.112C191.396 300.172 191.262 300.264 191.152 300.381C191.042 300.498 190.959 300.637 190.908 300.789C190.858 300.941 190.84 301.102 190.857 301.261C190.874 301.421 190.926 301.574 191.008 301.712C192.368 304.064 193.144 305.136 194.8 308.112C195.824 309.952 197.816 314.184 199.232 316.728C200.648 319.272 203.232 318.016 202.88 316.824C201.28 311.504 201.568 308.544 202.024 306.2C202.107 305.777 202.039 305.338 201.832 304.96Z" fill="#263238"/>
<path d="M245.224 324.664H236.992C236.845 324.667 236.703 324.717 236.587 324.806C236.47 324.895 236.385 325.019 236.344 325.16L234.552 331.672C234.51 331.826 234.504 331.988 234.535 332.145C234.566 332.302 234.633 332.449 234.731 332.575C234.829 332.702 234.954 332.804 235.098 332.873C235.242 332.943 235.4 332.978 235.56 332.976C238.456 332.976 239.832 332.976 243.448 332.976H254.512C257.52 332.976 258.144 329.936 256.912 329.664C251.312 328.432 248.112 326.728 246.392 325.104C246.075 324.81 245.656 324.652 245.224 324.664Z" fill="#263238"/>
<path opacity="0.2" d="M249.264 310.792L246.768 319.008H239.776L242.48 310.136L249.264 310.792Z" fill="black"/>
<path opacity="0.2" d="M205.336 290.568L210.368 295.296L204.768 301.448L199.736 296.72L205.336 290.568Z" fill="black"/>
<path d="M281.48 148.672C281.48 148.672 284.2 150.52 266.96 187.976L239.816 180.464C243.328 169.536 245.232 162.728 246.216 138.592C250.235 138.859 254.23 139.418 258.168 140.264C262.351 141.109 266.468 142.25 270.488 143.68C274.236 145.153 277.905 146.819 281.48 148.672Z" fill="#263238"/>
<path opacity="0.1" d="M281.48 148.672C281.48 148.672 284.2 150.52 266.96 187.976L239.816 180.464C243.328 169.536 245.232 162.728 246.216 138.592C250.235 138.859 254.23 139.418 258.168 140.264C262.351 141.109 266.468 142.25 270.488 143.68C274.236 145.153 277.905 146.819 281.48 148.672Z" fill="white"/>
<path d="M263.24 126.72C262.92 130.904 261.68 138.384 258.176 140.264C258.176 140.264 256.136 147.2 264.984 149.752C272.48 151.904 270.496 143.68 270.496 143.68C266.368 141.4 268.896 137.36 269.696 132.832L263.24 126.72Z" fill="#FFC3BD"/>
<path opacity="0.2" d="M263.2 126.728C262.944 130.08 262.104 135.584 259.952 138.576C262.448 138.824 266.352 138.064 267.504 136.176C268.074 134.852 268.536 133.485 268.888 132.088L263.2 126.728Z" fill="black"/>
<path d="M274.216 120.664C274.216 127.544 274.336 130.464 271.08 134.184C266.176 139.784 257.728 138.256 255.688 131.504C253.856 125.432 254.192 115.2 260.752 112.072C262.193 111.376 263.789 111.06 265.387 111.155C266.985 111.249 268.532 111.751 269.881 112.612C271.23 113.473 272.337 114.665 273.096 116.074C273.855 117.484 274.24 119.064 274.216 120.664Z" fill="#FFC3BD"/>
<path d="M260 116.848C263.864 122.248 276.864 129.752 277.736 122.52C278.608 115.288 271.968 108.12 265.392 108.832C258.816 109.544 256.696 112.256 260 116.848Z" fill="#263238"/>
<path d="M277.064 127.088C276.773 127.68 276.368 128.209 275.873 128.644C275.377 129.079 274.8 129.412 274.176 129.624C272.504 130.176 271.584 128.704 271.976 127.08C272.336 125.616 273.632 123.568 275.352 123.72C275.726 123.759 276.084 123.891 276.394 124.103C276.704 124.316 276.955 124.603 277.126 124.938C277.296 125.273 277.38 125.645 277.369 126.021C277.358 126.397 277.253 126.764 277.064 127.088Z" fill="#FFC3BD"/>
<path d="M266.96 188C266.96 188 276.624 227.144 270.288 256.752C266.04 276.584 250.728 316.648 250.728 316.648L238.728 316.344C238.728 316.344 250.32 274.304 252.712 257.768C256.816 229.48 247.048 182.496 247.048 182.496L266.96 188Z" fill="#FF7010"/>
<path opacity="0.2" d="M256.184 193.6L250.2 203.04C251.992 214.233 253.127 225.522 253.6 236.848C262.04 221.784 258.056 201.6 256.184 193.6Z" fill="black"/>
<path d="M252.872 317.248L237.632 316.872L238.656 311.448L253.984 312.6L252.872 317.248Z" fill="#263238"/>
<path d="M261.008 186.4C261.008 186.4 255.408 229.2 243.352 253.52C233.6 273.16 207.576 301.12 207.576 301.12L200.92 294.264C200.92 294.264 218.52 263.864 225.72 250.832C243.496 218.832 227.744 190.152 239.792 180.432L261.008 186.4Z" fill="#FF7010"/>
<path d="M208.248 302.056L199.664 293.68L202.512 289.808L211.872 299.48L208.248 302.056Z" fill="#263238"/>
<path d="M239.848 178.752L237.952 180.848C237.808 181.008 237.952 181.264 238.288 181.352L266.76 189.232C267 189.296 267.24 189.232 267.296 189.088L268.216 186.688C268.28 186.528 268.104 186.328 267.84 186.248L240.352 178.64C240.265 178.613 240.173 178.609 240.085 178.629C239.997 178.649 239.915 178.691 239.848 178.752Z" fill="#FF7010"/>
<path opacity="0.5" d="M239.848 178.752L237.952 180.848C237.808 181.008 237.952 181.264 238.288 181.352L266.76 189.232C267 189.296 267.24 189.232 267.296 189.088L268.216 186.688C268.28 186.528 268.104 186.328 267.84 186.248L240.352 178.64C240.265 178.613 240.173 178.609 240.085 178.629C239.997 178.649 239.915 178.691 239.848 178.752Z" fill="white"/>
<path d="M242.688 182.848L241.952 182.648C241.808 182.608 241.72 182.496 241.752 182.408L242.968 179.352C243.008 179.256 243.16 179.216 243.304 179.256L244.04 179.464C244.184 179.464 244.28 179.608 244.24 179.704L243.024 182.76C242.985 182.809 242.931 182.845 242.871 182.86C242.81 182.876 242.746 182.872 242.688 182.848Z" fill="#FF7010"/>
<path d="M264.616 188.92L263.88 188.72C263.736 188.68 263.64 188.568 263.68 188.48L264.896 185.416C264.935 185.367 264.989 185.332 265.049 185.316C265.11 185.3 265.174 185.304 265.232 185.328L265.968 185.536C266.112 185.576 266.2 185.68 266.168 185.768L264.952 188.8C264.912 188.92 264.8 188.96 264.616 188.92Z" fill="#FF7010"/>
<path d="M253.656 185.888L252.92 185.68C252.768 185.68 252.68 185.536 252.712 185.448L253.936 182.384C253.936 182.296 254.12 182.256 254.264 182.296L255 182.496C255.152 182.496 255.24 182.648 255.208 182.736L253.984 185.8C253.952 185.888 253.8 185.928 253.656 185.888Z" fill="#FF7010"/>
<path d="M263.928 123.2C263.928 123.76 263.688 124.232 263.328 124.248C262.968 124.264 262.64 123.84 262.6 123.28C262.56 122.72 262.84 122.248 263.208 122.224C263.576 122.2 263.896 122.632 263.928 123.2Z" fill="#263238"/>
<path d="M257.6 123.56C257.6 124.12 257.36 124.592 256.992 124.616C256.624 124.64 256.312 124.2 256.272 123.64C256.232 123.08 256.512 122.608 256.88 122.592C257.248 122.576 257.6 123.008 257.6 123.56Z" fill="#263238"/>
<path d="M257.056 122.608L255.696 122.304C255.696 122.304 256.44 123.312 257.056 122.608Z" fill="#263238"/>
<path d="M259.336 124.424C258.912 125.725 258.315 126.963 257.56 128.104C257.856 128.291 258.189 128.41 258.536 128.454C258.883 128.499 259.235 128.466 259.568 128.36L259.336 124.424Z" fill="#ED847E"/>
<path d="M262.68 130.264C262.348 130.35 262.007 130.401 261.664 130.416C261.646 130.418 261.627 130.417 261.61 130.411C261.593 130.406 261.577 130.397 261.563 130.385C261.549 130.373 261.538 130.358 261.531 130.341C261.524 130.324 261.52 130.306 261.52 130.288C261.519 130.27 261.521 130.252 261.527 130.235C261.533 130.218 261.542 130.203 261.554 130.189C261.566 130.176 261.58 130.165 261.597 130.157C261.613 130.15 261.63 130.145 261.648 130.144C262.347 130.116 263.031 129.925 263.643 129.586C264.256 129.247 264.78 128.77 265.176 128.192C265.196 128.167 265.225 128.15 265.257 128.144C265.289 128.138 265.322 128.144 265.35 128.16C265.378 128.177 265.4 128.203 265.41 128.233C265.421 128.264 265.42 128.298 265.408 128.328C264.778 129.297 263.802 129.989 262.68 130.264Z" fill="#263238"/>
<path d="M266.016 119.112C265.971 119.124 265.923 119.124 265.878 119.111C265.833 119.098 265.792 119.074 265.76 119.04C265.469 118.733 265.109 118.5 264.709 118.361C264.31 118.222 263.883 118.181 263.464 118.24C263.393 118.253 263.32 118.239 263.26 118.2C263.199 118.162 263.155 118.102 263.136 118.032C263.121 117.961 263.135 117.888 263.174 117.826C263.213 117.765 263.274 117.722 263.344 117.704C263.851 117.623 264.37 117.665 264.857 117.827C265.345 117.988 265.786 118.264 266.144 118.632C266.193 118.686 266.221 118.756 266.221 118.828C266.221 118.901 266.193 118.971 266.144 119.024C266.109 119.063 266.065 119.093 266.016 119.112Z" fill="#263238"/>
<path d="M254.864 119.92C254.822 119.945 254.773 119.959 254.724 119.959C254.675 119.959 254.626 119.945 254.584 119.92C254.527 119.877 254.49 119.814 254.479 119.743C254.469 119.673 254.486 119.602 254.528 119.544C254.823 119.124 255.215 118.782 255.67 118.545C256.125 118.308 256.631 118.184 257.144 118.184C257.18 118.186 257.215 118.195 257.247 118.211C257.279 118.226 257.308 118.248 257.332 118.275C257.356 118.302 257.374 118.333 257.386 118.367C257.397 118.401 257.402 118.436 257.4 118.472C257.398 118.508 257.389 118.543 257.373 118.575C257.358 118.607 257.336 118.636 257.309 118.66C257.282 118.684 257.251 118.702 257.217 118.714C257.184 118.725 257.148 118.73 257.112 118.728C256.69 118.735 256.276 118.841 255.904 119.039C255.531 119.236 255.21 119.519 254.968 119.864C254.938 119.89 254.902 119.91 254.864 119.92Z" fill="#263238"/>
<path d="M246.856 148.904C246.16 149.96 245.528 150.808 244.816 151.704C244.104 152.6 243.408 153.44 242.672 154.272C241.196 155.945 239.625 157.531 237.968 159.024C236.32 160.547 234.572 161.959 232.736 163.248C231.832 163.92 230.864 164.504 229.92 165.112L228.44 165.96L227.704 166.376C227.432 166.52 227.08 166.712 226.744 166.848C225.261 167.519 223.614 167.736 222.008 167.472C220.492 167.186 219.076 166.514 217.896 165.52C216.9 164.689 216.022 163.726 215.288 162.656C214.611 161.685 214.009 160.664 213.488 159.6C211.59 155.571 210.281 151.29 209.6 146.888L212.8 146.152C213.464 148.056 214.208 150.032 215.048 151.88C215.835 153.728 216.763 155.512 217.824 157.216C218.709 158.759 219.882 160.117 221.28 161.216C221.745 161.573 222.298 161.797 222.88 161.864C223.389 161.886 223.893 161.764 224.336 161.512C224.491 161.434 224.64 161.345 224.784 161.248L225.408 160.848L226.648 160.048C227.448 159.456 228.248 158.904 229.048 158.272C230.623 157.038 232.135 155.725 233.576 154.336C235.04 152.952 236.408 151.472 237.728 149.952C238.392 149.192 239.04 148.424 239.664 147.64C240.288 146.856 240.912 146.04 241.416 145.32L246.856 148.904Z" fill="#FFC3BD"/>
<path d="M213.416 149.104L214.12 141.64L207.408 144.384C207.408 144.384 208.208 148.136 210.768 149.48L213.416 149.104Z" fill="#FFC3BD"/>
<path d="M211.976 137.608L206.784 136.48L207.408 144.384L214.12 141.64L211.976 137.608Z" fill="#FFC3BD"/>
<path d="M246.224 138.592C242.728 138.592 234.312 151.936 234.312 151.936L240.256 158.096C240.256 158.096 251.456 150.544 251.896 146.096C252.28 142.272 250.672 138.632 246.224 138.592Z" fill="#263238"/>
<path opacity="0.1" d="M246.224 138.592C242.728 138.592 234.312 151.936 234.312 151.936L240.256 158.096C240.256 158.096 251.456 150.544 251.896 146.096C252.28 142.272 250.672 138.632 246.224 138.592Z" fill="white"/>
<path d="M240.8 158.4C240.68 158.52 240.517 158.587 240.348 158.587C240.178 158.587 240.016 158.52 239.896 158.4L233.888 152.512C233.768 152.392 233.701 152.229 233.701 152.06C233.701 151.891 233.768 151.728 233.888 151.608C234.009 151.488 234.173 151.42 234.344 151.42C234.515 151.42 234.679 151.488 234.8 151.608L240.8 157.488C240.92 157.609 240.988 157.773 240.988 157.944C240.988 158.115 240.92 158.279 240.8 158.4Z" fill="#FF7010"/>
<path d="M203.2 308.624C203.419 308.618 203.631 308.539 203.8 308.4C203.88 308.348 203.945 308.275 203.986 308.189C204.027 308.103 204.043 308.007 204.032 307.912C203.96 307.048 201.768 305.872 201.512 305.736C201.49 305.722 201.465 305.715 201.44 305.715C201.414 305.715 201.39 305.722 201.368 305.736C201.346 305.752 201.329 305.774 201.32 305.8C201.312 305.826 201.312 305.854 201.32 305.88C201.568 306.76 202.12 308.28 202.92 308.56C203.009 308.598 203.104 308.62 203.2 308.624ZM201.6 306.136C202.4 306.568 203.648 307.4 203.688 307.936C203.693 307.984 203.684 308.033 203.661 308.076C203.638 308.119 203.603 308.154 203.56 308.176C203.479 308.252 203.379 308.305 203.271 308.331C203.163 308.356 203.05 308.352 202.944 308.32C202.512 308.16 202.016 307.352 201.6 306.136Z" fill="#FF7010"/>
<path d="M203.496 306.48C203.842 306.506 204.188 306.419 204.48 306.232C204.576 306.153 204.642 306.042 204.665 305.919C204.688 305.796 204.668 305.669 204.608 305.56C204.566 305.445 204.498 305.341 204.409 305.256C204.32 305.172 204.213 305.109 204.096 305.072C203.16 304.744 201.416 305.696 201.344 305.736C201.323 305.749 201.306 305.766 201.293 305.787C201.281 305.808 201.273 305.832 201.272 305.856C201.272 305.88 201.278 305.903 201.289 305.924C201.3 305.945 201.316 305.963 201.336 305.976C202.009 306.304 202.747 306.476 203.496 306.48ZM203.632 305.272C203.76 305.272 203.887 305.293 204.008 305.336C204.087 305.359 204.16 305.401 204.22 305.458C204.279 305.515 204.325 305.586 204.352 305.664C204.44 305.872 204.352 305.968 204.304 306.024C203.896 306.368 202.456 306.176 201.712 305.856C202.308 305.538 202.96 305.339 203.632 305.272Z" fill="#FF7010"/>
<path d="M248.872 325.992C249.431 326.034 249.99 325.903 250.472 325.616C250.596 325.523 250.697 325.402 250.766 325.263C250.836 325.125 250.872 324.971 250.872 324.816C250.882 324.736 250.87 324.654 250.836 324.581C250.802 324.507 250.748 324.445 250.68 324.4C249.936 323.888 246.944 325.264 246.608 325.424C246.581 325.436 246.558 325.457 246.544 325.483C246.529 325.509 246.524 325.539 246.528 325.568C246.531 325.596 246.543 325.621 246.561 325.641C246.58 325.662 246.605 325.675 246.632 325.68C247.366 325.863 248.116 325.967 248.872 325.992ZM250.184 324.576C250.301 324.569 250.417 324.594 250.52 324.648C250.56 324.648 250.6 324.72 250.592 324.832C250.59 324.942 250.563 325.05 250.511 325.148C250.46 325.245 250.386 325.329 250.296 325.392C249.624 325.904 247.984 325.688 247.096 325.528C248.069 325.05 249.111 324.729 250.184 324.576Z" fill="#FF7010"/>
<path d="M246.656 325.712H246.704C247.608 325.344 249.488 323.832 249.384 323.08C249.384 322.92 249.256 322.72 248.848 322.672C247.248 322.488 246.552 325.424 246.52 325.552C246.515 325.577 246.517 325.603 246.526 325.627C246.534 325.651 246.549 325.672 246.568 325.688C246.595 325.704 246.625 325.713 246.656 325.712ZM248.704 322.928H248.8C249.08 322.928 249.096 323.064 249.104 323.104C249.168 323.584 247.824 324.808 246.848 325.32C247.064 324.64 247.672 322.928 248.704 322.928Z" fill="#FF7010"/>
<path d="M263.368 122.24L262.008 121.936C262.008 121.936 262.752 122.944 263.368 122.24Z" fill="#263238"/>
<path d="M122.01 329.353L212.49 321.453C218.635 320.917 223.181 315.501 222.644 309.356L203.799 93.5214C203.263 87.3769 197.847 82.8307 191.702 83.3672L101.222 91.2672C95.0778 91.8037 90.5316 97.2197 91.0681 103.364L109.913 319.199C110.45 325.344 115.866 329.89 122.01 329.353Z" fill="#FF7010"/>
<path d="M97.84 167.112C98.6781 167.032 99.4513 166.626 99.9919 165.98C100.532 165.335 100.797 164.503 100.728 163.664L98.24 135.2C98.1626 134.361 97.7582 133.588 97.1144 133.045C96.4705 132.503 95.639 132.237 94.8 132.304C93.9604 132.381 93.1852 132.786 92.6429 133.432C92.1006 134.078 91.8351 134.911 91.904 135.752L94.4 164.216C94.4773 165.054 94.8817 165.828 95.5255 166.37C96.1694 166.912 97.0009 167.178 97.84 167.112Z" fill="#FF7010"/>
<path d="M208.349 144.598L209.457 144.502C210.755 144.388 211.716 143.244 211.602 141.945L210.084 124.555C209.971 123.257 208.826 122.296 207.528 122.41L206.42 122.506C205.121 122.62 204.161 123.764 204.274 125.063L205.792 142.453C205.906 143.751 207.05 144.712 208.349 144.598Z" fill="#263238"/>
<path d="M209.648 173.874L210.76 173.773C212.063 173.656 213.025 172.504 212.907 171.201L211.336 153.745C211.219 152.442 210.067 151.48 208.764 151.597L207.652 151.698C206.348 151.815 205.387 152.967 205.504 154.27L207.075 171.726C207.193 173.029 208.344 173.991 209.648 173.874Z" fill="#263238"/>
<path d="M123.911 329.182L214.391 321.282C220.536 320.746 225.082 315.33 224.545 309.185L205.7 93.3505C205.164 87.2059 199.748 82.6598 193.603 83.1963L103.123 91.0963C96.9789 91.6328 92.4327 97.0488 92.9692 103.193L111.814 319.028C112.351 325.173 117.767 329.719 123.911 329.182Z" fill="#263238"/>
<path opacity="0.4" d="M115 315.744L220.8 306.504C221.353 306.453 221.863 306.186 222.22 305.76C222.577 305.334 222.751 304.785 222.704 304.232L204.8 98.9518C204.749 98.4004 204.483 97.8912 204.059 97.5348C203.635 97.1783 203.088 97.0034 202.536 97.0478L96.696 106.296C96.4228 106.32 96.1571 106.398 95.914 106.525C95.6709 106.651 95.4551 106.825 95.2791 107.035C95.103 107.245 94.9701 107.488 94.8879 107.75C94.8057 108.011 94.7758 108.287 94.8 108.56L112.736 313.848C112.759 314.121 112.836 314.388 112.963 314.631C113.089 314.875 113.263 315.091 113.473 315.267C113.684 315.444 113.927 315.576 114.189 315.658C114.451 315.74 114.727 315.769 115 315.744Z" fill="#FF7010"/>
<path opacity="0.3" d="M188.552 98.272L175.256 310.48L153.144 312.416L166.44 100.2L188.552 98.272Z" fill="#FF7010"/>
<path opacity="0.2" d="M160.096 91.4615L137.502 93.4343C136.979 93.48 136.591 93.9417 136.637 94.4655L136.717 95.382C136.763 95.9058 137.224 96.2933 137.748 96.2476L160.342 94.2748C160.866 94.2291 161.253 93.7674 161.208 93.2436L161.128 92.3271C161.082 91.8033 160.62 91.4158 160.096 91.4615Z" fill="white"/>
<path d="M139.04 173.696H249.128C251.988 173.704 254.728 174.844 256.75 176.866C258.772 178.888 259.912 181.628 259.92 184.488V238.488C259.912 241.348 258.772 244.089 256.75 246.112C254.728 248.136 251.988 249.277 249.128 249.288H211.032L194.08 266.24L177.128 249.288H139.04C136.178 249.279 133.436 248.139 131.413 246.115C129.389 244.092 128.248 241.35 128.24 238.488V184.488C128.248 181.627 129.389 178.886 131.413 176.863C133.437 174.841 136.179 173.702 139.04 173.696Z" fill="#FF7010"/>
<path opacity="0.3" d="M249.125 174.696L249.61 174.709C252.029 174.836 254.322 175.852 256.043 177.573C257.878 179.408 258.912 181.895 258.92 184.491V238.488C258.911 241.083 257.877 243.57 256.043 245.406C254.208 247.242 251.721 248.278 249.125 248.288H210.618L194.08 264.826L177.542 248.288H139.043C136.445 248.28 133.957 247.244 132.12 245.408C130.398 243.686 129.38 241.391 129.254 238.97L129.24 238.485V184.491C129.248 181.894 130.283 179.406 132.12 177.571C133.842 175.85 136.137 174.834 138.556 174.708L139.042 174.696H249.125Z" stroke="white" stroke-width="2"/>
<path d="M146.096 192.408V230.568C146.083 232.048 146.657 233.472 147.691 234.53C148.725 235.589 150.136 236.195 151.616 236.216H236.544C238.024 236.195 239.435 235.589 240.469 234.53C241.503 233.472 242.077 232.048 242.064 230.568V192.408C242.063 191.685 241.928 190.969 241.664 190.296C241.261 189.262 240.558 188.373 239.646 187.743C238.733 187.113 237.653 186.77 236.544 186.76H151.616C150.508 186.77 149.428 187.112 148.517 187.743C147.605 188.373 146.904 189.262 146.504 190.296C146.233 190.967 146.094 191.684 146.096 192.408Z" fill="white"/>
<path opacity="0.1" d="M146.504 190.296L187.56 208.176C189.618 209.074 191.839 209.538 194.084 209.538C196.329 209.538 198.55 209.074 200.608 208.176L241.664 190.296C241.261 189.262 240.558 188.373 239.646 187.743C238.733 187.113 237.653 186.77 236.544 186.76H151.616C150.508 186.77 149.428 187.112 148.517 187.743C147.605 188.373 146.904 189.262 146.504 190.296Z" fill="black"/>
<path d="M148.345 190.099C154.756 183.688 154.756 173.294 148.345 166.883C141.934 160.472 131.54 160.472 125.129 166.883C118.718 173.294 118.718 183.688 125.129 190.099C131.54 196.509 141.934 196.509 148.345 190.099Z" fill="#DE5753"/>
<path d="M139.904 188.496H136.08V174.096C134.666 175.411 132.981 176.399 131.144 176.992V173.528C132.324 173.094 133.422 172.464 134.392 171.664C135.484 170.851 136.318 169.74 136.792 168.464H139.896L139.904 188.496Z" fill="white"/>
<path d="M229.096 76.7358C228.527 76.7311 227.977 76.5242 227.547 76.1519C227.116 75.7797 226.831 75.2664 226.744 74.7038C225.646 67.4916 221.734 61.0088 215.865 56.6764C209.995 52.344 202.647 50.5156 195.432 51.5918C194.846 51.6071 194.275 51.4077 193.826 51.0311C193.377 50.6545 193.082 50.1267 192.995 49.5472C192.909 48.9677 193.037 48.3766 193.356 47.8852C193.675 47.3939 194.163 47.0362 194.728 46.8798C203.192 45.618 211.811 47.7645 218.695 52.8485C225.578 57.9325 230.165 65.539 231.448 73.9998C231.535 74.6226 231.375 75.255 231.001 75.7607C230.627 76.2664 230.069 76.605 229.448 76.7038C229.332 76.7259 229.214 76.7367 229.096 76.7358Z" fill="#FF7010"/>
<path d="M217.264 78.5118C216.696 78.5075 216.148 78.3017 215.717 77.931C215.286 77.5604 215.001 77.049 214.912 76.4878C214.294 72.41 212.084 68.7438 208.767 66.2933C205.449 63.8427 201.295 62.8079 197.216 63.4158C196.629 63.4334 196.057 63.2355 195.606 62.8596C195.156 62.4836 194.859 61.9557 194.771 61.3755C194.683 60.7953 194.811 60.2031 195.131 59.7108C195.45 59.2185 195.938 58.8603 196.504 58.7038C201.833 57.9078 207.26 59.2582 211.594 62.4587C215.929 65.6593 218.817 70.4486 219.624 75.7758C219.714 76.4 219.554 77.0344 219.18 77.5418C218.806 78.0493 218.247 78.3891 217.624 78.4878C217.505 78.5038 217.384 78.5118 217.264 78.5118Z" fill="#FF7010"/>
<path d="M205.44 80.2958C204.871 80.2912 204.321 80.0842 203.891 79.712C203.46 79.3398 203.175 78.8265 203.088 78.2638C203.019 77.7959 202.857 77.3462 202.614 76.9407C202.37 76.5352 202.049 76.1818 201.668 75.9008C201.288 75.6198 200.855 75.4168 200.396 75.3034C199.937 75.1899 199.46 75.1683 198.992 75.2398C198.411 75.2478 197.848 75.045 197.405 74.669C196.963 74.2931 196.672 73.7695 196.586 73.1953C196.5 72.6211 196.625 72.0352 196.938 71.5462C197.251 71.0572 197.731 70.6982 198.288 70.5358C199.377 70.3716 200.487 70.4242 201.556 70.6908C202.624 70.9574 203.629 71.4326 204.513 72.0892C205.397 72.7457 206.143 73.5706 206.707 74.5163C207.271 75.462 207.642 76.51 207.8 77.5998C207.887 78.2227 207.727 78.8551 207.353 79.3608C206.979 79.8665 206.421 80.2051 205.8 80.3038C205.68 80.313 205.559 80.3104 205.44 80.2958Z" fill="#FF7010"/>
</svg>
