<svg width="24" height="24" viewBox="0 0 24 24" fill="none" xmlns="http://www.w3.org/2000/svg">
<g clip-path="url(#clip0_239_687)">
<path d="M23.25 16.5V15H21.675C21.5775 14.5306 21.3909 14.0843 21.1252 13.6852L22.2428 12.5677L21.1823 11.5073L20.0648 12.6248C19.6656 12.3594 19.2193 12.173 18.75 12.0757V10.5H17.25V12.0757C16.7807 12.173 16.3344 12.3594 15.9352 12.6248L14.8177 11.5073L13.7573 12.5677L14.8748 13.6852C14.6091 14.0843 14.4225 14.5306 14.325 15H12.75V16.5H14.325C14.4225 16.9777 14.613 17.4218 14.874 17.8148L13.7565 18.9323L14.817 19.9928L15.9345 18.8752C16.3338 19.1409 16.7804 19.3276 17.25 19.425V21H18.75V19.425C19.2193 19.3277 19.6656 19.1413 20.0648 18.876L21.1823 19.9935L22.2428 18.933L21.1252 17.8155C21.3909 17.4162 21.5776 16.9696 21.675 16.5H23.25ZM18 18C17.4033 18 16.831 17.7629 16.409 17.341C15.9871 16.919 15.75 16.3467 15.75 15.75C15.75 15.1533 15.9871 14.581 16.409 14.159C16.831 13.7371 17.4033 13.5 18 13.5C18.5967 13.5 19.169 13.7371 19.591 14.159C20.0129 14.581 20.25 15.1533 20.25 15.75C20.25 16.3467 20.0129 16.919 19.591 17.341C19.169 17.7629 18.5967 18 18 18Z" fill="currentColor" stroke="currentColor" stroke-width="0.1"/>
<path d="M15.75 4.5C15.75 2.43225 14.0677 0.75 12 0.75C10.665 0.75 9.42075 1.4685 8.7525 2.625C8.51364 3.04065 8.35347 3.49677 8.28 3.9705C7.3956 3.33958 6.33638 3.00032 5.25 3C2.355 3 0 5.355 0 8.25C0.000949637 9.21117 0.265747 10.1536 0.765525 10.9746C1.2653 11.7957 1.98088 12.4637 2.83425 12.906C2.025 13.5945 1.5 14.607 1.5 15.75C1.5 17.8177 3.18225 19.5 5.25 19.5C5.8005 19.5 6.32025 19.374 6.79125 19.1595C6.999 21.0322 8.5725 22.5 10.5 22.5C10.9927 22.5013 11.4807 22.405 11.9359 22.2165C12.3911 22.028 12.8045 21.7512 13.152 21.402L12.0907 20.3407C11.8824 20.5504 11.6345 20.7166 11.3614 20.8297C11.0884 20.9429 10.7956 21.0008 10.5 21C9.2595 21 8.25 19.9905 8.25 18.75C8.25 17.5095 9.2595 16.5 10.5 16.5V15C9.94875 15 9.42975 15.1267 8.95875 15.3405C8.85285 14.3945 8.39114 13.5242 7.66725 12.906C8.52034 12.4635 9.23561 11.7954 9.73512 10.9744C10.2346 10.1534 10.4992 9.21101 10.5 8.25C10.5 8.13975 10.4895 8.03175 10.4827 7.923C10.9478 8.13 11.4593 8.25 12 8.25C14.0677 8.25 15.75 6.56775 15.75 4.5ZM10.05 3.375C10.2482 3.03326 10.5326 2.7495 10.8748 2.55208C11.2169 2.35467 11.6049 2.2505 12 2.25C13.2405 2.25 14.25 3.2595 14.25 4.5C14.25 5.7405 13.2405 6.75 12 6.75C10.7595 6.75 9.75 5.7405 9.75 4.5H9.7275C9.7545 4.068 9.8565 3.711 10.05 3.375ZM7.5 15.75C7.5 16.9905 6.4905 18 5.25 18C4.0095 18 3 16.9905 3 15.75C3 14.5095 4.0095 13.5 5.25 13.5C6.4905 13.5 7.5 14.5095 7.5 15.75ZM5.25 12C3.18225 12 1.5 10.3177 1.5 8.25C1.5 6.18225 3.18225 4.5 5.25 4.5C7.31775 4.5 9 6.18225 9 8.25C9 10.3177 7.31775 12 5.25 12Z" fill="currentColor" stroke="currentColor" stroke-width="0.1"/>
</g>
<defs>
<clipPath id="clip0_239_687">
<rect width="24" height="24" fill="white"/>
</clipPath>
</defs>
</svg>
