<svg width="400" height="400" viewBox="0 0 400 400" fill="none" xmlns="http://www.w3.org/2000/svg">
<path d="M400 305.92H0V306.12H400V305.92Z" fill="#EBEBEB"/>
<path d="M359.92 318.792H333.424V318.992H359.92V318.792Z" fill="#EBEBEB"/>
<path d="M218.576 316.288H208.264V316.488H218.576V316.288Z" fill="#EBEBEB"/>
<path d="M279.736 317.136H258.024V317.336H279.736V317.136Z" fill="#EBEBEB"/>
<path d="M332.624 311.368H287.736V311.568H332.624V311.368Z" fill="#EBEBEB"/>
<path d="M63.192 320.624H41.968V320.824H63.192V320.624Z" fill="#EBEBEB"/>
<path d="M88.712 320.624H70.312V320.824H88.712V320.624Z" fill="#EBEBEB"/>
<path d="M153.448 316.192H104.8V316.392H153.448V316.192Z" fill="#EBEBEB"/>
<path d="M189.6 270.24H35.128C33.9179 270.238 32.758 269.756 31.9031 268.899C31.0482 268.043 30.568 266.882 30.568 265.672V48.528C30.5785 47.3248 31.0633 46.1744 31.9171 45.3266C32.7709 44.4788 33.9248 44.0021 35.128 44H189.6C190.811 44 191.973 44.4813 192.83 45.3379C193.687 46.1946 194.168 47.3565 194.168 48.568V265.672C194.168 266.884 193.687 268.045 192.83 268.902C191.973 269.759 190.811 270.24 189.6 270.24ZM35.128 44.16C33.9709 44.1621 32.862 44.6233 32.0445 45.4422C31.2271 46.2611 30.768 47.3709 30.768 48.528V265.672C30.768 266.829 31.2271 267.939 32.0445 268.758C32.862 269.577 33.9709 270.038 35.128 270.04H189.6C190.758 270.038 191.868 269.577 192.686 268.758C193.505 267.94 193.966 266.83 193.968 265.672V48.528C193.966 47.3702 193.505 46.2604 192.686 45.4417C191.868 44.623 190.758 44.1621 189.6 44.16H35.128Z" fill="#EBEBEB"/>
<path d="M362.648 270.24H208.168C206.957 270.238 205.796 269.756 204.94 268.9C204.084 268.044 203.602 266.883 203.6 265.672V48.528C203.613 47.3241 204.099 46.1737 204.954 45.3261C205.809 44.4785 206.964 44.002 208.168 44H362.648C363.85 44.0042 365.002 44.4818 365.854 45.3294C366.706 46.177 367.189 47.3262 367.2 48.528V265.672C367.2 266.881 366.721 268.04 365.868 268.896C365.014 269.753 363.857 270.236 362.648 270.24ZM208.168 44.16C207.01 44.1621 205.9 44.623 205.082 45.4417C204.263 46.2604 203.802 47.3702 203.8 48.528V265.672C203.802 266.83 204.263 267.94 205.082 268.758C205.9 269.577 207.01 270.038 208.168 270.04H362.648C363.806 270.038 364.916 269.577 365.734 268.758C366.553 267.94 367.014 266.83 367.016 265.672V48.528C367.014 47.3702 366.553 46.2604 365.734 45.4417C364.916 44.623 363.806 44.1621 362.648 44.16H208.168Z" fill="#EBEBEB"/>
<path d="M242.304 216.8C242.8 216.8 243.304 216.816 243.816 216.848C246.992 217.076 250.078 218.003 252.853 219.564C255.629 221.124 258.025 223.278 259.87 225.873C261.716 228.468 262.965 231.438 263.528 234.572C264.091 237.706 263.955 240.925 263.128 244C260.771 253.173 259.633 262.617 259.744 272.088V299.672C259.745 300.147 259.652 300.618 259.471 301.058C259.29 301.498 259.024 301.897 258.688 302.234C258.352 302.571 257.953 302.838 257.514 303.02C257.074 303.202 256.604 303.296 256.128 303.296H168.568V216.8H242.304Z" fill="#F0F0F0"/>
<path d="M147.008 238.4C146.976 235.306 147.61 232.242 148.866 229.414C150.121 226.586 151.97 224.061 154.286 222.01C156.602 219.959 159.332 218.429 162.291 217.524C165.249 216.619 168.368 216.361 171.435 216.766C174.502 217.171 177.447 218.23 180.069 219.872C182.692 221.514 184.931 223.7 186.635 226.283C188.339 228.865 189.469 231.783 189.947 234.84C190.425 237.897 190.242 241.021 189.408 244C187.058 253.175 185.923 262.618 186.032 272.088V299.672C186.032 300.633 185.65 301.555 184.971 302.235C184.291 302.914 183.369 303.296 182.408 303.296H154.744C154.268 303.296 153.798 303.202 153.358 303.02C152.919 302.838 152.52 302.571 152.184 302.234C151.848 301.898 151.582 301.498 151.401 301.058C151.22 300.619 151.127 300.148 151.128 299.672V270.472C151.208 261.588 150.083 252.734 147.784 244.152C147.27 242.278 147.009 240.344 147.008 238.4Z" fill="#F5F5F5"/>
<path d="M198.28 303.296H276.872V250.792H198.28V303.296Z" fill="#F0F0F0"/>
<path d="M283.944 184.352H356.488C365.504 184.352 371.88 191.664 370.736 200.672L362.504 262.664H257.32L265.552 200.672C266.696 191.664 274.928 184.352 283.944 184.352Z" fill="#E0E0E0"/>
<path d="M256.104 184.352H330.224C338.808 184.352 344.88 191.312 343.824 199.888L335.488 262.664H230.264L238.6 199.888C239.688 191.312 247.528 184.352 256.104 184.352Z" fill="#F5F5F5"/>
<path d="M271.704 267.376H199.264C198.642 267.376 198.026 267.253 197.452 267.015C196.877 266.777 196.355 266.429 195.915 265.989C195.475 265.549 195.126 265.027 194.888 264.452C194.65 263.878 194.528 263.262 194.528 262.64V250.736C194.528 249.48 195.027 248.275 195.915 247.387C196.803 246.499 198.008 246 199.264 246H271.704C272.08 246 272.44 246.149 272.705 246.415C272.971 246.68 273.12 247.04 273.12 247.416V265.96C273.12 266.336 272.971 266.696 272.705 266.961C272.44 267.227 272.08 267.376 271.704 267.376Z" fill="#E0E0E0"/>
<path d="M349.6 216.8C350.101 216.8 350.605 216.816 351.112 216.848C354.286 217.079 357.369 218.009 360.142 219.571C362.914 221.132 365.307 223.287 367.15 225.882C368.993 228.476 370.24 231.445 370.802 234.577C371.364 237.709 371.226 240.927 370.4 244C368.05 253.174 366.915 262.618 367.024 272.088V299.672C367.024 300.633 366.642 301.555 365.963 302.234C365.283 302.914 364.361 303.296 363.4 303.296H275.848V216.8H349.6Z" fill="#F0F0F0"/>
<path d="M254.28 238.4C254.248 235.306 254.882 232.242 256.138 229.414C257.393 226.586 259.242 224.061 261.558 222.01C263.874 219.959 266.604 218.429 269.563 217.524C272.521 216.619 275.64 216.361 278.707 216.766C281.774 217.171 284.719 218.23 287.341 219.872C289.964 221.514 292.203 223.7 293.907 226.283C295.611 228.865 296.741 231.783 297.219 234.84C297.697 237.897 297.514 241.021 296.68 244C294.323 253.174 293.185 262.617 293.296 272.088V299.672C293.297 300.148 293.204 300.619 293.023 301.058C292.842 301.498 292.576 301.898 292.24 302.234C291.904 302.571 291.505 302.838 291.066 303.02C290.626 303.202 290.156 303.296 289.68 303.296H262.024C261.063 303.296 260.141 302.914 259.461 302.235C258.782 301.555 258.4 300.633 258.4 299.672V270.472C258.479 261.589 257.357 252.735 255.064 244.152C254.543 242.279 254.28 240.344 254.28 238.4Z" fill="#F5F5F5"/>
<path d="M170.112 305.92H348.04C348.736 305.92 349.403 305.643 349.895 305.151C350.388 304.659 350.664 303.992 350.664 303.296H167.464C167.464 303.643 167.533 303.986 167.666 304.306C167.799 304.626 167.995 304.916 168.241 305.16C168.487 305.404 168.779 305.597 169.1 305.727C169.422 305.858 169.765 305.923 170.112 305.92Z" fill="#E0E0E0"/>
<path d="M70.152 167.24L320.912 167.24V64.0882L70.152 64.0882V167.24Z" fill="#E6E6E6"/>
<path d="M66.976 167.24L319.424 167.24V64.0882L66.976 64.0882V167.24Z" fill="#F5F5F5"/>
<path d="M70.152 171.152L320.912 171.152V167.248L70.152 167.248V171.152Z" fill="#E6E6E6"/>
<path d="M64.144 171.152L309.664 171.152V167.248L64.144 167.248V171.152Z" fill="#F5F5F5"/>
<path d="M315 161.336V70.0078L71.416 70.0078V161.336H315Z" fill="#FAFAFA"/>
<path d="M72.04 161.328V70H71.408V161.328H72.04Z" fill="#E6E6E6"/>
<path d="M299.264 161.328L282.864 70H261.368L277.768 161.328H299.264Z" fill="white"/>
<path d="M211.888 161.328L195.488 70H185.776L202.176 161.328H211.888Z" fill="white"/>
<path d="M311.824 156.784V60.8C311.824 60.5305 311.605 60.312 311.336 60.312H311.296C311.026 60.312 310.808 60.5305 310.808 60.8V156.784C310.808 157.054 311.026 157.272 311.296 157.272H311.336C311.605 157.272 311.824 157.054 311.824 156.784Z" fill="#EBEBEB"/>
<path opacity="0.5" d="M64.648 128.824L322.624 128.824V60.3202L64.648 60.3202V128.824Z" fill="#E6E6E6"/>
<path d="M64.648 62.1362L322.624 62.1362V60.3202L64.648 60.3202V62.1362Z" fill="#E0E0E0"/>
<path d="M64.832 61.1118L322.448 61.1118C322.832 61.1118 323.144 60.8002 323.144 60.4158V60.2158C323.144 59.8314 322.832 59.5198 322.448 59.5198L64.832 59.5198C64.4476 59.5198 64.136 59.8314 64.136 60.2158V60.4158C64.136 60.8002 64.4476 61.1118 64.832 61.1118Z" fill="#EBEBEB"/>
<path d="M64.52 129.2H322.768C322.868 129.198 322.964 129.156 323.034 129.085C323.105 129.013 323.144 128.916 323.144 128.816C323.144 128.716 323.104 128.621 323.034 128.55C322.963 128.48 322.868 128.44 322.768 128.44H64.52C64.4195 128.44 64.323 128.479 64.2513 128.55C64.1795 128.62 64.1381 128.715 64.136 128.816C64.138 128.917 64.1791 129.014 64.2507 129.085C64.3223 129.157 64.4188 129.198 64.52 129.2Z" fill="white"/>
<path d="M81.6 225.768C72.848 213.392 52 208.8 44.8 200.968C35.352 190.72 35.408 175.368 43.448 169.816C50.44 165.016 73.592 197.576 76.2 201.216C85.168 213.728 87.776 223.024 89.456 232.024C89.264 224.368 89.08 217.344 88.928 211.928C88.44 194.248 87.824 188.56 87.544 186.816C86.584 185.96 85.44 184.96 84.776 184.416C79.176 179.896 66.784 176.416 60.576 169.848C51.504 160.248 53.288 145.144 58.176 142.384C65.152 138.448 79.44 147.864 83.944 159.184C87.376 167.808 88.616 177.048 89.272 188.336C89.376 190.072 90.016 196.512 90.368 205.48C92.264 195.824 96.032 189.36 103.024 183.328C111.624 175.912 119.024 166.888 126.136 168.048C133.248 169.208 129.408 181.168 123.8 189.552C118.808 197.024 94.2 204.472 90.552 210.48C90.984 222.64 91.352 238.056 91.632 252.4C93.576 244.992 92.24 244.4 100.2 233.024C104.928 226.272 124.32 217.96 126.6 222.624C128.88 227.288 125.392 236.016 118.072 242.152C112.168 247.104 99.064 247.096 96.032 250.152C95.328 250.872 92.992 253.616 91.656 255.192C91.968 272.712 92.112 288.176 91.952 293.448L90.68 293.504C90.744 292.144 90.592 283.232 90.344 271.44C87.144 265.16 65.736 261.496 59.144 254.976C52.224 248.144 47.248 240.176 50.216 234.84C52.696 230.392 72.208 236.44 80.136 243.816C85.408 248.72 88.632 253.968 90.136 261.008C89.952 252.968 89.752 244.344 89.552 236.208C87.92 234.16 84.256 229.48 81.6 225.768Z" fill="#E6E6E6"/>
<path d="M110.344 305.92H69.2321C68.2149 305.973 67.2086 305.688 66.3705 305.11C65.5325 304.531 64.9099 303.69 64.6001 302.72L61.6801 290.4H117.888L114.968 302.704C114.663 303.677 114.043 304.52 113.206 305.102C112.369 305.684 111.362 305.972 110.344 305.92Z" fill="#F0F0F0"/>
<path d="M119.064 295.144H60.504C59.8733 295.182 59.2498 294.993 58.7475 294.609C58.2451 294.226 57.8975 293.674 57.768 293.056L56.568 284C56.384 282.6 57.664 281.376 59.312 281.376H120.264C121.864 281.376 123.184 282.6 123 284L121.8 293.096C121.662 293.707 121.311 294.249 120.81 294.624C120.308 295 119.689 295.184 119.064 295.144Z" fill="#F0F0F0"/>
<path d="M200 342.048C285.666 342.048 355.112 337.994 355.112 332.992C355.112 327.991 285.666 323.936 200 323.936C114.334 323.936 44.8879 327.991 44.8879 332.992C44.8879 337.994 114.334 342.048 200 342.048Z" fill="#F5F5F5"/>
<path d="M172.592 108.736C172.84 108.464 175.384 105.864 174.44 104.288C173.64 105.944 172.104 108.456 167.4 108.872C167.924 107.445 168.195 105.937 168.2 104.416C167.435 106.15 166.28 107.683 164.824 108.896C161.907 108.679 159.028 108.109 156.248 107.2C144.392 108.288 144.104 98.9521 144.008 96.8721C143.701 98.2637 143.564 99.6875 143.6 101.112C141.04 97.0481 141.448 90.8801 144.824 89.7281C145.44 76.6081 154.92 75.4401 157.304 74.9201C161.608 73.9761 169.12 70.3681 172.84 78.1201C178.064 80.9281 180.04 87.5281 177.808 97.5921C182.288 104.8 173.064 108.552 172.592 108.736Z" fill="#263238"/>
<path d="M155.512 332.984C161.704 332.984 162.52 332.888 166 332.768C168.976 332.664 169.688 333.032 172.088 332.984C174.088 332.936 174.008 331.024 173.392 328.824C173.088 327.72 172.592 325.376 172.184 323.592L162.776 324.576C162.035 325.899 160.982 327.022 159.71 327.847C158.437 328.672 156.983 329.175 155.472 329.312C152.136 329.76 153.048 332.984 155.512 332.984Z" fill="#263238"/>
<path d="M150.44 310.576C154.104 305.72 155.032 303.856 157.008 301.056C158.696 298.656 159.024 299.256 160.824 296.888C162.008 295.288 160.912 293.096 159.224 292.608C157.641 292.289 156.09 291.826 154.592 291.224L148.416 295.776C149.544 298.696 149.672 305.376 147.136 309.256C145.304 312.04 148.96 312.52 150.44 310.576Z" fill="#263238"/>
<path d="M127.128 162.136C127.128 162.136 109.336 213 107.032 231.616C104.784 249.824 148.88 297.168 148.88 297.168C149.944 297.968 154.36 292.48 154.608 291.04C154.608 291.04 137.104 252.48 124.912 232.2C151.312 193.088 155.896 166.696 155.896 166.696L127.128 162.136Z" fill="#FF7010"/>
<path d="M135.752 163.504C135.752 163.504 145.696 214.704 149.488 239.376C153.488 265.264 163.776 307.648 162.776 324.576C164.224 325.424 169.552 323.992 172.376 323.096C172.376 323.096 179.696 267.568 167.072 241.936C175.24 182.032 160.104 167.368 160.104 167.368L135.752 163.504Z" fill="#FF7010"/>
<path d="M162.064 317.176C162.064 318.696 161.96 321.344 161.736 323.368C161.656 324.096 161.936 324.776 162.344 324.896C165.784 325.872 170.768 324.448 172.352 323.944C172.656 323.848 172.88 323.424 172.928 322.88L173.44 317.088C173.512 316.288 173.168 315.576 172.712 315.592L162.776 315.936C162.4 315.952 162.08 316.488 162.064 317.176Z" fill="#263238"/>
<path d="M143.448 291.728C144.408 293.032 146.104 295.352 147.328 297.104C147.736 297.68 148.336 297.984 148.704 297.816C151.464 296.536 154.752 293.016 155.816 291.88C156.024 291.648 155.976 291.176 155.696 290.712L152.672 285.712C152.264 285.032 151.528 284.632 151.152 284.912L143.288 290.352C142.968 290.56 143.032 291.2 143.448 291.728Z" fill="#263238"/>
<path d="M138.44 124.096C138.16 123.688 138 123.432 137.8 123.112L137.248 122.2C136.896 121.6 136.568 120.992 136.248 120.384C135.608 119.168 135.011 117.939 134.456 116.696C133.347 114.199 132.414 111.627 131.664 109C130.898 106.361 130.331 103.668 129.968 100.944C129.768 99.576 129.656 98.1999 129.576 96.8159C129.576 96.1199 129.512 95.4319 129.52 94.736V93.696C129.52 93.248 129.52 92.76 129.592 92.352C129.748 90.846 130.039 89.3572 130.464 87.9039C130.84 86.5439 131.264 85.264 131.728 84.008C132.648 81.496 133.688 79.104 134.776 76.752C136.967 72.0785 139.43 67.5374 142.152 63.152C142.482 62.6301 142.993 62.2478 143.587 62.0776C144.18 61.9074 144.816 61.9611 145.373 62.2286C145.929 62.4961 146.368 62.9587 146.606 63.5286C146.844 64.0985 146.865 64.7359 146.664 65.32V65.368C144.992 70.056 143.344 74.808 141.824 79.488C141.072 81.84 140.36 84.184 139.776 86.488C139.48 87.632 139.208 88.7759 138.976 89.8799C138.784 90.8723 138.669 91.8779 138.632 92.888C138.632 93.104 138.632 93.248 138.632 93.432L138.704 94.288C138.744 94.848 138.824 95.416 138.88 95.984C139.048 97.112 139.208 98.2399 139.44 99.36C139.891 101.616 140.481 103.841 141.208 106.024C141.937 108.222 142.784 110.38 143.744 112.488C144.216 113.552 144.72 114.592 145.248 115.608L146.048 117.104L146.456 117.832L146.824 118.448L146.96 118.672C147.601 119.805 147.781 121.141 147.463 122.403C147.145 123.665 146.353 124.756 145.251 125.45C144.15 126.144 142.824 126.387 141.548 126.129C140.272 125.871 139.145 125.131 138.4 124.064L138.44 124.096Z" fill="#B55B52"/>
<path d="M151.112 60.936C151.001 62.1082 150.463 63.1987 149.6 64L145.64 67.416C145.37 67.6544 145.033 67.8038 144.675 67.8439C144.317 67.8839 143.956 67.8128 143.64 67.64L141.472 66.52C141.359 63.4231 142.051 60.3497 143.48 57.6L144.456 53.832C144.473 53.6921 144.523 53.5583 144.602 53.4413C144.681 53.3244 144.786 53.2277 144.909 53.1591C145.032 53.0905 145.17 53.052 145.311 53.0466C145.452 53.0412 145.592 53.0691 145.72 53.128L150.896 55.824C151.144 55.9791 151.34 56.2036 151.461 56.4697C151.582 56.7357 151.622 57.0315 151.576 57.32L151.112 60.936Z" fill="#B55B52"/>
<path d="M141.208 130.304C154.312 125.864 148.064 116.296 144.52 107.28C141.08 104.672 130.92 115.4 130.92 115.4C130.92 115.4 128.336 129.312 141.208 130.304Z" fill="#263238"/>
<path d="M131.408 122.984C130.426 127.989 129.7 133.041 129.232 138.12C128.432 144.72 127.88 151.24 127.128 162.12L160.136 167.352C160.936 157.944 163.704 147.52 172.936 127.536C173.458 126.497 173.741 125.355 173.764 124.193C173.788 123.031 173.551 121.878 173.072 120.819C172.593 119.76 171.883 118.821 170.994 118.072C170.106 117.323 169.061 116.781 167.936 116.488C166.648 116.152 165.28 115.824 163.864 115.528C158.933 114.373 153.925 113.571 148.88 113.128C147.224 113.024 145.504 112.96 143.856 112.928C140.937 112.9 138.099 113.888 135.828 115.722C133.557 117.557 131.994 120.124 131.408 122.984Z" fill="#263238"/>
<path d="M165.496 98.5039C163.424 103.12 160.424 111.696 163.048 115.416C163.048 115.416 158.592 114 147.944 118.464C145.768 113.992 148.064 113.04 148.064 113.04C153.736 112.624 154.528 108.656 154.464 104.808L165.496 98.5039Z" fill="#B55B52"/>
<path d="M150.168 117.6C153.296 118.56 153.528 123.544 153.528 123.544C153.528 123.544 162.064 119.328 165.096 115.888C164.218 115.191 163.377 114.448 162.576 113.664C162.576 113.664 152.328 116 150.168 117.6Z" fill="white"/>
<path d="M147.2 116.584C147.2 116.584 144.32 116.896 142.712 120.584C143.096 113.432 146.568 112.76 146.568 112.76C147.518 112.394 148.57 112.394 149.52 112.76C148.744 113.02 148.085 113.547 147.66 114.247C147.235 114.947 147.072 115.775 147.2 116.584Z" fill="white"/>
<path opacity="0.2" d="M160.992 101.072L154.464 104.8C154.494 105.704 154.443 106.609 154.312 107.504C156.432 107.504 159.784 105.752 160.504 103.664C160.823 102.837 160.989 101.959 160.992 101.072Z" fill="black"/>
<path d="M171.144 89.4723C168.448 97.0323 167.464 100.272 162.432 103.304C154.856 107.864 146.144 103.44 146.528 95.3603C146.864 88.0963 151.216 76.9603 159.648 75.6563C168 74.4003 173.84 81.9203 171.144 89.4723Z" fill="#B55B52"/>
<path d="M169.048 78.8718C164.968 81.3198 165.104 94.4878 171.888 93.5278C178.176 85.9118 173.424 76.5438 169.048 78.8718Z" fill="#263238"/>
<path d="M172.848 78.0479C168.136 85.4479 150.328 79.0399 146.128 75.5119C149.152 76.4159 154.248 75.6239 157.928 74.7119C161.608 73.7999 171.808 68.9999 172.848 78.0479Z" fill="#263238"/>
<path d="M149.152 74.0641C154.228 75.3494 159.56 75.2082 164.56 73.6561L169.944 73.216C166.016 70.624 155.36 73.9601 149.152 74.0641Z" fill="#263238"/>
<path d="M160.992 89.2C160.792 89.84 160.296 90.28 159.88 90.184C159.464 90.088 159.28 89.488 159.48 88.84C159.68 88.192 160.184 87.752 160.6 87.856C161.016 87.96 161.192 88.552 160.992 89.2Z" fill="#263238"/>
<path d="M152.936 87.0401C152.736 87.6881 152.232 88.1281 151.816 88.0321C151.4 87.9361 151.224 87.3281 151.424 86.6881C151.624 86.0481 152.12 85.6001 152.536 85.6961C152.952 85.7921 153.128 86.4001 152.936 87.0401Z" fill="#263238"/>
<path d="M152.712 85.7761L151.32 84.9761C151.32 84.9761 151.728 86.4001 152.712 85.7761Z" fill="#263238"/>
<path d="M154.976 89.04C153.949 90.3753 152.758 91.5767 151.432 92.616C152 93.6 153.6 93.6 153.6 93.6L154.976 89.04Z" fill="#A02724"/>
<path d="M156.504 96.8003C156.135 96.7823 155.768 96.7315 155.408 96.6483C155.383 96.642 155.36 96.6305 155.34 96.6148C155.32 96.599 155.303 96.5791 155.291 96.5565C155.279 96.534 155.272 96.5091 155.27 96.4836C155.268 96.458 155.271 96.4324 155.28 96.4083C155.295 96.3587 155.328 96.3165 155.372 96.2899C155.417 96.2632 155.469 96.2541 155.52 96.2643C156.336 96.4591 157.185 96.4683 158.004 96.291C158.824 96.1138 159.594 95.7547 160.256 95.2403C160.293 95.2036 160.344 95.1831 160.396 95.1831C160.448 95.1831 160.499 95.2036 160.536 95.2403C160.554 95.2581 160.568 95.2793 160.578 95.3026C160.587 95.326 160.592 95.351 160.592 95.3763C160.592 95.4015 160.587 95.4266 160.578 95.4499C160.568 95.4732 160.554 95.4944 160.536 95.5123C159.396 96.4232 157.961 96.8817 156.504 96.8003Z" fill="#263238"/>
<path d="M171.712 96.7999C171.183 97.4575 170.528 98.0039 169.787 98.4075C169.046 98.8112 168.232 99.0642 167.392 99.1519C165.216 99.3359 164.672 97.1359 165.72 95.1519C166.672 93.3759 168.92 91.1519 170.904 91.8719C172.888 92.5919 173.072 95.0959 171.712 96.7999Z" fill="#B55B52"/>
<path d="M164.08 84.4723C164.029 84.4657 163.981 84.4479 163.938 84.4202C163.895 84.3925 163.859 84.3557 163.832 84.3123C163.579 83.9013 163.227 83.5611 162.807 83.3233C162.387 83.0855 161.914 82.9578 161.432 82.9523C161.382 82.9533 161.332 82.9444 161.286 82.926C161.239 82.9076 161.197 82.88 161.161 82.845C161.125 82.81 161.097 82.7682 161.077 82.722C161.058 82.6759 161.048 82.6263 161.048 82.5763C161.054 82.4707 161.099 82.3712 161.174 82.2972C161.25 82.2232 161.35 82.1801 161.456 82.1763C162.06 82.1798 162.654 82.3365 163.181 82.6317C163.709 82.9269 164.153 83.351 164.472 83.8643C164.523 83.9551 164.538 84.0622 164.512 84.1633C164.487 84.2645 164.424 84.3522 164.336 84.4083C164.26 84.4568 164.17 84.4793 164.08 84.4723Z" fill="#263238"/>
<path d="M151.312 82.8C151.264 82.8002 151.216 82.7904 151.172 82.7711C151.128 82.7518 151.088 82.7235 151.056 82.688C150.983 82.6145 150.942 82.5153 150.942 82.412C150.942 82.3086 150.983 82.2094 151.056 82.136C151.503 81.6871 152.047 81.347 152.646 81.1417C153.245 80.9364 153.884 80.8715 154.512 80.952C154.561 80.9621 154.607 80.9822 154.648 81.0112C154.689 81.0401 154.723 81.0772 154.748 81.1201C154.774 81.163 154.79 81.2107 154.796 81.2603C154.803 81.3098 154.798 81.3601 154.784 81.408C154.756 81.509 154.691 81.5961 154.602 81.6522C154.514 81.7084 154.407 81.7297 154.304 81.712C153.806 81.6551 153.301 81.7127 152.828 81.8805C152.355 82.0482 151.927 82.3216 151.576 82.68C151.504 82.7486 151.411 82.7909 151.312 82.8Z" fill="#263238"/>
<path d="M160.8 87.9362L159.408 87.1362C159.408 87.1362 159.792 88.5202 160.8 87.9362Z" fill="#263238"/>
<path d="M151.288 165.672L152.936 163.808C153.243 163.461 153.628 163.192 154.059 163.024C154.49 162.856 154.955 162.793 155.416 162.84L159.776 163.304C160.634 163.392 161.459 163.684 162.18 164.158C162.901 164.631 163.498 165.271 163.92 166.024L164.456 166.968C161.928 170.256 156.776 171.944 156.776 171.944L155.36 172.592C155.075 172.728 154.767 172.806 154.452 172.822C154.137 172.839 153.822 172.793 153.525 172.687C153.227 172.582 152.954 172.419 152.72 172.207C152.486 171.996 152.295 171.741 152.16 171.456L150.84 168.672C150.619 168.182 150.543 167.638 150.623 167.106C150.702 166.574 150.933 166.076 151.288 165.672Z" fill="#B55B52"/>
<path d="M176 126.84C176.272 127.48 176.48 128 176.704 128.568C176.928 129.136 177.112 129.688 177.312 130.248C177.704 131.368 178.112 132.488 178.424 133.616C179.104 135.872 179.696 138.168 180.176 140.496C180.67 142.847 181.033 145.224 181.264 147.616C181.5 150.073 181.558 152.543 181.44 155.008V155.264C181.427 155.502 181.39 155.738 181.328 155.968C180.915 157.446 180.177 158.812 179.168 159.968C178.377 160.885 177.486 161.712 176.512 162.432C174.833 163.653 173.022 164.681 171.112 165.496C169.344 166.268 167.526 166.923 165.672 167.456C163.834 167.996 161.964 168.418 160.072 168.72C159.48 168.819 158.871 168.705 158.356 168.396C157.84 168.088 157.451 167.606 157.259 167.037C157.066 166.468 157.083 165.849 157.305 165.291C157.527 164.733 157.941 164.273 158.472 163.992L158.584 163.928C160.064 163.128 161.648 162.328 163.128 161.464C164.608 160.6 166.072 159.736 167.424 158.808C168.705 157.964 169.905 157.002 171.008 155.936C171.435 155.524 171.811 155.062 172.128 154.56C172.368 154.152 172.432 153.864 172.384 153.832L172.264 154.792C172.164 152.78 171.956 150.774 171.64 148.784C171.288 146.752 170.84 144.72 170.36 142.68C169.88 140.64 169.264 138.608 168.632 136.584C168.32 135.576 167.992 134.568 167.64 133.568L167.112 132.088L166.608 130.688L166.536 130.496C166.051 129.241 166.085 127.845 166.629 126.615C167.174 125.384 168.185 124.421 169.44 123.936C170.695 123.451 172.091 123.485 173.321 124.029C174.552 124.574 175.515 125.585 176 126.84Z" fill="#B55B52"/>
<path d="M167.344 116.352C172.768 117.296 174.936 120.352 179.176 131.352C177.08 135.392 167.56 139.112 167.56 139.112C167.56 139.112 162.704 123.544 167.344 116.352Z" fill="#263238"/>
<path d="M287.112 318.8L294.752 316.704L290.576 298.784L282.936 300.88L287.112 318.8Z" fill="#FF8B7B"/>
<path d="M293.704 313.52L285.32 315.672C285.169 315.709 285.037 315.799 284.946 315.925C284.855 316.051 284.812 316.205 284.824 316.36L285.4 323.496C285.415 323.673 285.469 323.844 285.557 323.997C285.645 324.151 285.766 324.283 285.911 324.386C286.055 324.488 286.221 324.557 286.395 324.588C286.569 324.62 286.749 324.613 286.92 324.568C289.928 323.768 294.248 322.44 298.048 321.464C302.496 320.32 302.096 320.608 307.304 319.272C310.456 318.472 310.352 315.088 308.944 315.144C302.544 315.384 301.904 315.472 295.736 313.64C295.082 313.418 294.38 313.376 293.704 313.52Z" fill="#263238"/>
<path opacity="0.2" d="M290.576 298.784L292.728 308.024L285.088 310.12L282.936 300.88L290.576 298.784Z" fill="black"/>
<path d="M295.2 313.88C295.165 313.878 295.132 313.866 295.105 313.844C295.078 313.823 295.058 313.793 295.048 313.76C295.034 313.724 295.032 313.684 295.042 313.647C295.052 313.61 295.074 313.576 295.104 313.552C295.416 313.28 298.184 310.896 299.224 311.152C299.322 311.179 299.411 311.231 299.482 311.305C299.552 311.378 299.601 311.469 299.624 311.568C299.676 311.733 299.69 311.907 299.663 312.078C299.637 312.249 299.571 312.411 299.472 312.552C298.776 313.52 296.512 313.784 295.224 313.848L295.2 313.88ZM299.04 311.536C298.424 311.488 296.88 312.56 295.776 313.464C297.536 313.312 298.784 312.912 299.168 312.368C299.234 312.275 299.278 312.169 299.296 312.056C299.314 311.944 299.306 311.829 299.272 311.72C299.263 311.68 299.244 311.643 299.215 311.614C299.187 311.584 299.151 311.563 299.112 311.552L299.04 311.536Z" fill="#FF7010"/>
<path d="M295.2 313.88C295.172 313.864 295.148 313.842 295.13 313.816C295.112 313.79 295.1 313.76 295.096 313.728C295.096 313.64 294.864 311.488 295.672 310.424C295.899 310.117 296.238 309.913 296.616 309.856C297.128 309.776 297.328 309.992 297.416 310.192C297.736 310.992 296.248 313.192 295.4 313.848C295.378 313.879 295.344 313.899 295.307 313.905C295.269 313.911 295.231 313.902 295.2 313.88ZM296.8 310.208H296.608C296.328 310.254 296.078 310.409 295.912 310.64C295.481 311.455 295.3 312.379 295.392 313.296C296.192 312.496 297.2 310.832 296.992 310.328C297.016 310.304 296.992 310.224 296.8 310.208Z" fill="#FF7010"/>
<path d="M261.032 228.888C243.768 191.008 231.392 175.528 231.112 155.112L258.616 150.08C258.616 150.08 280.008 202.008 282.264 225.768C284.608 250.472 293.888 302.28 293.888 302.28L281.344 304.68C281.344 304.68 261.648 256.864 261.032 228.888Z" fill="#263238"/>
<path opacity="0.2" d="M233.712 170.672C236.872 180.84 242.736 191.592 250.344 206.672C249 188.984 243.296 168.36 233.712 170.672Z" fill="black"/>
<path d="M295 298.608L295.304 304.168L281.736 307.824L279.936 302.944L295 298.608Z" fill="#263238"/>
<path d="M220.832 307.96L220.208 326.36L229.008 326.232L229.632 307.832L220.832 307.96Z" fill="#FF8B7B"/>
<path d="M228.8 323.832L220.152 323.968C220.001 323.969 219.855 324.026 219.743 324.128C219.63 324.23 219.56 324.369 219.544 324.52L218.792 331.6C218.778 331.778 218.8 331.958 218.859 332.127C218.918 332.296 219.011 332.451 219.133 332.582C219.255 332.713 219.403 332.817 219.567 332.887C219.732 332.958 219.909 332.994 220.088 332.992C223.208 332.888 224.184 332.632 228.088 332.576C232.672 332.504 230.56 332.688 235.936 332.576C239.184 332.52 239.704 329.232 238.336 328.936C233.928 328.016 232.736 326.264 230.792 324.392C230.222 323.961 229.511 323.761 228.8 323.832Z" fill="#263238"/>
<path opacity="0.2" d="M220.832 307.96L220.504 317.448L229.312 317.32L229.632 307.84L220.832 307.96Z" fill="black"/>
<path d="M227.2 324.432C227.166 324.434 227.131 324.426 227.102 324.409C227.072 324.392 227.048 324.366 227.032 324.336C227.009 324.304 226.997 324.267 226.997 324.228C226.997 324.189 227.009 324.151 227.032 324.12C227.304 323.816 229.696 321.168 230.792 321.328C230.895 321.34 230.992 321.379 231.075 321.441C231.158 321.503 231.223 321.585 231.264 321.68C231.343 321.83 231.385 321.998 231.385 322.168C231.385 322.338 231.343 322.505 231.264 322.656C230.728 323.688 228.488 324.216 227.208 324.432H227.2ZM230.688 321.696C230.056 321.696 228.68 322.952 227.72 323.96C229.456 323.6 230.648 323.064 230.92 322.488C230.973 322.388 231.001 322.277 231.001 322.164C231.001 322.051 230.973 321.939 230.92 321.84C230.906 321.801 230.881 321.767 230.848 321.742C230.816 321.716 230.777 321.701 230.736 321.696H230.688Z" fill="#FF7010"/>
<path d="M227.2 324.432C227.167 324.423 227.138 324.406 227.114 324.382C227.09 324.358 227.073 324.329 227.064 324.296C227.064 324.208 226.472 322.136 227.12 321.008C227.207 320.841 227.329 320.695 227.476 320.578C227.624 320.461 227.794 320.376 227.976 320.328C228.48 320.192 228.712 320.384 228.816 320.568C229.272 321.368 228.12 323.632 227.376 324.376C227.356 324.403 227.328 324.422 227.297 324.432C227.265 324.442 227.232 324.442 227.2 324.432ZM228.216 320.664C228.152 320.655 228.088 320.655 228.024 320.664C227.891 320.697 227.766 320.759 227.658 320.844C227.55 320.93 227.462 321.038 227.4 321.16C227.092 322.014 227.056 322.941 227.296 323.816C228 322.92 228.72 321.2 228.44 320.728C228.456 320.728 228.416 320.656 228.248 320.664H228.216Z" fill="#FF7010"/>
<path d="M220.944 235.12C218.448 206.752 211.512 178.952 213.824 158.04L242.624 153.24C242.624 153.24 246.768 211.872 243.608 236.04C240.328 261.168 231.792 311.648 231.792 311.648L218.992 311.824C218.992 311.824 217.552 262.88 220.944 235.12Z" fill="#263238"/>
<path d="M233.616 308.776L232.784 314.248L218.44 314.504L217.632 309.328L233.616 308.776Z" fill="#263238"/>
<path d="M239.328 78.4001C241.728 79.1361 244.344 79.9121 246.864 80.6321C249.384 81.3521 251.944 82.0321 254.464 82.6721C256.984 83.3121 259.512 83.8561 261.968 84.2721C263.192 84.4881 264.408 84.6401 265.576 84.7761C266.638 84.898 267.707 84.9461 268.776 84.9201L266.264 85.8321C266.06 85.9866 265.907 86.1983 265.824 86.4401C265.824 86.5521 265.888 86.4401 265.952 86.2081C266.089 85.3549 266.089 84.4853 265.952 83.6321C265.606 81.2354 265.038 78.8759 264.256 76.5841C263.456 74.1361 262.536 71.6641 261.552 69.2001C260.568 66.7361 259.48 64.2321 258.44 61.8241L258.4 61.7361C258.116 61.0688 258.083 60.321 258.308 59.6314C258.532 58.9417 258.999 58.3568 259.622 57.9849C260.245 57.613 260.981 57.4793 261.695 57.6086C262.409 57.7379 263.051 58.1214 263.504 58.6881C265.256 60.9287 266.893 63.257 268.408 65.6641C269.951 68.0898 271.361 70.5975 272.632 73.1761C273.272 74.4881 273.864 75.8481 274.424 77.2641C275.013 78.7325 275.489 80.2435 275.848 81.7841C276.306 83.6133 276.481 85.5018 276.368 87.3841C276.273 88.6672 275.954 89.9237 275.424 91.0961C274.744 92.5777 273.688 93.8549 272.36 94.8001C271.677 95.2831 270.886 95.5907 270.056 95.6961H269.84C266.693 96.0324 263.517 96.0056 260.376 95.6161C257.44 95.3041 254.6 94.8161 251.808 94.2481C249.016 93.6801 246.28 93.0081 243.56 92.2721C240.84 91.5361 238.208 90.7281 235.448 89.7521C234.105 89.1334 233.037 88.0419 232.448 86.6858C231.858 85.3296 231.789 83.804 232.253 82.4001C232.717 80.9961 233.682 79.8123 234.963 79.0744C236.245 78.3366 237.753 78.0966 239.2 78.4001H239.328Z" fill="#FF8B7B"/>
<path d="M259.832 63.7438L253.488 58.2638L261.784 53.3838C261.784 53.3838 267.576 58.9838 264.568 62.5038L259.832 63.7438Z" fill="#FF8B7B"/>
<path d="M252.208 52.1921L255.872 49.8881C256.322 49.6015 256.857 49.4799 257.387 49.5441C257.917 49.6083 258.408 49.8543 258.776 50.2401L261.784 53.3841L253.488 58.2641L251.544 55.4641C251.367 55.2074 251.244 54.9178 251.182 54.6125C251.119 54.3072 251.119 53.9925 251.181 53.6871C251.243 53.3817 251.366 53.092 251.542 52.8351C251.719 52.5782 251.945 52.3595 252.208 52.1921Z" fill="#FF8B7B"/>
<path d="M234.152 75.8797C241.912 74.7117 254.56 81.9357 254.56 81.9357L251.792 99.1437C251.792 99.1437 245.912 98.6957 238.192 94.7997C235.848 93.5997 224.976 77.2717 234.152 75.8797Z" fill="#FF7010"/>
<path d="M235.048 75.7918C226.488 76.5918 213.384 79.6318 204.752 83.1198C202.51 84.0147 200.612 85.6009 199.333 87.648C198.054 89.6951 197.461 92.0966 197.64 94.5038C198.52 105.976 205.032 124.288 213.32 158.592C217.624 159.48 229.864 158.096 239.528 156.36C240.576 156.176 242.904 153.416 242.904 153.416C242.904 153.416 245.456 155.192 246.784 154.888C253.184 153.432 258.168 151.768 259.224 150.376C255.96 142.584 253.208 119.712 250.64 106.024C250.016 100.592 248.376 90.6238 245.688 85.1118C243.144 79.8958 240.8 75.1998 235.048 75.7918Z" fill="#FF7010"/>
<path d="M214.024 65.0801C215.048 70.9441 215.968 77.8241 213.008 82.2801C215.72 85.6961 221.592 88.0801 227.312 89.0401C230.552 84.4801 229.776 80.4481 227.976 78.2241C224.512 76.1601 224.728 72.5761 224.656 70.1041L214.024 65.0801Z" fill="#FF8B7B"/>
<path d="M227.312 89.0399C227.961 88.0004 228.341 86.8152 228.416 85.5919C228.416 83.8079 231.616 84.7359 231.616 84.7359C230.573 86.5151 229.091 87.997 227.312 89.0399Z" fill="#263238"/>
<path d="M227.312 89.0399C227.084 88.4176 226.672 87.8797 226.13 87.498C225.588 87.1163 224.943 86.9091 224.28 86.9039C222.716 86.8234 221.155 87.0968 219.712 87.7039C219.712 87.7039 224.264 89.3679 227.312 89.0399Z" fill="#263238"/>
<path opacity="0.2" d="M216.56 67.2961C216.488 66.9281 216.432 66.5521 216.376 66.1841L224.656 70.1121C224.575 71.8293 224.803 73.5471 225.328 75.1841C221.48 74.0561 217.256 70.8321 216.56 67.2961Z" fill="black"/>
<path d="M223.88 42.6639C228.68 41.8639 232.032 47.4639 227.88 55.3919C225.032 54.0319 222.672 49.4639 222.672 49.4639L223.88 42.6639Z" fill="#E0E0E0"/>
<path d="M209.336 57.5997C212.632 64.7357 214.2 69.0877 219.352 71.3677C227.104 74.7997 234.808 67.8397 233.704 59.8397C232.704 52.6397 227.48 42.1757 219.2 42.1277C217.366 42.1148 215.56 42.5676 213.949 43.4436C212.338 44.3196 210.976 45.5902 209.99 47.1364C209.004 48.6825 208.427 50.4536 208.313 52.2836C208.198 54.1137 208.55 55.9428 209.336 57.5997Z" fill="#FF8B7B"/>
<path d="M231 61.3359C231 61.3359 228.544 61.3359 222.104 62.8079C223.424 64.5919 225.304 65.8639 228.584 65.0719C229.003 65.0155 229.405 64.8691 229.762 64.6426C230.119 64.4162 230.422 64.1151 230.652 63.7601C230.882 63.4051 231.032 63.0046 231.092 62.5862C231.152 62.1677 231.12 61.7412 231 61.3359Z" fill="#263238"/>
<path d="M226.608 63.8877C227.879 63.522 229.234 63.5639 230.48 64.0077C229.986 64.5621 229.322 64.9365 228.592 65.0717C227.324 65.4418 225.971 65.3998 224.728 64.9517C225.217 64.395 225.879 64.0199 226.608 63.8877Z" fill="#FF5652"/>
<path d="M230.688 61.3438C230.698 61.5931 230.634 61.8399 230.504 62.0532C230.375 62.2666 230.186 62.4372 229.96 62.5437C228.037 62.9792 226.081 63.2469 224.112 63.3437C223.795 63.3874 223.472 63.3535 223.171 63.2448C222.87 63.1361 222.6 62.9559 222.384 62.7198C225.112 62.0452 227.888 61.5852 230.688 61.3438Z" fill="white"/>
<path opacity="0.2" d="M221.6 61.728C221.6 61.728 219.776 61.976 220.432 63.328C220.488 62.664 221.6 61.728 221.6 61.728Z" fill="black"/>
<path d="M213.456 62.3999L216.712 61.7999C216.712 61.7999 214.464 55.4959 211.76 53.7999C213.36 52.2559 215.76 49.1199 216.512 46.9439C217.174 45.1576 217.289 43.2148 216.843 41.3629C216.397 39.5109 215.41 37.8334 214.008 36.5439C213.696 38.1921 213.022 39.7506 212.036 41.1075C211.05 42.4644 209.775 43.5861 208.304 44.3919C205.16 46.0959 201.808 50.3679 205.76 52.0559C201.504 54.6079 203.656 59.9999 213.456 62.3999Z" fill="#E0E0E0"/>
<path d="M215.472 48.7119C221.872 48.8719 226.296 42.3119 220.752 34.3999C220.04 38.8799 213.856 41.5999 213.856 41.5999L215.472 48.7119Z" fill="#E0E0E0"/>
<path d="M221.136 46.1357C225.256 47.1277 228.504 42.4558 225.416 35.3438C224.68 38.8557 220.536 40.1438 220.536 40.1438L221.136 46.1357Z" fill="#E0E0E0"/>
<path opacity="0.2" d="M218.96 56C217.836 55.8165 216.685 56.087 215.76 56.752C216.865 56.7096 217.952 56.4542 218.96 56Z" fill="black"/>
<path opacity="0.2" d="M219.088 56.7358C218.575 56.7616 218.074 56.8987 217.619 57.1377C217.165 57.3767 216.768 57.7119 216.456 58.1198C217.422 57.8512 218.319 57.3793 219.088 56.7358Z" fill="black"/>
<path opacity="0.2" d="M229.176 52.0001C229.176 52.0001 229.768 50.8961 230.448 51.0321C230.125 51.4693 229.683 51.8051 229.176 52.0001Z" fill="black"/>
<path opacity="0.2" d="M229.32 52.5199C229.32 52.5199 229.952 51.7199 230.552 52.2159C230.197 52.4752 229.755 52.5844 229.32 52.5199Z" fill="black"/>
<path d="M208.656 64.0958C209.203 64.9008 209.903 65.5896 210.717 66.1223C211.532 66.6551 212.443 67.0213 213.4 67.1998C215.976 67.6718 217.056 65.3118 216.16 62.9998C215.36 60.9198 213.04 58.1998 210.56 58.7438C208.08 59.2878 207.32 62.0798 208.656 64.0958Z" fill="#FF8B7B"/>
<path d="M220.152 55.9999C220.384 56.5919 220.888 56.9519 221.28 56.7999C221.672 56.6479 221.792 55.9999 221.56 55.4399C221.328 54.8799 220.824 54.4879 220.432 54.6399C220.04 54.7919 219.92 55.3919 220.152 55.9999Z" fill="#263238"/>
<path d="M227.568 53.0399C227.8 53.6319 228.304 53.9919 228.696 53.8399C229.088 53.6879 229.208 53.0399 228.976 52.4799C228.744 51.9199 228.24 51.5279 227.856 51.6799C227.472 51.8319 227.336 52.4399 227.568 53.0399Z" fill="#263238"/>
<path d="M225.12 54.04C225.12 54.04 227.92 56.832 230.088 57.816C229.48 59.24 227.528 59.584 227.528 59.584L225.12 54.04Z" fill="#FF5652"/>
<path d="M217.176 53.0558C217.114 53.076 217.046 53.076 216.984 53.0558C216.936 53.0429 216.891 53.0206 216.853 52.9901C216.814 52.9596 216.781 52.9215 216.757 52.8782C216.733 52.8349 216.719 52.7872 216.713 52.738C216.708 52.6888 216.713 52.6391 216.728 52.5918C216.875 52.0117 217.159 51.4752 217.555 51.0271C217.952 50.579 218.45 50.2322 219.008 50.0158C219.054 50.0009 219.103 49.9953 219.151 49.9993C219.2 50.0033 219.247 50.0169 219.29 50.0392C219.333 50.0615 219.371 50.0921 219.403 50.1293C219.434 50.1665 219.457 50.2095 219.472 50.2558C219.502 50.3502 219.494 50.4528 219.449 50.5412C219.404 50.6296 219.326 50.6967 219.232 50.7278C218.793 50.9093 218.403 51.1914 218.093 51.5513C217.783 51.9112 217.562 52.3388 217.448 52.7998C217.427 52.8617 217.392 52.9176 217.344 52.9623C217.297 53.007 217.239 53.0391 217.176 53.0558Z" fill="#263238"/>
<path d="M228.688 48.5281C228.632 48.5557 228.57 48.57 228.508 48.57C228.446 48.57 228.384 48.5557 228.328 48.5281C227.922 48.2895 227.463 48.1525 226.993 48.1288C226.522 48.1052 226.052 48.1955 225.624 48.3921C225.537 48.4378 225.435 48.4475 225.341 48.4191C225.247 48.3906 225.167 48.3264 225.12 48.2401C225.074 48.1518 225.064 48.0489 225.092 47.9534C225.121 47.8578 225.185 47.7771 225.272 47.7281C225.81 47.4741 226.402 47.3538 226.997 47.3774C227.591 47.4011 228.172 47.5681 228.688 47.8641C228.731 47.8868 228.77 47.918 228.801 47.9558C228.833 47.9935 228.856 48.0372 228.87 48.0841C228.884 48.1311 228.889 48.1804 228.884 48.2292C228.879 48.2779 228.864 48.3252 228.84 48.3681C228.802 48.4324 228.75 48.4871 228.688 48.5281Z" fill="#263238"/>
<path d="M208.472 95.5679C207.608 98.0719 206.648 100.6 205.752 103.12L202.984 110.664L200.224 118.192C199.336 120.704 198.424 123.2 197.568 125.688L197.528 122.488C198.363 125.177 199.409 127.796 200.656 130.32C201.936 133.024 203.312 135.76 204.752 138.48C206.192 141.2 207.656 143.928 209.136 146.656L213.6 154.864C213.959 155.511 214.065 156.269 213.899 156.99C213.732 157.711 213.304 158.345 212.697 158.768C212.09 159.192 211.347 159.376 210.613 159.284C209.878 159.193 209.204 158.832 208.72 158.272C206.6 155.872 204.624 153.4 202.672 150.888C200.72 148.376 198.84 145.808 197.008 143.192C195.176 140.576 193.408 137.88 191.752 135.056C189.945 132.124 188.421 129.028 187.2 125.808C186.877 124.917 186.83 123.95 187.064 123.032L187.168 122.632C187.848 119.936 188.552 117.272 189.336 114.632C190.12 111.992 190.936 109.376 191.736 106.776C192.536 104.176 193.448 101.584 194.36 99.0159C195.272 96.4479 196.192 93.8879 197.224 91.3279C197.78 89.8342 198.906 88.6225 200.356 87.9594C201.805 87.2963 203.458 87.236 204.952 87.7919C206.446 88.3478 207.657 89.4743 208.321 90.9236C208.984 92.3729 209.044 94.0262 208.488 95.5199L208.472 95.5679Z" fill="#FF8B7B"/>
<path d="M204.288 83.3277C195.688 86.3997 190.984 103.2 190.984 103.2L204.688 115.408C204.688 115.408 210.336 111.36 211.488 102.784C212.368 96.1677 213.024 80.1757 204.288 83.3277Z" fill="#FF7010"/>
<path d="M210.968 151.088L218.024 154.904L211.264 161.752C211.264 161.752 205.288 157.52 207.024 153.984L210.968 151.088Z" fill="#FF8B7B"/>
<path d="M220.472 162.872L217.696 164.872C217.16 165.257 216.505 165.44 215.847 165.387C215.189 165.335 214.571 165.05 214.104 164.584L211.264 161.752L218.024 154.904L221.072 158.944C221.294 159.24 221.454 159.577 221.544 159.936C221.634 160.295 221.652 160.668 221.596 161.034C221.54 161.399 221.412 161.75 221.219 162.066C221.026 162.382 220.772 162.655 220.472 162.872Z" fill="#FF8B7B"/>
<path d="M214.232 78.8237C214.6 80.6077 216.232 86.5677 224.28 86.9037C221.504 87.8077 220.848 93.0957 220.848 93.0957C220.848 93.0957 212.568 87.8797 211.76 81.3517C212 79.6317 214.232 78.8237 214.232 78.8237Z" fill="white"/>
<path d="M225.728 75.7038C226.088 77.4478 228.8 80.3678 228.416 85.5918C231.208 84.7358 234.736 87.0958 234.736 87.0958C233.912 83.0842 231.971 79.3872 229.136 76.4318C228.067 75.9434 226.903 75.695 225.728 75.7038Z" fill="white"/>
</svg>
