<svg width="280" height="280" viewBox="0 0 280 280" fill="none" xmlns="http://www.w3.org/2000/svg">
<path d="M252.694 263.99C252.694 264.074 198.974 264.135 132.72 264.135C66.4664 264.135 12.7344 264.074 12.7344 263.99C12.7344 263.906 66.444 263.844 132.72 263.844C198.996 263.844 252.694 263.911 252.694 263.99Z" fill="#263238"/>
<path d="M188.445 203.325L124.88 203.28C121.209 203.277 117.689 201.817 115.094 199.22C112.5 196.623 111.042 193.102 111.042 189.431V30.0776C111.043 28.2566 111.404 26.4537 112.103 24.7722C112.802 23.0908 113.826 21.5637 115.116 20.2784C116.406 18.9931 117.937 17.9748 119.621 17.2818C121.305 16.5889 123.109 16.2348 124.93 16.24L188.496 16.2792C192.167 16.2822 195.686 17.7425 198.281 20.3394C200.876 22.9362 202.333 26.457 202.333 30.128L202.3 189.476C202.3 191.295 201.942 193.097 201.246 194.778C200.55 196.459 199.53 197.986 198.243 199.272C196.956 200.558 195.429 201.578 193.747 202.274C192.066 202.969 190.265 203.326 188.445 203.325Z" fill="#455A64"/>
<path d="M188.428 21.9184H176.108C175.706 21.9271 175.31 22.0149 174.943 22.1766C174.575 22.3384 174.243 22.571 173.965 22.8612C173.688 23.1514 173.47 23.4935 173.324 23.8679C173.179 24.2422 173.109 24.6416 173.118 25.0432V27.2832C173.126 27.6847 173.056 28.0841 172.911 28.4585C172.765 28.8329 172.547 29.1749 172.27 29.4651C171.992 29.7553 171.66 29.9879 171.292 30.1497C170.925 30.3115 170.529 30.3992 170.127 30.408H146.103C145.292 30.3889 144.521 30.0485 143.96 29.4615C143.399 28.8746 143.095 28.0891 143.113 27.2776V25.0376C143.131 24.2261 142.826 23.4406 142.265 22.8536C141.705 22.2667 140.934 21.9263 140.122 21.9072H125.002C123.728 21.9057 122.467 22.1553 121.289 22.6418C120.112 23.1283 119.042 23.8421 118.141 24.7424C117.239 25.6427 116.524 26.7118 116.036 27.8886C115.549 29.0654 115.298 30.3268 115.298 31.6008L115.27 187.141C115.27 189.711 116.29 192.177 118.106 193.995C119.923 195.814 122.387 196.837 124.958 196.84L188.394 196.874C189.668 196.875 190.93 196.625 192.107 196.139C193.285 195.652 194.355 194.939 195.256 194.038C196.157 193.138 196.872 192.069 197.36 190.892C197.848 189.715 198.099 188.454 198.099 187.18V31.64C198.105 29.0686 197.09 26.6 195.276 24.777C193.463 22.954 190.999 21.9258 188.428 21.9184Z" fill="#FAFAFA"/>
<path d="M177.408 26.964H176.702V27.9496H177.408V26.964Z" fill="#263238"/>
<path d="M178.555 26.5272H177.85V27.9552H178.555V26.5272Z" fill="#263238"/>
<path d="M179.698 26.1968H178.992V27.9552H179.698V26.1968Z" fill="#263238"/>
<path d="M180.846 25.5584H180.141V27.9552H180.846V25.5584Z" fill="#263238"/>
<path d="M191.245 28H187.712C187.644 28 187.58 27.9736 187.532 27.9265C187.483 27.8794 187.456 27.8153 187.454 27.748V25.9896C187.454 25.9228 187.481 25.8587 187.528 25.8114C187.575 25.7641 187.639 25.7376 187.706 25.7376H191.245C191.26 25.732 191.276 25.732 191.29 25.7376C191.295 25.754 191.295 25.7715 191.29 25.788V26.348H191.671C191.689 26.348 191.706 26.3551 191.718 26.3677C191.731 26.3803 191.738 26.3974 191.738 26.4152V27.2608C191.737 27.2776 191.729 27.2933 191.717 27.3047C191.704 27.3161 191.688 27.3224 191.671 27.3224H191.29V27.8824C191.306 27.8883 191.318 27.9002 191.325 27.9154C191.332 27.9307 191.332 27.948 191.327 27.9636C191.321 27.9792 191.309 27.9918 191.293 27.9986C191.278 28.0054 191.261 28.0059 191.245 28ZM191.178 25.8664H187.706C187.69 25.8664 187.674 25.8696 187.659 25.8758C187.644 25.882 187.63 25.891 187.619 25.9025C187.608 25.9139 187.598 25.9275 187.592 25.9424C187.586 25.9574 187.583 25.9734 187.583 25.9896V27.748C187.583 27.7646 187.586 27.7811 187.593 27.7965C187.599 27.8118 187.609 27.8256 187.621 27.8371C187.633 27.8487 187.647 27.8576 187.663 27.8635C187.678 27.8693 187.695 27.8719 187.712 27.8712H191.178V27.3112C191.178 27.2934 191.185 27.2763 191.198 27.2637C191.21 27.2511 191.227 27.244 191.245 27.244H191.621V26.5104H191.245C191.237 26.5112 191.228 26.5102 191.22 26.5074C191.212 26.5047 191.204 26.5002 191.198 26.4944C191.192 26.4886 191.187 26.4816 191.183 26.4737C191.18 26.4659 191.178 26.4574 191.178 26.4488V25.8664Z" fill="#263238"/>
<path d="M187.874 27.5856V26.1576H190.892V26.8016V26.9416V27.5856H187.874Z" fill="#263238"/>
<path d="M184.24 27.8656C184.238 27.7977 184.211 27.733 184.163 27.685C184.115 27.637 184.05 27.6094 183.982 27.608C183.914 27.608 183.848 27.6351 183.8 27.6834C183.752 27.7317 183.725 27.7973 183.725 27.8656C183.724 27.8996 183.73 27.9334 183.743 27.965C183.755 27.9966 183.774 28.0254 183.798 28.0494C183.823 28.0735 183.851 28.0924 183.883 28.1051C183.914 28.1178 183.948 28.1239 183.982 28.1232C184.051 28.1232 184.116 28.096 184.164 28.0477C184.213 27.9994 184.24 27.9339 184.24 27.8656Z" fill="#263238"/>
<path d="M183.075 27.244L183.406 27.5744C183.478 27.4992 183.565 27.4394 183.661 27.3985C183.758 27.3577 183.861 27.3367 183.966 27.3367C184.07 27.3367 184.174 27.3577 184.27 27.3985C184.366 27.4394 184.453 27.4992 184.526 27.5744L184.856 27.244C184.739 27.1265 184.599 27.0338 184.445 26.9713C184.291 26.9088 184.126 26.8777 183.96 26.88C183.629 26.8803 183.311 27.0111 183.075 27.244Z" fill="#263238"/>
<path d="M183.96 26.1408C183.437 26.1345 182.934 26.336 182.56 26.7008L182.884 27.0312C183.17 26.7484 183.555 26.5897 183.957 26.5897C184.358 26.5897 184.744 26.7484 185.029 27.0312L185.36 26.7008C184.985 26.337 184.482 26.1358 183.96 26.1408Z" fill="#263238"/>
<path d="M182 26.1856L182.33 26.516C182.757 26.0899 183.335 25.8505 183.938 25.8505C184.54 25.8505 185.118 26.0899 185.545 26.516L185.875 26.1856C185.361 25.6726 184.664 25.3846 183.938 25.3846C183.211 25.3846 182.514 25.6726 182 26.1856Z" fill="#263238"/>
<path d="M160.932 41.272H156.665C156.371 41.272 156.133 41.5102 156.133 41.804V44.6992C156.133 44.993 156.371 45.2312 156.665 45.2312H160.932C161.226 45.2312 161.464 44.993 161.464 44.6992V41.804C161.464 41.5102 161.226 41.272 160.932 41.272Z" fill="#263238"/>
<path d="M157.309 41.5296H156.749V40.88C156.734 40.6022 156.777 40.3244 156.873 40.0634C156.969 39.8024 157.118 39.5638 157.309 39.362C157.501 39.1602 157.731 38.9995 157.987 38.8897C158.242 38.7799 158.518 38.7233 158.796 38.7233C159.074 38.7233 159.349 38.7799 159.605 38.8897C159.86 38.9995 160.091 39.1602 160.282 39.362C160.474 39.5638 160.622 39.8024 160.719 40.0634C160.815 40.3244 160.857 40.6022 160.842 40.88V41.3056H160.282V40.88C160.295 40.6771 160.266 40.4737 160.197 40.2825C160.128 40.0913 160.02 39.9163 159.881 39.7682C159.742 39.6201 159.573 39.5021 159.387 39.4214C159.2 39.3407 158.999 39.2991 158.796 39.2991C158.592 39.2991 158.391 39.3407 158.205 39.4214C158.018 39.5021 157.85 39.6201 157.711 39.7682C157.571 39.9163 157.464 40.0913 157.395 40.2825C157.326 40.4737 157.296 40.6771 157.309 40.88V41.5296Z" fill="#263238"/>
<path d="M115.92 139.378C115.975 134.343 117.36 129.412 119.934 125.085C122.509 120.758 126.182 117.189 130.581 114.738C136.741 111.378 143.92 110.505 150.769 108.931C157.618 107.358 164.718 104.759 168.952 99.1536C174.675 91.5768 173.583 80.808 177.716 72.2736C179.637 68.4203 182.553 65.1498 186.161 62.7999C189.769 60.45 193.939 59.1059 198.24 58.9064V189.112C198.24 191.211 197.406 193.223 195.922 194.707C194.438 196.191 192.426 197.025 190.327 197.025H123.844C122.804 197.025 121.774 196.821 120.813 196.424C119.852 196.027 118.979 195.444 118.243 194.709C117.507 193.975 116.923 193.102 116.525 192.142C116.126 191.181 115.921 190.152 115.92 189.112V139.378Z" fill="#EBEBEB"/>
<path d="M129.92 71.5624C129.92 66.7352 132.451 63.8568 135.962 63.8568C139.474 63.8568 142.022 66.7352 142.022 71.5624C142.022 76.3896 139.468 79.2736 135.962 79.2736C132.457 79.2736 129.92 76.3896 129.92 71.5624ZM140.42 71.5624C140.42 67.5136 138.6 65.2848 135.94 65.2848C133.28 65.2848 131.46 67.5248 131.46 71.5624C131.46 75.6 133.28 77.8456 135.94 77.8456C138.6 77.8456 140.431 75.6 140.431 71.5624H140.42Z" fill="#263238"/>
<path d="M155.198 71.4336C155.198 76.5856 152.398 79.2736 148.271 79.2736C147.02 79.3269 145.778 79.0425 144.676 78.4504L145.303 77.196C146.196 77.7118 147.219 77.9587 148.248 77.9072C151.519 77.9072 153.619 75.8072 153.619 71.6912C153.619 71.3496 153.619 70.9128 153.552 70.4592C152.796 72.1392 151.02 73.0576 148.92 73.0576C145.908 73.0576 143.808 71.2824 143.808 68.5104C143.808 65.7384 146.048 63.8568 148.982 63.8568C153.008 63.84 155.198 66.64 155.198 71.4336ZM153.053 68.4264C153.053 66.7464 151.67 65.1784 149.049 65.1784C146.86 65.1784 145.348 66.4552 145.348 68.4656C145.348 70.476 146.82 71.736 149.156 71.736C151.491 71.736 153.053 70.308 153.053 68.4264Z" fill="#263238"/>
<path d="M157.472 68.8352C157.465 68.6815 157.49 68.5281 157.545 68.3844C157.599 68.2407 157.683 68.1099 157.791 68.0001C157.899 67.8903 158.028 67.8039 158.171 67.7462C158.313 67.6885 158.466 67.6608 158.62 67.6648C158.773 67.664 158.926 67.6938 159.068 67.7525C159.21 67.8111 159.339 67.8973 159.447 68.0063C159.556 68.1152 159.641 68.2445 159.699 68.3868C159.757 68.5291 159.786 68.6815 159.785 68.8352C159.788 69.1476 159.667 69.4485 159.448 69.672C159.23 69.8956 158.932 70.0236 158.62 70.028C158.466 70.0258 158.314 69.9931 158.173 69.9319C158.031 69.8706 157.904 69.7819 157.797 69.671C157.69 69.5601 157.607 69.4291 157.551 69.2857C157.495 69.1422 157.468 68.9891 157.472 68.8352ZM157.472 78.0584C157.465 77.9047 157.49 77.7513 157.545 77.6076C157.599 77.4639 157.683 77.3331 157.791 77.2233C157.899 77.1135 158.028 77.0271 158.171 76.9694C158.313 76.9117 158.466 76.884 158.62 76.888C158.773 76.8872 158.926 76.917 159.068 76.9756C159.21 77.0343 159.339 77.1205 159.447 77.2294C159.556 77.3384 159.641 77.4677 159.699 77.61C159.757 77.7523 159.786 77.9047 159.785 78.0584C159.788 78.3708 159.667 78.6717 159.448 78.8952C159.23 79.1188 158.932 79.2467 158.62 79.2512C158.466 79.249 158.314 79.2163 158.173 79.1551C158.031 79.0938 157.904 79.0051 157.797 78.8942C157.69 78.7833 157.607 78.6523 157.551 78.5089C157.495 78.3654 157.468 78.2123 157.472 78.0584Z" fill="#263238"/>
<path d="M172.39 77.756V79.1448H161.75V78.0248L168.05 71.8648C169.763 70.1848 170.088 69.16 170.088 68.1184C170.088 66.3656 168.851 65.2848 166.538 65.2848C165.766 65.2363 164.993 65.3622 164.277 65.653C163.561 65.9438 162.919 66.3922 162.399 66.9648L161.279 66.0072C162.45 64.624 164.331 63.8456 166.65 63.8456C169.724 63.8456 171.69 65.4024 171.69 67.9336C171.69 69.3896 171.236 70.6888 169.198 72.6768L164.046 77.7168L172.39 77.756Z" fill="#263238"/>
<path d="M174.249 71.5624C174.249 66.7352 176.78 63.8568 180.291 63.8568C183.803 63.8568 186.351 66.7352 186.351 71.5624C186.351 76.3896 183.797 79.2736 180.291 79.2736C176.786 79.2736 174.249 76.3896 174.249 71.5624ZM184.749 71.5624C184.749 67.5136 182.929 65.2848 180.269 65.2848C177.609 65.2848 175.789 67.5248 175.789 71.5624C175.789 75.6 177.648 77.84 180.319 77.84C182.991 77.84 184.749 75.6 184.749 71.5624Z" fill="#263238"/>
<path d="M141.519 52.3157C142.789 46.4073 139.028 40.5882 133.12 39.3183C127.212 38.0484 121.392 41.8087 120.123 47.7171C118.853 53.6255 122.613 59.4446 128.521 60.7145C134.43 61.9844 140.249 58.2241 141.519 52.3157Z" fill="#E0E0E0"/>
<path d="M71.4846 137.066C70.695 136.506 69.7206 136.27 68.8414 135.856C67.9622 135.442 67.111 134.736 67.027 133.75C66.9094 132.317 68.4886 131.236 68.5838 129.83C68.7126 127.809 65.9798 126.706 65.5822 124.723C65.2518 123.077 66.6462 121.526 66.5902 119.846C66.5342 118.166 65.0782 116.917 64.4174 115.366C62.8718 111.793 65.7166 107.184 63.5606 103.942C62.9068 103.126 62.1753 102.376 61.3766 101.702C60.6374 100.962 59.9934 100.022 60.083 98.952L56.0398 97.1152C54.6846 95.0432 51.6102 94.9648 49.3198 95.8496C47.0294 96.7344 44.9798 98.3192 42.5998 98.9128C41.435 99.1984 41.603 97.4736 40.427 97.7144C38.8758 98.028 36.9774 99.8368 36.507 101.338C36.0366 102.945 35.7062 104.726 35.135 106.305C34.5022 108.046 32.6374 109.262 32.4582 111.11C32.2566 113.26 34.4798 115.03 34.4854 117.18C34.4854 119.504 31.9206 121.587 32.7382 123.766C33.2086 125.009 34.6422 125.675 35.1462 126.907C35.835 128.587 34.463 130.48 34.5862 132.311C34.7094 134.142 36.2326 135.486 37.6718 136.584C43.152 140.861 49.2837 144.231 55.8326 146.563C58.6718 147.538 61.6622 148.282 64.6526 148.014C67.643 147.745 70.6502 146.334 72.2182 143.746C73.5006 141.646 73.4894 138.505 71.4846 137.066Z" fill="#263238"/>
<path d="M59.9204 97.9384C59.5527 96.4681 58.8002 95.1222 57.7401 94.0391C56.68 92.956 55.3507 92.1747 53.8886 91.7756C52.4265 91.3764 50.8846 91.3738 49.4212 91.768C47.9578 92.1621 46.6257 92.9389 45.562 94.0184C44.6996 94.892 44.0164 95.9616 42.9972 96.6448C41.8436 97.4232 41.6756 97.2048 40.3876 97.7032C39.0996 98.2016 36.7308 101.802 36.77 103.191L36.126 109.273C36.1764 110.695 38.0076 111.513 39.3516 111.031C40.6956 110.55 41.5916 109.306 42.3084 108.074C43.0252 106.842 43.6804 105.51 44.8564 104.72C46.7884 103.359 49.4092 103.83 51.722 104.3C54.0348 104.77 56.7172 105.112 58.526 103.589C60.0828 102.25 60.4188 99.9152 59.9204 97.9384Z" fill="#263238"/>
<path d="M61.1973 106.618C60.9341 102.659 58.3021 97.8096 54.3597 98.2184L42.0397 101.36C41.4626 101.423 40.9302 101.7 40.5476 102.137C40.165 102.573 39.96 103.137 39.9733 103.718L41.3565 133.398H41.2669C41.2669 133.398 46.3069 144.01 54.4157 141.45C56.0285 140.941 54.5613 136.937 54.8861 135.122H54.9645C54.9645 134.91 54.9645 134.708 54.9645 134.501C55.1238 133.147 55.1407 131.781 55.0149 130.424C55.0149 128.027 55.0149 127.064 55.0149 127.064C55.0149 127.064 60.0549 126.213 61.1021 119.616C61.6565 116.396 61.4829 111.014 61.1973 106.618Z" fill="#FFBE9D"/>
<path d="M60.1775 111.703C60.1806 111.925 60.0967 112.138 59.9438 112.299C59.7909 112.459 59.5813 112.553 59.3599 112.56C59.2524 112.568 59.1442 112.555 59.0418 112.521C58.9393 112.487 58.8447 112.433 58.7633 112.363C58.682 112.292 58.6156 112.205 58.5681 112.108C58.5205 112.012 58.4927 111.906 58.4864 111.798C58.4847 111.577 58.5691 111.364 58.7217 111.205C58.8743 111.045 59.0831 110.95 59.304 110.942C59.4117 110.932 59.5202 110.945 59.6229 110.979C59.7257 111.012 59.8207 111.066 59.9022 111.137C59.9837 111.208 60.05 111.295 60.0973 111.392C60.1447 111.489 60.1719 111.595 60.1775 111.703Z" fill="#263238"/>
<path d="M60.0324 109.418C59.9316 109.53 59.2876 109.06 58.3524 109.06C57.4172 109.06 56.7788 109.525 56.6724 109.413C56.566 109.301 56.7284 109.161 57.0196 108.954C57.4137 108.679 57.8831 108.532 58.3636 108.534C58.8362 108.533 59.2968 108.682 59.6796 108.959C59.9876 109.2 60.0884 109.368 60.0324 109.418Z" fill="#263238"/>
<path d="M51.5704 112C51.5735 112.22 51.4902 112.432 51.3383 112.592C51.1865 112.751 50.9783 112.844 50.7584 112.851C50.6507 112.86 50.5422 112.848 50.4395 112.814C50.3367 112.781 50.2417 112.727 50.1602 112.656C50.0787 112.585 50.0124 112.498 49.965 112.401C49.9177 112.303 49.8905 112.198 49.8848 112.09C49.8818 111.87 49.9651 111.657 50.117 111.498C50.2688 111.339 50.477 111.246 50.6968 111.238C50.8046 111.229 50.9131 111.242 51.0158 111.275C51.1186 111.309 51.2135 111.363 51.295 111.434C51.3766 111.505 51.4429 111.592 51.4902 111.689C51.5376 111.786 51.5648 111.892 51.5704 112Z" fill="#263238"/>
<path d="M51.0832 109.609C50.9824 109.721 50.3384 109.245 49.4032 109.25C48.468 109.256 47.8296 109.715 47.7232 109.603C47.6168 109.491 47.7792 109.351 48.0704 109.138C48.466 108.867 48.9347 108.723 49.4144 108.724C49.8864 108.722 50.3469 108.869 50.7304 109.144C51.0384 109.362 51.1336 109.558 51.0832 109.609Z" fill="#263238"/>
<path d="M54.4041 116.357C54.883 116.202 55.3799 116.11 55.8825 116.082C56.1121 116.082 56.3361 116.015 56.3753 115.853C56.3914 115.613 56.3369 115.373 56.2185 115.164C55.9945 114.604 55.7649 114.016 55.5241 113.394C54.5665 110.88 53.8441 108.808 53.9729 108.769C54.1017 108.73 54.9361 110.74 55.8937 113.249C56.1233 113.87 56.3473 114.464 56.5545 115.03C56.7018 115.31 56.7454 115.633 56.6777 115.942C56.6441 116.024 56.5923 116.098 56.5264 116.157C56.4605 116.216 56.382 116.259 56.2969 116.284C56.1686 116.316 56.0372 116.335 55.9049 116.34C55.4072 116.407 54.9032 116.413 54.4041 116.357Z" fill="#263238"/>
<path d="M55.0592 127.12C51.9525 127.174 48.8916 126.366 46.2168 124.785C46.2168 124.785 48.3672 129.31 54.9696 128.705L55.0592 127.12Z" fill="#EB996E"/>
<path d="M54.0232 118.552C53.8502 118.333 53.624 118.162 53.3662 118.055C53.1084 117.948 52.8275 117.909 52.5504 117.942C52.3497 117.96 52.1549 118.02 51.9777 118.116C51.8006 118.212 51.6449 118.343 51.52 118.502C51.3975 118.653 51.3247 118.839 51.3117 119.033C51.2987 119.228 51.346 119.421 51.4472 119.588C51.5959 119.749 51.7887 119.864 52.0018 119.916C52.2148 119.969 52.4387 119.958 52.6456 119.885C53.0743 119.733 53.4684 119.497 53.8048 119.19C53.9073 119.116 53.9947 119.023 54.0624 118.916C54.0963 118.867 54.1145 118.808 54.1145 118.748C54.1145 118.688 54.0963 118.629 54.0624 118.58" fill="#EB996E"/>
<path d="M51.7272 116.99C51.8728 116.99 51.8784 117.97 52.724 118.67C53.5696 119.37 54.6224 119.258 54.6336 119.398C54.6448 119.538 54.3984 119.588 53.956 119.599C53.3748 119.605 52.81 119.407 52.36 119.039C51.9308 118.688 51.6539 118.184 51.5872 117.634C51.548 117.23 51.66 116.984 51.7272 116.99Z" fill="#263238"/>
<path d="M51.5207 108.013C51.4311 108.265 50.5183 108.147 49.4543 108.276C48.3903 108.405 47.5223 108.702 47.3767 108.483C47.3151 108.377 47.4663 108.142 47.8135 107.923C48.2727 107.616 48.7989 107.424 49.3479 107.363C49.8948 107.299 50.4492 107.364 50.9663 107.554C51.3303 107.705 51.5207 107.895 51.5207 108.013Z" fill="#263238"/>
<path d="M59.6902 106.786C59.5334 106.994 58.9062 106.786 58.1502 106.786C57.3942 106.786 56.7614 106.932 56.6102 106.714C56.5486 106.607 56.6494 106.4 56.9238 106.204C57.2991 105.969 57.7355 105.851 58.1781 105.864C58.6206 105.877 59.0494 106.02 59.4102 106.277C59.6734 106.473 59.763 106.686 59.6902 106.786Z" fill="#263238"/>
<path d="M54.1412 96.5496L53.5812 95.8328C49.7703 96.271 46.0366 97.2242 42.482 98.6664C41.0596 99.2264 39.626 99.932 38.6516 101.119C37.3188 102.749 37.106 105 36.9716 107.1C36.4116 115.108 35.9132 123.34 38.4332 130.973C39.038 129.998 40.2252 129.562 41.3508 129.343C42.4764 129.125 43.658 129.052 44.7108 128.531C45.264 128.231 45.7488 127.819 46.1344 127.322C46.52 126.824 46.7981 126.252 46.9508 125.642C47.2496 124.407 47.1049 123.107 46.542 121.968C45.9316 120.697 44.862 119.47 45.1084 118.087C45.3548 116.704 47.046 115.814 47.438 114.391C48.1156 111.933 44.638 109.726 45.3604 107.274C45.519 106.832 45.7662 106.427 46.0869 106.084C46.4075 105.741 46.7949 105.468 47.2252 105.28C48.0652 104.86 48.9892 104.625 49.8404 104.227C51.2543 103.538 52.4238 102.434 53.1925 101.062C53.9611 99.6894 54.2922 98.1151 54.1412 96.5496Z" fill="#263238"/>
<path d="M87.4502 146.849L79.7334 158.855C80.0318 159.293 80.4379 159.647 80.9126 159.882C81.3873 160.118 81.9146 160.227 82.4438 160.199C84.303 160.121 86.8566 155.484 87.159 154.549C87.4614 153.614 87.0526 152.706 87.327 152.079C87.6014 151.452 87.495 149.738 87.495 149.738C87.4558 149.839 89.1638 147.554 87.4502 146.849Z" fill="#FFBE9D"/>
<path d="M77.5996 158.85L81.6204 142.951C81.6818 142.717 81.7892 142.497 81.9363 142.305C82.0834 142.113 82.2673 141.952 82.4772 141.831L88.318 138.499C88.4904 138.402 88.6922 138.372 88.8853 138.415C89.0783 138.457 89.2491 138.569 89.3652 138.729C89.4338 138.824 89.4809 138.933 89.5031 139.048C89.5254 139.163 89.5223 139.281 89.494 139.395L85.238 156.128L77.5996 158.85Z" fill="#263238"/>
<path d="M75.5721 171.17L84.9073 153.927L81.3905 149.374L68.2529 159.342L71.6969 168.818L75.5721 171.17Z" fill="#264FA8"/>
<path d="M85.0196 157.668C85.1009 157.437 85.1608 157.199 85.1988 156.957C85.2607 156.286 85.1942 155.609 85.0028 154.963V154.924V154.885C85.0846 154.754 85.1375 154.608 85.1578 154.455C85.1781 154.303 85.1653 154.147 85.1204 154C84.9917 153.668 84.7627 153.384 84.4652 153.188L84.3644 153.121L84.4316 153.014L85.49 151.435C85.5879 151.309 85.6706 151.172 85.7364 151.026C85.7788 150.889 85.7668 150.741 85.7028 150.612C85.5519 150.315 85.3284 150.061 85.0532 149.873L84.9188 149.778L85.0252 149.654C85.3108 149.33 85.63 149.005 85.9492 148.674C86.4955 148.112 87.0096 147.519 87.4892 146.899C87.706 146.614 87.8936 146.309 88.0492 145.986C88.1222 145.843 88.1696 145.687 88.1892 145.527C88.1892 145.382 88.1332 145.303 88.0492 145.286H88.0156C87.8358 145.268 87.6544 145.297 87.4892 145.37C87.2985 145.441 87.1115 145.521 86.9292 145.611C86.5876 145.796 86.2684 145.986 85.9772 146.171C85.4172 146.552 84.8852 146.91 84.4764 147.207L83.5188 147.902C83.4123 147.995 83.2937 148.075 83.166 148.137C83.2532 148.025 83.3549 147.925 83.4684 147.84C83.6756 147.655 83.9836 147.398 84.3812 147.078C84.7788 146.759 85.2716 146.39 85.854 145.992C86.1508 145.79 86.4644 145.589 86.8172 145.393C86.9979 145.293 87.185 145.205 87.3772 145.13C87.5942 145.023 87.8397 144.99 88.0772 145.034H88.0436C88.1638 145.051 88.2724 145.115 88.3459 145.211C88.4193 145.308 88.4516 145.429 88.4356 145.55C88.4175 145.744 88.3644 145.934 88.2788 146.11C88.1154 146.452 87.9165 146.777 87.6852 147.078C87.2043 147.713 86.6843 148.317 86.1284 148.887C85.8092 149.218 85.49 149.542 85.2044 149.862V149.643C85.5264 149.864 85.7851 150.165 85.9548 150.517C86.0412 150.709 86.0532 150.927 85.9884 151.127C85.9153 151.293 85.8212 151.45 85.7084 151.592C85.3276 152.152 84.9636 152.678 84.622 153.171V152.992C84.9592 153.224 85.2141 153.558 85.35 153.944C85.4017 154.121 85.415 154.307 85.3889 154.49C85.3628 154.672 85.298 154.847 85.1988 155.002V154.924C85.3778 155.596 85.4141 156.298 85.3052 156.985C85.2723 157.169 85.2139 157.348 85.1316 157.517C85.0644 157.618 85.0308 157.674 85.0196 157.668Z" fill="#EB996E"/>
<path d="M89.3652 138.723C89.2192 138.855 89.0574 138.968 88.8836 139.059C88.5644 139.261 88.0996 139.546 87.5172 139.894L85.4732 141.12L84.2636 141.82C83.8235 142.033 83.413 142.302 83.0428 142.621C82.7213 142.973 82.5076 143.411 82.4268 143.881C82.3036 144.351 82.186 144.799 82.074 145.236L81.4636 147.526C81.2844 148.176 81.1332 148.702 81.0212 149.061C80.9804 149.255 80.9145 149.443 80.8252 149.621C80.8287 149.431 80.8589 149.242 80.9148 149.061C80.9876 148.691 81.1108 148.159 81.262 147.504C81.4132 146.849 81.6092 146.048 81.822 145.197C81.9265 144.76 82.0385 144.306 82.158 143.836C82.2487 143.314 82.4856 142.829 82.8412 142.436C83.2343 142.104 83.6669 141.822 84.1292 141.596L85.35 140.913L87.422 139.793C88.0156 139.468 88.4972 139.233 88.8332 139.042C88.9945 138.911 89.1736 138.804 89.3652 138.723Z" fill="#455A64"/>
<path d="M85.4955 144.155C85.3499 144.502 85.3331 144.827 85.4563 144.878C85.5795 144.928 85.7979 144.693 85.9435 144.346C86.0891 143.998 86.1059 143.679 85.9827 143.623C85.8595 143.567 85.6411 143.814 85.4955 144.155Z" fill="white"/>
<path d="M56.4199 134.518C58.4275 135.241 60.2728 136.352 61.8506 137.789C63.4284 139.225 64.7076 140.959 65.6151 142.89L78.1479 169.557L88.9447 173.936L79.4247 176.674L70.9687 170.464L56.4199 134.518Z" fill="#264FA8"/>
<path d="M79.4365 176.674L74.8893 180.18L52.1981 156.839L39.2285 133.409L40.7293 129.052L50.7589 133.23L54.3485 138.538L55.1493 131.818L55.7933 132.72L56.8405 135.559C56.8405 135.559 66.6853 143.752 68.8133 150.242C70.5605 155.68 70.0285 166.88 71.1205 169.904L79.4365 176.674Z" fill="#FAFAFA"/>
<path d="M36.7981 133.106C36.6469 133.56 27.0989 137.396 26.6453 140.739C26.1917 144.082 33.5053 169.932 33.5053 169.932L45.1029 180.18H74.8893L65.4421 162.49C63.4057 158.675 60.8293 155.174 57.7925 152.096C54.9925 149.262 51.6325 145.757 49.8741 143.668C47.9869 141.4 39.9845 130.788 39.9845 130.788L36.7981 133.106Z" fill="#264FA8"/>
<path d="M42.7734 134.165C43.3523 134.373 43.914 134.625 44.4534 134.921C45.4782 135.425 46.8838 136.13 48.4294 136.931L50.1878 137.85L49.9862 137.984C49.919 136.939 49.9811 135.889 50.171 134.859C50.2241 134.452 50.3353 134.054 50.5014 133.678C50.4694 134.083 50.4171 134.487 50.3446 134.887C50.2135 135.907 50.1854 136.937 50.2606 137.962V138.208L50.0422 138.096L48.3062 137.2C46.7606 136.399 45.3718 135.66 44.3862 135.111C43.8253 134.837 43.2861 134.521 42.7734 134.165Z" fill="#263238"/>
<path d="M65.7328 157.741C65.5544 157.502 65.3952 157.249 65.2568 156.985L64.0416 154.874C63.0224 153.087 61.6 150.629 59.9984 147.935C58.3968 145.242 56.9016 142.828 55.8208 141.081L54.5384 139.009C54.3715 138.762 54.2254 138.501 54.1016 138.23C54.3108 138.451 54.4983 138.691 54.6616 138.947C54.992 139.418 55.4568 140.106 56.0224 140.969C57.1424 142.688 58.6656 145.09 60.2784 147.79C61.8912 150.489 63.2744 152.964 64.2488 154.773C64.7416 155.68 65.128 156.414 65.3688 156.929C65.512 157.189 65.6337 157.461 65.7328 157.741Z" fill="#263238"/>
<g opacity="0.3">
<path d="M61.1469 175.762C62.8773 176.053 64.6525 176.322 66.3773 176.019C68.1021 175.717 69.7877 174.602 70.3309 172.934C70.4165 172.389 70.638 171.875 70.9749 171.438C71.6413 170.822 72.7053 171.203 73.6069 171.119C74.1087 171.043 74.5861 170.851 75.0018 170.56C75.4175 170.268 75.7604 169.885 76.0037 169.439C76.4846 168.547 76.8228 167.585 77.0061 166.589C77.1515 166.108 77.2122 165.606 77.1853 165.105C77.1679 164.855 77.0879 164.614 76.9529 164.404C76.8178 164.194 76.632 164.02 76.4125 163.901C75.7293 163.593 74.9565 164.041 74.3517 164.461C69.4405 168 64.9605 172.11 60.4805 176.198" fill="#121214"/>
</g>
<path d="M72.2734 156.027C72.2734 156.027 73.9814 152.107 74.8886 151.547C75.7958 150.987 80.3262 148.361 80.3262 148.361L79.7662 150.517L84.1958 147.442C84.7558 147.078 87.8974 144.206 88.4574 145.326C88.8662 146.132 86.2846 148.26 85.9374 148.736C85.075 149.918 85.3774 149.811 85.3774 149.811C85.3774 149.811 86.3126 150.371 85.8422 151.211C85.4579 151.856 85.0352 152.477 84.5766 153.07C84.5766 153.07 85.8086 153.507 85.0918 155.109C85.2987 155.774 85.341 156.479 85.215 157.164C85.0134 158.362 82.8518 160.63 82.8518 160.63L72.0438 165.76L67.6982 158.39L72.2734 156.027Z" fill="#FFBE9D"/>
<path d="M47.1804 148.658L54.0908 163.408L69.4404 156.755C69.4404 156.755 75.7964 160.462 74.9172 164.517L61.0852 175.84C59.7924 176.902 58.2973 177.69 56.6907 178.157C55.0841 178.624 53.3994 178.76 51.7388 178.556C49.957 178.338 48.2441 177.735 46.7191 176.788C45.194 175.841 43.8934 174.574 42.9076 173.074L32.9172 157.886L27.3172 148.753C26.4201 147.331 25.9637 145.675 26.0056 143.994C26.0474 142.313 26.5856 140.682 27.5524 139.306C28.0803 138.563 28.7503 137.933 29.5236 137.452C32.0268 135.934 39.4412 135.274 47.1804 148.658Z" fill="#264FA8"/>
<path d="M81.1612 149.52C80.4713 150.115 79.7205 150.635 78.9212 151.071C78.1685 151.589 77.3656 152.03 76.5244 152.387C77.2197 151.8 77.9698 151.28 78.7644 150.836C79.5189 150.321 80.3216 149.88 81.1612 149.52Z" fill="#EB996E"/>
<path d="M85.4788 149.374C84.8801 150.162 84.2069 150.889 83.4684 151.547C82.7951 152.27 82.0586 152.932 81.2676 153.524C81.8696 152.74 82.5426 152.012 83.278 151.351C83.9509 150.628 84.6875 149.966 85.4788 149.374Z" fill="#EB996E"/>
<path d="M84.902 152.701C84.6646 153.189 84.3465 153.634 83.9612 154.017C83.4012 154.694 82.8412 155.21 82.8076 155.137C83.0475 154.647 83.3673 154.2 83.754 153.815C84.0722 153.383 84.4602 153.006 84.902 152.701Z" fill="#EB996E"/>
<path d="M85.1205 154.941C85.1821 154.991 84.9413 155.35 84.6389 155.786C84.3365 156.223 84.0789 156.57 84.0061 156.531C83.9333 156.492 84.1013 156.078 84.4149 155.63C84.7285 155.182 85.0477 154.89 85.1205 154.941Z" fill="#EB996E"/>
<path d="M58.7332 177.318C58.7332 177.318 58.7332 177.29 58.8004 177.251L59.0188 177.066L59.8868 176.366L63.202 173.746L75.0404 164.483L74.99 164.578C74.9961 163.811 74.8495 163.049 74.5588 162.338C74.2269 161.594 73.7996 160.895 73.2876 160.261C72.1685 158.939 70.8451 157.805 69.3676 156.901H69.4964L61.5612 160.35L54.1468 163.52L54.0236 163.57L53.962 163.453C51.9292 159.449 50.042 155.686 48.1492 152.415C47.2028 150.774 46.2676 149.257 45.3828 147.84C44.498 146.423 43.7028 145.113 42.8684 143.982C41.6404 142.159 40.0075 140.645 38.0972 139.558C37.7668 139.362 37.4588 139.21 37.19 139.082C36.9212 138.953 36.7028 138.846 36.5124 138.768L36.098 138.583C36.049 138.566 36.0021 138.543 35.958 138.516C37.6194 139.085 39.1557 139.97 40.4828 141.12C41.4345 141.951 42.2858 142.891 43.0196 143.92C43.8596 145.04 44.6996 146.362 45.5676 147.773C46.4356 149.184 47.41 150.696 48.3676 152.337C50.294 155.607 52.1812 159.37 54.2252 163.369L54.0404 163.302L61.4268 160.087L69.362 156.643L69.4292 156.615L69.4908 156.654C70.9955 157.58 72.3417 158.74 73.478 160.093C74.0014 160.75 74.4398 161.471 74.7828 162.238C75.0824 162.993 75.2327 163.799 75.2252 164.612V164.668L75.1748 164.707L63.2804 173.863L59.9204 176.428L59.03 177.1L58.7948 177.268L58.7332 177.318Z" fill="#263238"/>
<path d="M53.1612 168.045C53.0772 168.011 53.5028 166.958 53.7212 165.598C53.9396 164.237 53.9452 163.1 54.0348 163.094C54.225 163.935 54.225 164.807 54.0348 165.648C53.9284 166.503 53.6297 167.322 53.1612 168.045Z" fill="#263238"/>
<path d="M137.458 211.372L145.483 221.424C145.483 221.424 158.397 216.647 160.043 218.361L141.121 234.64L127.978 219.52L137.458 211.372Z" fill="#264FA8"/>
<g opacity="0.6">
<path d="M138.926 225.635C138.791 225.847 138.739 226.1 138.781 226.347C138.822 226.595 138.953 226.818 139.15 226.974C139.356 227.116 139.609 227.174 139.857 227.136C140.105 227.097 140.329 226.965 140.482 226.766C140.624 226.541 140.677 226.271 140.631 226.008C140.586 225.746 140.445 225.509 140.236 225.344C140.005 225.219 139.734 225.188 139.48 225.258C139.226 225.328 139.01 225.493 138.875 225.719" fill="white"/>
</g>
<g opacity="0.6">
<path d="M141.12 234.64L139.854 233.061L158.48 218.042C158.48 218.042 159.639 217.683 160.054 218.361L141.12 234.64Z" fill="white"/>
</g>
<path d="M145.707 221.066C145.785 221.161 145.359 221.626 145.147 222.286C144.934 222.947 145.04 223.574 144.923 223.608C144.805 223.642 144.486 222.992 144.743 222.163C145.001 221.334 145.656 220.965 145.707 221.066Z" fill="#263238"/>
<path d="M148.4 220.181C148.496 220.254 148.232 220.741 148.255 221.418C148.277 222.096 148.54 222.566 148.445 222.645C148.35 222.723 147.84 222.247 147.829 221.424C147.818 220.601 148.322 220.08 148.4 220.181Z" fill="#263238"/>
<path d="M151.569 221.592C151.502 221.682 150.976 221.329 150.774 220.623C150.573 219.918 150.841 219.341 150.942 219.38C151.043 219.419 151.015 219.94 151.183 220.5C151.351 221.06 151.653 221.502 151.569 221.592Z" fill="#263238"/>
<path d="M143.624 218.96C143.657 219.078 143.125 219.318 142.633 219.8C142.14 220.282 141.877 220.797 141.759 220.763C141.641 220.73 141.759 220.058 142.319 219.498C142.879 218.938 143.607 218.865 143.624 218.96Z" fill="#263238"/>
<g opacity="0.3">
<path d="M139.049 213.366L140.477 215.158L131.102 223.065L129.747 221.508L139.049 213.366Z" fill="#121214"/>
</g>
<path d="M141.966 216.983C142.005 217.017 141.686 217.386 141.014 217.79C140.622 218.027 140.203 218.215 139.765 218.35C139.504 218.426 139.239 218.486 138.97 218.529C138.812 218.553 138.652 218.553 138.494 218.529C138.378 218.511 138.271 218.456 138.188 218.374C138.104 218.292 138.049 218.185 138.029 218.07C138.019 217.965 138.035 217.86 138.074 217.763C138.113 217.665 138.174 217.579 138.253 217.51C138.37 217.402 138.505 217.315 138.651 217.252C139.309 216.917 140.041 216.752 140.779 216.77C141.206 216.739 141.632 216.841 142 217.062C142 217.129 141.518 217.022 140.784 217.062C140.358 217.095 139.936 217.179 139.53 217.314C139.293 217.395 139.062 217.497 138.841 217.616C138.595 217.734 138.421 217.879 138.449 218.014C138.449 218.064 138.449 218.075 138.561 218.098C138.678 218.113 138.797 218.113 138.914 218.098C139.165 218.064 139.413 218.017 139.659 217.958C140.076 217.849 140.483 217.703 140.874 217.521C141.224 217.314 141.589 217.135 141.966 216.983Z" fill="#263238"/>
<path d="M141.961 217.218C141.961 217.258 141.474 217.084 140.925 216.513C140.415 215.975 140.064 215.306 139.911 214.581C139.855 214.412 139.843 214.231 139.878 214.057C139.912 213.882 139.991 213.719 140.107 213.584C140.192 213.511 140.296 213.466 140.407 213.453C140.518 213.44 140.63 213.46 140.729 213.511C140.873 213.58 141.007 213.668 141.126 213.774C141.412 214.021 141.645 214.321 141.814 214.659C141.982 214.996 142.081 215.364 142.106 215.74C142.162 216.546 141.871 216.989 141.832 216.966C141.858 216.569 141.858 216.171 141.832 215.774C141.765 215.361 141.606 214.969 141.367 214.626C141.232 214.425 141.068 214.246 140.88 214.094C140.678 213.92 140.466 213.819 140.404 213.903C140.351 213.993 140.318 214.093 140.308 214.196C140.297 214.299 140.309 214.404 140.342 214.502C140.386 214.746 140.456 214.985 140.55 215.214C140.704 215.615 140.915 215.992 141.177 216.334C141.602 216.899 142 217.157 141.961 217.218Z" fill="#263238"/>
<path d="M128.739 242.362L128.24 255.511C128.24 255.511 141.439 260.434 141.585 262.875L116.049 262.825L115.987 242.301L128.739 242.362Z" fill="#264FA8"/>
<g opacity="0.6">
<path d="M120.344 254.391C120.099 254.466 119.89 254.628 119.756 254.847C119.623 255.066 119.575 255.326 119.622 255.578C119.689 255.826 119.848 256.039 120.067 256.174C120.285 256.309 120.546 256.357 120.798 256.306C121.056 256.223 121.275 256.048 121.414 255.816C121.553 255.583 121.603 255.308 121.554 255.041C121.459 254.79 121.271 254.585 121.029 254.469C120.787 254.354 120.51 254.336 120.255 254.419" fill="white"/>
</g>
<g opacity="0.6">
<path d="M116.049 262.825L116.127 260.753L140.56 261.576C140.56 261.576 141.68 262.074 141.568 262.875L116.049 262.825Z" fill="white"/>
</g>
<path d="M128.655 255.36C128.655 255.483 128.028 255.539 127.412 255.92C126.796 256.301 126.471 256.838 126.353 256.788C126.236 256.738 126.426 256.021 127.182 255.55C127.938 255.08 128.683 255.27 128.655 255.36Z" fill="#263238"/>
<path d="M131.331 256.48C131.331 256.598 130.816 256.81 130.39 257.337C129.965 257.863 129.83 258.423 129.718 258.418C129.606 258.412 129.517 257.706 130.06 257.062C130.603 256.418 131.326 256.379 131.331 256.48Z" fill="#263238"/>
<path d="M132.843 259.706C132.731 259.706 132.558 259.106 132.882 258.423C133.207 257.74 133.784 257.471 133.84 257.578C133.896 257.684 133.526 258.042 133.28 258.608C133.034 259.174 132.966 259.694 132.843 259.706Z" fill="#263238"/>
<path d="M128.436 252.375C128.38 252.487 127.809 252.314 127.103 252.375C126.398 252.437 125.849 252.644 125.787 252.538C125.726 252.431 126.252 251.978 127.081 251.944C127.91 251.91 128.498 252.274 128.436 252.375Z" fill="#263238"/>
<g opacity="0.3">
<path d="M128.638 244.966L128.554 247.307L116.004 247.173L115.993 245.056L128.638 244.966Z" fill="#121214"/>
</g>
<path d="M128.487 249.715C128.069 249.834 127.627 249.834 127.21 249.715C126.474 249.581 125.771 249.307 125.138 248.909C124.993 248.831 124.862 248.728 124.752 248.606C124.673 248.517 124.625 248.404 124.615 248.285C124.605 248.166 124.633 248.047 124.696 247.946C124.76 247.858 124.845 247.786 124.942 247.736C125.039 247.687 125.146 247.661 125.256 247.66C125.417 247.66 125.577 247.682 125.732 247.727C126.468 247.907 127.148 248.269 127.708 248.78C128.296 249.34 128.498 249.794 128.453 249.816C128.408 249.838 128.112 249.469 127.512 249.015C127.167 248.756 126.791 248.539 126.392 248.371C126.155 248.273 125.91 248.196 125.659 248.142C125.39 248.069 125.16 248.069 125.099 248.186C125.037 248.304 125.071 248.254 125.127 248.332C125.211 248.418 125.307 248.492 125.412 248.55C125.627 248.695 125.852 248.824 126.084 248.937C126.481 249.135 126.895 249.294 127.322 249.413C127.716 249.489 128.105 249.59 128.487 249.715Z" fill="#263238"/>
<path d="M128.324 249.894C128.081 249.531 127.963 249.099 127.988 248.662C127.957 247.904 128.131 247.152 128.492 246.484C128.562 246.316 128.673 246.168 128.817 246.055C128.96 245.942 129.129 245.868 129.309 245.84C129.428 245.838 129.544 245.871 129.644 245.934C129.743 245.998 129.822 246.09 129.869 246.198C129.934 246.349 129.98 246.507 130.004 246.669C130.059 247.051 130.038 247.44 129.942 247.814C129.846 248.188 129.677 248.539 129.444 248.847C128.94 249.508 128.419 249.659 128.408 249.614C128.397 249.57 128.805 249.312 129.186 248.679C129.409 248.313 129.548 247.902 129.595 247.475C129.628 247.23 129.628 246.981 129.595 246.736C129.556 246.467 129.455 246.249 129.354 246.277C129.253 246.305 129.007 246.478 128.901 246.691C128.775 246.913 128.67 247.145 128.587 247.386C128.441 247.797 128.356 248.227 128.335 248.662C128.24 249.413 128.391 249.878 128.324 249.894Z" fill="#263238"/>
<path d="M115.791 180.18L141.058 213.758L129.237 223.91L117.073 208.001L115.791 180.18Z" fill="#263238"/>
<path d="M62.2891 181.787C62.2891 181.787 102.945 169.4 106.669 169.557C110.393 169.714 117.46 183.159 117.46 183.159L106.047 182.745C103.119 189.93 97.7091 197.305 91.6163 204.775L68.2811 203.689L62.2891 181.787Z" fill="#263238"/>
<path d="M95.5197 171.998C95.5197 172.077 91.3645 173.387 86.1901 174.927C81.0157 176.467 76.7989 177.649 76.7765 177.57C76.7541 177.492 80.9261 176.182 86.1061 174.647C91.2861 173.113 95.4973 171.92 95.5197 171.998Z" fill="#263238"/>
<path d="M104.967 182.526H116.38C119.157 182.528 121.866 183.391 124.133 184.996C126.401 186.6 128.115 188.868 129.041 191.486C129.931 194.012 130.323 196.686 130.195 199.36L129.304 245.84H113.944L113.664 231L111.72 202.793L98.4204 203.353L90.8828 202.882L104.967 182.526Z" fill="#263238"/>
<path d="M105.308 182.297C105.257 182.628 105.184 182.955 105.09 183.277C104.87 184.165 104.601 185.04 104.283 185.898C103.819 187.171 103.257 188.407 102.603 189.594C101.789 191.05 100.852 192.434 99.8034 193.732C97.8684 196.04 95.7964 198.23 93.5986 200.29L91.6274 202.188C91.3958 202.43 91.1448 202.653 90.877 202.854C91.0822 202.59 91.3048 202.339 91.5434 202.104C91.9858 201.634 92.6634 200.984 93.453 200.144C95.603 198.05 97.6458 195.848 99.5738 193.547C101.455 191.212 102.976 188.609 104.087 185.825C104.491 184.75 104.799 183.865 104.978 183.249C105.062 182.923 105.173 182.605 105.308 182.297Z" fill="#455A64"/>
<path d="M119.28 182.84C118.587 182.842 117.893 182.808 117.203 182.739C115.926 182.666 114.156 182.616 112.208 182.655C110.259 182.694 108.489 182.812 107.207 182.896C106.519 182.975 105.827 183.011 105.135 183.002C105.316 182.939 105.504 182.9 105.695 182.885C106.048 182.829 106.563 182.762 107.201 182.689C108.478 182.554 110.248 182.403 112.241 182.364C113.923 182.324 115.606 182.382 117.281 182.538C117.92 182.594 118.435 182.666 118.793 182.722C118.959 182.744 119.123 182.783 119.28 182.84Z" fill="#455A64"/>
<path d="M113.876 237.328C113.849 237.201 113.834 237.071 113.831 236.942C113.831 236.656 113.797 236.292 113.769 235.822C113.725 234.819 113.663 233.43 113.59 231.734C113.439 228.284 113.232 223.518 112.901 218.26C112.571 213.002 112.179 208.242 111.893 204.82C111.753 203.14 111.641 201.74 111.563 200.743C111.529 200.284 111.507 199.914 111.485 199.623C111.469 199.493 111.469 199.361 111.485 199.231C111.514 199.359 111.534 199.488 111.546 199.618L111.681 200.738C111.787 201.729 111.927 203.112 112.106 204.803C112.442 208.242 112.862 213.002 113.198 218.243C113.534 223.485 113.702 228.278 113.803 231.734C113.837 233.414 113.87 234.819 113.893 235.822C113.893 236.281 113.893 236.65 113.893 236.942C113.902 237.071 113.896 237.2 113.876 237.328Z" fill="#263238"/>
<path d="M130.217 197.59C130.301 197.59 130.245 208.23 130.099 221.351C129.954 234.472 129.763 245.112 129.685 245.112C129.607 245.112 129.657 234.472 129.808 221.346C129.959 208.219 130.139 197.59 130.217 197.59Z" fill="#455A64"/>
<path d="M117.684 195.854C116.557 196.295 115.46 196.811 114.403 197.4C113.4 198.082 112.444 198.83 111.541 199.64C111.713 199.321 111.941 199.035 112.213 198.794C113.439 197.543 114.955 196.614 116.626 196.09C116.962 195.951 117.321 195.871 117.684 195.854Z" fill="#263238"/>
<g opacity="0.3">
<path d="M90.8828 202.86C93.9852 203.42 97.3844 202.485 100.039 200.827C102.689 199.17 104.611 196.568 105.415 193.547C105.756 192.209 105.857 190.82 106.199 189.482C106.468 188.108 107.202 186.868 108.276 185.97C109.576 185.002 112.756 184.386 113.731 183.086C113.731 182.896 109.934 183.333 108.663 183.406C107.274 183.478 104.95 183.831 105 183.669C104.633 185.015 104.184 186.337 103.656 187.628C100.89 192.382 94.814 199.388 90.8828 202.882" fill="#121214"/>
</g>
<path d="M27.5303 235.726L31.8535 263.99H36.1375L34.0263 235.838L27.5303 235.726Z" fill="#263238"/>
<path d="M103.572 235.838V263.99H108.097L109.783 235.726L103.572 235.838Z" fill="#263238"/>
<path d="M26.7627 148.4C26.7627 148.4 20.7091 148.641 18.8555 151.2C15.5907 155.68 17.4275 159.555 17.2427 160.877C17.0579 162.198 27.5299 235.726 27.5299 235.726H31.8419L109.76 236.449L113.523 227.36L111.72 202.77L90.8827 202.86C90.8827 202.86 82.3483 178.366 74.8891 176.73C69.8491 175.61 57.9715 176.014 50.8091 176.383C49.0592 176.474 47.3164 176.102 45.7561 175.305C44.1959 174.507 42.8734 173.313 41.9219 171.842L26.7627 148.4Z" fill="#455A64"/>
<path d="M95.8447 232.837C95.8447 232.837 95.4135 232.893 94.5847 232.932C93.7559 232.971 92.5351 232.999 90.9559 233.01C87.7919 233.055 83.2055 233.066 77.5159 233.061C66.0863 233.061 50.1543 232.966 32.1559 232.809H32.0383V232.697C31.7135 231.157 31.3831 229.572 31.0471 227.965C30.7111 226.358 30.3919 224.711 30.0615 223.059C26.1415 203.112 23.8567 184.834 22.6247 171.578C22.0031 164.954 21.6335 159.578 21.3983 155.859C21.2975 154.011 21.2135 152.572 21.1631 151.581C21.1631 151.099 21.1239 150.73 21.1071 150.461C21.0903 150.192 21.1071 150.08 21.1071 150.08C21.1071 150.08 21.1071 150.209 21.1463 150.461C21.1855 150.713 21.1911 151.094 21.2247 151.581C21.2919 152.566 21.3927 154.006 21.5159 155.854C21.7847 159.566 22.1879 164.937 22.8319 171.562C24.0807 184.8 26.3823 203.062 30.2911 222.998C30.6196 224.651 30.9481 226.285 31.2767 227.898C31.6052 229.51 31.9356 231.088 32.2679 232.63L32.1279 232.518L77.4879 232.87L90.9279 232.904H94.5567C94.9711 232.904 95.2791 232.87 95.4919 232.87L95.8447 232.837Z" fill="#263238"/>
<path d="M95.0207 236.32C95.0167 236.201 95.028 236.083 95.0543 235.967C95.0935 235.71 95.1383 235.379 95.1999 234.976C95.2615 234.573 95.3567 234.018 95.4239 233.402C95.4911 232.786 95.6031 232.092 95.6535 231.314C95.7039 230.535 95.8047 229.695 95.8383 228.777C95.8719 227.858 95.8999 226.89 95.9167 225.859C95.9058 223.629 95.7749 221.4 95.5247 219.184C95.2548 216.97 94.8697 214.772 94.3711 212.598C93.9007 210.594 93.3967 208.813 92.9095 207.329C92.6911 206.584 92.4391 205.929 92.2375 205.341C92.0359 204.753 91.8511 204.254 91.6775 203.851L91.3303 202.91C91.2821 202.803 91.2482 202.69 91.2295 202.574C91.2921 202.673 91.3446 202.778 91.3863 202.888L91.7839 203.806C91.9575 204.21 92.1647 204.702 92.3439 205.285C92.5231 205.867 92.8255 206.522 93.0607 207.267C93.5703 208.74 94.1023 210.526 94.5895 212.537C95.1038 214.718 95.4982 216.926 95.7711 219.15C96.0205 221.382 96.1438 223.625 96.1407 225.87C96.1407 226.906 96.1071 227.886 96.0343 228.805C95.9615 229.723 95.8999 230.574 95.8159 231.347C95.7319 232.12 95.6255 232.826 95.5359 233.436C95.4463 234.046 95.3567 234.556 95.2671 235.004C95.1775 235.452 95.1159 235.732 95.0655 235.99C95.0615 236.101 95.0465 236.212 95.0207 236.32Z" fill="#263238"/>
<path d="M37.9062 183.607C38.0019 183.509 38.107 183.421 38.2198 183.344C38.4606 183.159 38.7798 182.924 39.1606 182.622L39.8495 182.112C40.1071 181.938 40.4094 181.77 40.7174 181.58C41.4131 181.131 42.137 180.727 42.8846 180.37L44.1838 179.76C44.6318 179.536 45.1303 179.374 45.6287 179.166C46.1271 178.959 46.6478 178.746 47.1966 178.573L48.8766 178.013C51.414 177.266 54.0079 176.727 56.6326 176.4C59.2482 176.055 61.8849 175.894 64.5231 175.918C65.7382 175.918 66.8918 175.997 67.9726 176.036C69.0534 176.075 70.0503 176.204 70.9631 176.333C72.4025 176.518 73.8307 176.782 75.2414 177.122L76.3615 177.436C76.4953 177.469 76.6264 177.512 76.7534 177.565C76.6151 177.554 76.4782 177.53 76.3447 177.492L75.1911 177.229C74.1943 177.022 72.7326 176.747 70.9126 176.54C70.0054 176.422 69.003 176.366 67.9334 176.277C66.8638 176.187 65.6934 176.159 64.495 176.187C61.8736 176.181 59.2546 176.347 56.655 176.686C54.0513 177.012 51.4769 177.54 48.955 178.265L47.275 178.786C46.715 178.954 46.2166 179.178 45.7126 179.346C45.2086 179.514 44.7159 179.704 44.2679 179.906C43.8199 180.107 43.3831 180.32 42.9687 180.516C42.2223 180.862 41.4968 181.251 40.7958 181.681C40.4822 181.86 40.1854 182.022 39.9166 182.185L39.2222 182.678L38.2534 183.35C38.1457 183.446 38.0295 183.532 37.9062 183.607Z" fill="#263238"/>
<path d="M84.2301 187.6C84.2301 187.6 84.2301 187.662 84.1741 187.785C84.1181 187.908 84.0789 188.082 83.9837 188.317C83.6935 188.981 83.3067 189.598 82.8357 190.148C82.0744 191.012 81.1615 191.729 80.1421 192.265C79.5043 192.592 78.8414 192.867 78.1597 193.088C77.3877 193.318 76.5969 193.479 75.7965 193.57C73.9616 193.726 72.1136 193.621 70.3085 193.256C68.3541 192.909 66.3213 192.343 64.1485 191.828C61.9149 191.238 59.6155 190.933 57.3053 190.921C56.0903 190.938 54.8838 191.127 53.7213 191.481C52.5257 191.849 51.4011 192.417 50.3949 193.161C48.4363 194.68 46.7864 196.56 45.5341 198.699C44.2517 200.732 43.2381 202.832 42.1741 204.775C41.1894 206.633 40.0146 208.384 38.6685 210C37.4915 211.427 36.0233 212.586 34.3621 213.399C32.9829 214.064 31.4796 214.432 29.9493 214.48C28.7978 214.508 27.6532 214.294 26.5893 213.853C26.1977 213.689 25.8226 213.489 25.4693 213.254C25.1781 213.035 24.9093 212.845 24.7525 212.694L24.3661 212.285C24.2765 212.19 24.2373 212.139 24.2373 212.139C24.2373 212.139 24.2933 212.178 24.3829 212.262L24.7917 212.649C24.9765 212.806 25.2285 212.985 25.5141 213.209C25.8698 213.429 26.2446 213.616 26.6341 213.769C27.6869 214.182 28.8137 214.372 29.9437 214.329C31.4443 214.274 32.9176 213.912 34.2725 213.265C35.8994 212.455 37.3365 211.31 38.4893 209.905C39.8153 208.288 40.9713 206.539 41.9389 204.686C43.0085 202.748 44.0221 200.642 45.2989 198.587C46.5706 196.423 48.2453 194.522 50.2325 192.987C51.264 192.228 52.4146 191.645 53.6373 191.262C54.8281 190.907 56.0626 190.718 57.3053 190.702C59.6408 190.717 61.9648 191.03 64.2213 191.632C66.3773 192.158 68.4045 192.752 70.3365 193.088C72.1226 193.453 73.9508 193.568 75.7685 193.43C76.5551 193.348 77.3328 193.196 78.0925 192.976C78.7678 192.766 79.4251 192.502 80.0581 192.186C81.0668 191.67 81.9751 190.978 82.7405 190.142C83.3843 189.39 83.8888 188.529 84.2301 187.6Z" fill="white"/>
<path d="M112.711 223.44L112.465 223.502L111.743 223.647C111.362 223.741 110.988 223.859 110.623 224C110.383 224.086 110.149 224.187 109.923 224.302C109.657 224.418 109.399 224.551 109.15 224.7C107.855 225.446 106.65 226.338 105.56 227.36C104.261 228.536 102.872 229.975 101.17 231.392C100.285 232.147 99.3193 232.802 98.2914 233.346C97.742 233.637 97.171 233.884 96.5834 234.086L95.6594 234.338C95.3433 234.409 95.0236 234.463 94.7018 234.5C93.3542 234.664 91.9886 234.596 90.6641 234.298C89.2663 233.971 87.9154 233.469 86.6433 232.803C83.9431 231.349 81.4448 229.547 79.2121 227.444C76.8601 225.31 74.4577 223.054 71.6577 221.206C70.286 220.285 68.8009 219.545 67.2393 219.005C65.7233 218.49 64.1232 218.267 62.5241 218.35C60.9814 218.456 59.4672 218.819 58.0441 219.425C56.6748 220.007 55.3546 220.698 54.0961 221.491C51.6209 223.02 49.3697 224.655 47.0793 225.904C41.8344 228.726 35.8439 229.853 29.9321 229.13C28.6587 228.984 27.3998 228.731 26.1689 228.374C26.2537 228.381 26.3379 228.394 26.4209 228.413L27.1433 228.57C27.7761 228.704 28.7225 228.878 29.9433 229.018C33.4059 229.4 36.909 229.159 40.2865 228.306C42.6132 227.715 44.8559 226.833 46.9617 225.68C49.2017 224.431 51.4753 222.796 53.9561 221.25C55.2248 220.446 56.5564 219.746 57.9377 219.156C59.388 218.531 60.9325 218.153 62.5073 218.036C64.1423 217.949 65.7789 218.175 67.3289 218.702C68.9148 219.248 70.4212 220.001 71.8089 220.942C74.6425 222.807 77.0505 225.075 79.3969 227.209C81.6095 229.298 84.085 231.091 86.7609 232.54C88.0095 233.22 89.34 233.738 90.7201 234.08C92.0141 234.378 93.3497 234.45 94.6682 234.293C94.9844 234.258 95.2985 234.206 95.6089 234.136L96.5162 233.901C97.0932 233.702 97.6547 233.46 98.1962 233.178C99.2149 232.649 100.171 232.006 101.047 231.263C102.727 229.869 104.149 228.463 105.459 227.276C106.558 226.245 107.774 225.346 109.083 224.599C109.337 224.452 109.6 224.323 109.872 224.213C110.101 224.096 110.339 223.996 110.583 223.916C110.963 223.785 111.35 223.674 111.743 223.586L112.471 223.468L112.711 223.44Z" fill="white"/>
<path d="M34.7767 162.243C34.7581 162.484 34.7073 162.721 34.6255 162.949C34.4389 163.583 34.1874 164.197 33.8751 164.78C32.8576 166.733 31.2658 168.327 29.3142 169.348C27.3626 170.368 25.1452 170.765 22.9607 170.486C22.3053 170.41 21.6597 170.266 21.0343 170.055C20.7992 169.991 20.5733 169.897 20.3623 169.775C21.2227 170.007 22.0985 170.177 22.9831 170.285C25.1226 170.504 27.2794 170.09 29.1858 169.095C31.0922 168.099 32.6643 166.566 33.7071 164.685C34.1186 163.896 34.476 163.08 34.7767 162.243Z" fill="white"/>
<path d="M210.029 88.6592H104.155C102.009 88.6592 100.269 90.3992 100.269 92.5456V121.206C100.269 123.353 102.009 125.093 104.155 125.093H210.029C212.175 125.093 213.915 123.353 213.915 121.206V92.5456C213.915 90.3992 212.175 88.6592 210.029 88.6592Z" fill="white"/>
<path d="M210 125.093C210.252 125.076 210.502 125.046 210.751 125.003C211.478 124.855 212.148 124.499 212.677 123.978C213.07 123.604 213.376 123.147 213.573 122.64C213.801 122.025 213.895 121.368 213.847 120.714C213.847 119.286 213.847 117.634 213.847 115.78C213.847 112.062 213.847 107.52 213.847 102.25C213.847 99.6128 213.847 96.7904 213.847 93.8C213.896 93.0506 213.851 92.2981 213.713 91.56C213.515 90.8085 213.089 90.1364 212.495 89.6354C211.901 89.1343 211.166 88.8287 210.392 88.76C209.603 88.7264 208.768 88.76 207.939 88.76L104.16 88.8048C103.549 88.8053 102.947 88.9552 102.407 89.2416C101.87 89.5272 101.408 89.9382 101.063 90.44C100.725 90.9426 100.51 91.5183 100.436 92.12C100.386 92.7136 100.436 93.3632 100.436 93.9792V101.433C100.436 106.368 100.436 111.222 100.436 115.993V119.56C100.436 120.154 100.436 120.747 100.436 121.33C100.459 121.897 100.609 122.451 100.873 122.954C101.138 123.449 101.51 123.879 101.963 124.213C102.415 124.546 102.936 124.774 103.488 124.88C104.046 124.942 104.607 124.963 105.168 124.942H120.4L167.043 124.975L198.487 125.02L207.038 125.048H209.278H210.034C210.034 125.048 209.782 125.048 209.278 125.048H207.038H198.487L167.043 125.093L120.4 125.126H105.191C104.605 125.151 104.019 125.129 103.438 125.059C102.534 124.897 101.713 124.43 101.112 123.736C100.511 123.042 100.165 122.163 100.134 121.246C100.134 120.646 100.134 120.064 100.134 119.47V93.8784C100.134 93.2456 100.134 92.6464 100.162 91.9856C100.235 91.3336 100.466 90.7093 100.836 90.1675C101.206 89.6257 101.703 89.1828 102.284 88.8776C102.865 88.5689 103.513 88.4074 104.171 88.4072L207.923 88.452C208.757 88.452 209.569 88.452 210.392 88.452C211.205 88.5263 211.975 88.848 212.599 89.3737C213.223 89.8994 213.67 90.6039 213.881 91.392C213.981 91.77 214.026 92.1604 214.015 92.5512V93.6712C214.015 96.6616 214.015 99.484 214.015 102.122C214.015 107.391 214.015 111.933 214.015 115.651C214.015 117.505 214.015 119.157 214.015 120.585C214.062 121.25 213.963 121.917 213.724 122.539C213.477 123.142 213.085 123.673 212.581 124.086C212.078 124.498 211.479 124.779 210.84 124.902C210.655 124.936 210.468 124.957 210.28 124.964L210 125.093Z" fill="#263238"/>
<path d="M205.727 96.1352C205.69 96.1355 205.654 96.1215 205.626 96.096C205.6 96.0689 205.586 96.0328 205.586 95.9952C205.586 95.9576 205.6 95.9215 205.626 95.8944L208.426 93.212C208.454 93.186 208.49 93.1714 208.527 93.1714C208.565 93.1714 208.601 93.186 208.628 93.212C208.654 93.2382 208.668 93.2733 208.668 93.31C208.668 93.3466 208.654 93.3818 208.628 93.408L205.828 96.0904C205.815 96.1046 205.8 96.1159 205.782 96.1236C205.765 96.1313 205.746 96.1353 205.727 96.1352Z" fill="#263238"/>
<path d="M208.516 96.1464C208.498 96.1471 208.481 96.144 208.464 96.1372C208.448 96.1305 208.433 96.1202 208.421 96.1072L205.649 93.4024C205.635 93.3898 205.625 93.3747 205.618 93.3578C205.61 93.3409 205.606 93.3228 205.606 93.3044C205.606 93.286 205.61 93.2679 205.618 93.251C205.625 93.2342 205.635 93.219 205.649 93.2064C205.675 93.1808 205.71 93.1664 205.747 93.1664C205.784 93.1664 205.819 93.1808 205.845 93.2064L208.645 95.9168C208.671 95.943 208.685 95.9782 208.685 96.0148C208.685 96.0515 208.671 96.0866 208.645 96.1128C208.628 96.1291 208.608 96.1408 208.585 96.1467C208.562 96.1526 208.539 96.1525 208.516 96.1464Z" fill="#263238"/>
<path d="M124.757 113.954L123.637 112.336C122.948 111.361 122.579 110.197 122.579 109.004V105.364C122.579 103.945 122.07 102.574 121.145 101.498C120.221 100.422 118.941 99.7138 117.539 99.5008V97.7648C117.539 97.5524 117.454 97.3487 117.304 97.1985C117.154 97.0484 116.95 96.964 116.738 96.964C116.633 96.964 116.529 96.9847 116.432 97.0251C116.335 97.0654 116.247 97.1244 116.174 97.1989C116.1 97.2733 116.041 97.3616 116.002 97.4588C115.962 97.5559 115.942 97.6599 115.943 97.7648V99.4448C114.499 99.6161 113.168 100.311 112.202 101.398C111.236 102.484 110.702 103.888 110.701 105.342V109.11C110.7 110.406 110.264 111.664 109.463 112.683L108.483 113.932L124.757 113.954Z" fill="#264FA8"/>
<path d="M115.758 116.598C116.201 116.777 116.685 116.829 117.156 116.748C117.627 116.667 118.066 116.456 118.424 116.138C118.73 115.856 118.961 115.502 119.096 115.108L114.353 115.074C114.468 115.412 114.653 115.722 114.895 115.984C115.137 116.246 115.431 116.455 115.758 116.598Z" fill="#264FA8"/>
<path d="M188.72 100.968C188.72 101.046 175.991 101.114 160.289 101.114C144.586 101.114 131.857 101.046 131.857 100.968C131.857 100.89 144.586 100.822 160.289 100.822C175.991 100.822 188.72 100.89 188.72 100.968Z" fill="#263238"/>
<path d="M202.093 107.85C202.093 107.929 186.363 107.996 166.964 107.996C147.566 107.996 131.83 107.929 131.83 107.85C131.83 107.772 147.555 107.705 166.964 107.705C186.374 107.705 202.093 107.766 202.093 107.85Z" fill="#E0E0E0"/>
<path d="M202.093 112C202.093 112.078 186.363 112.146 166.964 112.146C147.566 112.146 131.83 112.078 131.83 112C131.83 111.922 147.555 111.854 166.964 111.854C186.374 111.854 202.093 111.888 202.093 112Z" fill="#E0E0E0"/>
<path d="M191.845 130.782H121.537C119.39 130.782 117.65 132.522 117.65 134.669V151.928C117.65 154.074 119.39 155.814 121.537 155.814H191.845C193.991 155.814 195.731 154.074 195.731 151.928V134.669C195.731 132.522 193.991 130.782 191.845 130.782Z" fill="#FAFAFA"/>
<path d="M191.845 155.814C191.845 155.814 192.018 155.814 192.354 155.758C192.853 155.693 193.333 155.527 193.766 155.271C194.342 154.935 194.821 154.454 195.155 153.877C195.49 153.3 195.669 152.646 195.675 151.978V150.192C195.675 147.661 195.675 144.592 195.647 140.991C195.647 139.199 195.647 137.278 195.647 135.246C195.674 134.738 195.632 134.23 195.524 133.734C195.397 133.23 195.167 132.759 194.846 132.35C194.518 131.924 194.102 131.574 193.627 131.323C193.152 131.072 192.628 130.926 192.091 130.894L121.531 130.928C120.702 130.927 119.895 131.202 119.239 131.708C118.582 132.215 118.112 132.925 117.902 133.728C117.804 134.129 117.764 134.542 117.785 134.954V136.226C117.785 137.071 117.785 137.906 117.785 138.751V151.071C117.785 151.474 117.785 151.883 117.785 152.264C117.826 152.649 117.922 153.026 118.07 153.384C118.375 154.088 118.887 154.683 119.539 155.089C120.19 155.495 120.949 155.694 121.716 155.658H130.883L162.596 155.686L183.982 155.736L189.795 155.764H191.307H191.822C191.822 155.764 191.643 155.764 191.307 155.764H189.795H183.982L162.596 155.809L130.883 155.842H121.738C120.915 155.88 120.099 155.667 119.399 155.231C118.699 154.795 118.148 154.157 117.818 153.401C117.663 153.017 117.561 152.614 117.516 152.202C117.482 151.777 117.516 151.385 117.516 150.982V134.96C117.495 134.523 117.539 134.085 117.645 133.661C117.868 132.792 118.374 132.022 119.085 131.473C119.795 130.924 120.667 130.628 121.565 130.631L192.125 130.682C192.966 130.736 193.769 131.055 194.417 131.595C195.065 132.134 195.525 132.865 195.731 133.683C195.843 134.194 195.885 134.718 195.854 135.24C195.854 137.273 195.854 139.194 195.854 140.986C195.854 144.57 195.854 147.655 195.854 150.186C195.854 150.814 195.854 151.413 195.854 151.973C195.848 152.504 195.731 153.028 195.513 153.513C195.169 154.271 194.595 154.902 193.872 155.316C193.431 155.569 192.943 155.729 192.438 155.786C192.242 155.812 192.043 155.822 191.845 155.814Z" fill="#263238"/>
<path d="M190.109 135.962C190.09 135.962 190.071 135.958 190.054 135.95C190.037 135.943 190.021 135.932 190.008 135.918C189.995 135.905 189.984 135.89 189.977 135.873C189.97 135.856 189.966 135.838 189.966 135.82C189.966 135.801 189.97 135.783 189.977 135.766C189.984 135.749 189.995 135.734 190.008 135.722L191.929 133.879C191.942 133.866 191.958 133.855 191.975 133.848C191.992 133.84 192.011 133.836 192.03 133.836C192.049 133.836 192.067 133.84 192.085 133.848C192.102 133.855 192.118 133.866 192.131 133.879C192.156 133.905 192.171 133.941 192.171 133.977C192.171 134.014 192.156 134.049 192.131 134.075L190.204 135.918C190.192 135.931 190.178 135.942 190.161 135.95C190.145 135.958 190.127 135.962 190.109 135.962Z" fill="#263238"/>
<path d="M192.024 135.968C191.987 135.968 191.951 135.954 191.923 135.929L190.019 134.07C189.999 134.043 189.989 134.009 189.992 133.976C189.994 133.942 190.008 133.91 190.032 133.887C190.056 133.863 190.088 133.848 190.121 133.846C190.155 133.844 190.188 133.853 190.215 133.874L192.119 135.733C192.145 135.759 192.159 135.794 192.159 135.831C192.159 135.867 192.145 135.903 192.119 135.929C192.093 135.953 192.059 135.967 192.024 135.968Z" fill="#263238"/>
<path d="M134.473 148.159L133.689 147.039C133.217 146.368 132.963 145.569 132.961 144.749V142.24C132.96 141.267 132.612 140.326 131.978 139.588C131.344 138.849 130.467 138.362 129.506 138.214V137.021C129.506 136.872 129.447 136.73 129.342 136.625C129.237 136.52 129.094 136.461 128.946 136.461C128.797 136.461 128.655 136.52 128.55 136.625C128.445 136.73 128.386 136.872 128.386 137.021V138.197C127.394 138.313 126.479 138.79 125.815 139.536C125.152 140.283 124.785 141.247 124.785 142.246V144.833C124.786 145.722 124.488 146.586 123.939 147.286L123.262 148.148L134.473 148.159Z" fill="#455A64"/>
<path d="M128.291 149.979C128.595 150.101 128.928 150.136 129.251 150.081C129.574 150.026 129.876 149.882 130.122 149.666C130.334 149.472 130.492 149.227 130.581 148.954H127.322C127.406 149.182 127.535 149.39 127.701 149.566C127.868 149.743 128.068 149.883 128.291 149.979Z" fill="#455A64"/>
<path d="M178.405 139.238C178.405 139.317 169.658 139.384 158.867 139.384C148.076 139.384 139.334 139.317 139.334 139.238C139.334 139.16 148.081 139.093 158.867 139.093C169.652 139.093 178.405 139.154 178.405 139.238Z" fill="#263238"/>
<path d="M187.6 143.965C187.6 144.049 176.792 144.11 163.464 144.11C150.136 144.11 139.322 144.049 139.322 143.965C139.322 143.881 150.125 143.819 163.464 143.819C176.803 143.819 187.6 143.886 187.6 143.965Z" fill="#E0E0E0"/>
<path d="M187.6 146.798C187.6 146.877 176.792 146.944 163.464 146.944C150.136 146.944 139.322 146.877 139.322 146.798C139.322 146.72 150.125 146.653 163.464 146.653C176.803 146.653 187.6 146.72 187.6 146.798Z" fill="#E0E0E0"/>
<path d="M191.548 159.706H121.828C119.681 159.706 117.941 161.446 117.941 163.593V180.662C117.941 182.808 119.681 184.548 121.828 184.548H191.548C193.694 184.548 195.434 182.808 195.434 180.662V163.593C195.434 161.446 193.694 159.706 191.548 159.706Z" fill="#FAFAFA"/>
<path d="M191.548 184.554C191.548 184.554 191.722 184.554 192.052 184.503C192.547 184.436 193.023 184.27 193.452 184.016C194.157 183.611 194.716 182.993 195.048 182.252C195.255 181.782 195.367 181.276 195.379 180.762V178.993C195.379 176.484 195.379 173.421 195.379 169.865C195.379 168.084 195.379 166.18 195.379 164.164C195.408 163.66 195.367 163.155 195.256 162.663C195.132 162.164 194.905 161.697 194.589 161.291C194.265 160.867 193.854 160.516 193.384 160.263C192.914 160.01 192.395 159.86 191.862 159.824L121.862 159.852C121.035 159.857 120.234 160.134 119.58 160.64C118.926 161.146 118.457 161.853 118.244 162.652C118.142 163.049 118.099 163.458 118.116 163.867V167.63C118.116 170.964 118.116 174.242 118.116 177.464V179.866C118.116 180.264 118.116 180.673 118.116 181.048C118.154 181.433 118.248 181.81 118.396 182.168C118.696 182.868 119.202 183.46 119.845 183.867C120.489 184.274 121.241 184.476 122.002 184.447H131.096L162.563 184.475L183.781 184.526L189.549 184.554H191.05H191.56C191.56 184.554 191.386 184.554 191.05 184.554H189.549L183.781 184.582L162.563 184.626L131.096 184.66H121.991C121.175 184.687 120.37 184.468 119.679 184.032C118.989 183.595 118.447 182.962 118.121 182.213C117.965 181.831 117.863 181.43 117.819 181.02C117.819 180.606 117.819 180.214 117.819 179.81C117.819 179.015 117.819 178.214 117.819 177.408V163.845C117.802 163.411 117.849 162.977 117.959 162.557C118.192 161.696 118.702 160.936 119.411 160.394C120.119 159.852 120.987 159.559 121.879 159.561L191.879 159.622C192.44 159.662 192.986 159.821 193.48 160.088C193.975 160.356 194.406 160.726 194.746 161.174C195.073 161.604 195.311 162.095 195.446 162.618C195.553 163.126 195.595 163.646 195.569 164.164C195.569 166.18 195.569 168.084 195.569 169.865C195.569 173.421 195.569 176.484 195.541 178.993C195.541 179.614 195.541 180.208 195.541 180.762C195.522 181.438 195.329 182.098 194.979 182.677C194.63 183.256 194.137 183.734 193.548 184.066C193.109 184.318 192.623 184.476 192.12 184.531C191.93 184.554 191.739 184.562 191.548 184.554Z" fill="#263238"/>
<path d="M189.84 164.853C189.822 164.853 189.803 164.848 189.786 164.841C189.768 164.833 189.753 164.822 189.74 164.808C189.726 164.795 189.716 164.78 189.708 164.763C189.701 164.747 189.697 164.728 189.697 164.71C189.697 164.692 189.701 164.673 189.708 164.657C189.716 164.64 189.726 164.625 189.74 164.612L191.649 162.781C191.676 162.755 191.713 162.74 191.75 162.74C191.788 162.74 191.824 162.755 191.851 162.781C191.877 162.807 191.891 162.842 191.891 162.879C191.891 162.915 191.877 162.951 191.851 162.977L189.941 164.808C189.929 164.822 189.913 164.834 189.896 164.842C189.879 164.849 189.86 164.853 189.84 164.853Z" fill="#263238"/>
<path d="M191.755 164.858C191.718 164.859 191.682 164.845 191.654 164.819L189.767 162.96C189.74 162.934 189.725 162.898 189.725 162.861C189.724 162.824 189.738 162.788 189.764 162.761C189.79 162.734 189.826 162.719 189.863 162.719C189.901 162.718 189.936 162.732 189.963 162.758L191.85 164.606C191.876 164.633 191.89 164.668 191.89 164.704C191.89 164.741 191.876 164.776 191.85 164.802C191.827 164.833 191.793 164.853 191.755 164.858Z" fill="#263238"/>
<path d="M134.641 176.96L133.84 175.84C133.369 175.176 133.116 174.381 133.118 173.566V171.091C133.117 170.124 132.771 169.189 132.141 168.455C131.512 167.72 130.641 167.235 129.685 167.087V165.906C129.685 165.757 129.626 165.615 129.521 165.51C129.416 165.405 129.273 165.346 129.125 165.346C128.976 165.346 128.834 165.405 128.729 165.51C128.624 165.615 128.565 165.757 128.565 165.906V167.07C127.581 167.188 126.675 167.662 126.018 168.403C125.36 169.144 124.998 170.101 124.998 171.091V173.662C124.998 174.545 124.702 175.402 124.158 176.098L123.536 176.96H134.641Z" fill="#E0E0E0"/>
<path d="M128.504 178.763C128.806 178.884 129.137 178.918 129.458 178.863C129.779 178.807 130.078 178.664 130.324 178.45C130.532 178.257 130.688 178.014 130.777 177.744H127.546C127.627 177.97 127.754 178.178 127.919 178.353C128.084 178.528 128.283 178.668 128.504 178.763Z" fill="#E0E0E0"/>
<path d="M178.237 168.101C178.237 168.185 169.557 168.246 158.85 168.246C148.143 168.246 139.463 168.185 139.463 168.101C139.463 168.017 148.143 167.955 158.85 167.955C169.557 167.955 178.237 168 178.237 168.101Z" fill="#263238"/>
<path d="M187.376 172.794C187.376 172.878 176.647 172.939 163.42 172.939C150.192 172.939 139.463 172.878 139.463 172.794C139.463 172.71 150.187 172.648 163.42 172.648C176.652 172.648 187.376 172.715 187.376 172.794Z" fill="#E0E0E0"/>
<path d="M187.376 175.605C187.376 175.683 176.647 175.75 163.42 175.75C150.192 175.75 139.463 175.683 139.463 175.605C139.463 175.526 150.187 175.459 163.42 175.459C176.652 175.459 187.376 175.526 187.376 175.605Z" fill="#E0E0E0"/>
<path d="M248.897 152.729C243.101 155.736 238.655 160.905 235.457 166.594C232.26 172.284 230.199 178.539 228.177 184.738L226.374 216.72C233.122 205.24 238.537 191.75 239.999 178.522L235.519 178.119C238.532 177.66 241.057 175.482 242.664 172.894C244.272 170.307 245.1 167.328 245.907 164.394L240.419 165.2C244.743 162.287 247.779 157.821 248.897 152.729Z" fill="#455A64"/>
<path d="M248.897 152.729C243.101 155.736 238.655 160.905 235.457 166.594C232.26 172.284 230.199 178.539 228.177 184.738L226.374 216.72C233.122 205.24 238.537 191.75 239.999 178.522L235.519 178.119C238.532 177.66 241.057 175.482 242.664 172.894C244.272 170.307 245.1 167.328 245.907 164.394L240.419 165.2C244.743 162.287 247.779 157.821 248.897 152.729Z" fill="#264FA8"/>
<g opacity="0.3">
<path d="M248.897 152.729C243.101 155.736 238.655 160.905 235.457 166.594C232.26 172.284 230.199 178.539 228.177 184.738L226.374 216.72C233.122 205.24 238.537 191.75 239.999 178.522L235.519 178.119C238.532 177.66 241.057 175.482 242.664 172.894C244.272 170.307 245.1 167.328 245.907 164.394L240.419 165.2C244.743 162.287 247.779 157.821 248.897 152.729Z" fill="#121214"/>
</g>
<path d="M225.378 224.218C225.378 224.218 210.734 206.696 210.902 189.963H216.821C216.821 189.963 210.392 185.741 210.902 183.372C211.411 181.003 211.579 172.049 211.579 172.049L216.989 173.404C216.989 173.404 212.935 171.377 212.425 168.162C211.915 164.948 213.607 150.08 213.607 150.08C213.607 150.08 220.198 157.013 222.225 164.108C224.252 171.203 229.578 179.486 228.015 201.118C226.453 222.751 225.378 224.218 225.378 224.218Z" fill="#264FA8"/>
<path d="M232.798 225.87C232.798 225.87 248.662 215.303 252.185 201.818L247.43 200.525C247.43 200.525 253.523 198.531 253.63 196.521C253.736 194.51 255.562 187.27 255.562 187.27L250.919 187.174C250.919 187.174 254.621 186.43 255.735 183.96C256.85 181.49 258.72 169.165 258.72 169.165C258.72 169.165 251.905 173.292 248.724 178.556C245.543 183.82 239.45 189.308 235.973 207.043C232.495 224.778 232.798 225.87 232.798 225.87Z" fill="#264FA8"/>
<path d="M217.604 165.362C217.632 165.419 217.65 165.48 217.66 165.542C217.694 165.682 217.739 165.861 217.789 166.102C217.901 166.594 218.058 167.294 218.26 168.179C218.461 169.064 218.702 170.19 218.96 171.478C219.217 172.766 219.52 174.233 219.822 175.857C220.449 179.105 221.116 182.991 221.793 187.314C222.471 191.638 223.115 196.403 223.703 201.421C224.291 206.438 224.722 211.232 225.064 215.594C225.405 219.957 225.624 223.894 225.758 227.198C225.837 228.85 225.876 230.345 225.915 231.678C225.954 233.01 225.982 234.125 225.988 235.038C225.993 235.95 225.988 236.662 225.988 237.166V237.726C225.993 237.789 225.993 237.853 225.988 237.916C225.978 237.853 225.978 237.789 225.988 237.726C225.988 237.586 225.988 237.406 225.988 237.166C225.988 236.656 225.943 235.945 225.909 235.032C225.876 234.119 225.842 232.977 225.786 231.672C225.73 230.367 225.674 228.872 225.579 227.192C225.422 223.888 225.159 219.957 224.823 215.6C224.487 211.243 224.011 206.455 223.434 201.438C222.857 196.42 222.202 191.666 221.553 187.342C220.903 183.019 220.248 179.133 219.649 175.879C219.363 174.255 219.088 172.782 218.831 171.494C218.573 170.206 218.372 169.092 218.187 168.185C218.002 167.278 217.873 166.594 217.773 166.096C217.733 165.872 217.7 165.693 217.677 165.536C217.647 165.481 217.623 165.423 217.604 165.362Z" fill="#263238"/>
<path d="M223.345 234.948C223.345 234.948 209.944 219.75 205.789 210.56L208.925 209.222C206.651 209.597 204.316 208.617 202.552 207.133C200.788 205.649 199.489 203.694 198.217 201.768L202.356 201.068C198.555 199.98 195.318 197.472 193.317 194.062C198.201 194.869 202.619 197.551 206.259 200.9C209.147 203.679 211.772 206.72 214.099 209.983C215.268 211.553 216.286 213.229 217.14 214.99C219.391 219.643 223.35 229.365 223.345 234.948Z" fill="#264FA8"/>
<path d="M252.397 178.013C252.383 178.067 252.363 178.12 252.336 178.17L252.134 178.612C251.938 179.015 251.664 179.581 251.322 180.292C250.605 181.754 249.586 183.876 248.36 186.514C245.896 191.783 242.653 199.136 239.45 207.413C236.247 215.69 233.705 223.317 231.98 228.872C231.117 231.672 230.44 233.912 229.986 235.469C229.762 236.23 229.583 236.83 229.454 237.261L229.303 237.726C229.29 237.78 229.272 237.832 229.247 237.882C229.25 237.827 229.26 237.773 229.275 237.72C229.303 237.597 229.342 237.44 229.393 237.244C229.505 236.807 229.667 236.202 229.869 235.435C230.289 233.862 230.933 231.594 231.767 228.81C233.447 223.21 235.956 215.589 239.153 207.301C242.351 199.013 245.644 191.666 248.158 186.418C249.413 183.792 250.46 181.681 251.21 180.258C251.58 179.553 251.865 178.993 252.078 178.578L252.308 178.147C252.364 178.08 252.392 178.007 252.397 178.013Z" fill="#263238"/>
<path d="M224.481 241.466C224.446 241.377 224.423 241.282 224.414 241.186C224.375 240.962 224.33 240.699 224.28 240.38C224.173 239.68 224 238.666 223.753 237.423C223.507 236.18 223.165 234.713 222.723 233.094C222.281 231.476 221.715 229.734 221.043 227.92C220.371 226.106 219.609 224.426 218.887 222.919C218.165 221.413 217.437 220.086 216.798 218.999C216.16 217.913 215.628 217.028 215.241 216.429L214.81 215.734C214.753 215.658 214.707 215.573 214.676 215.482C214.676 215.482 214.749 215.55 214.861 215.701L215.342 216.362C215.762 216.922 216.328 217.801 216.989 218.882C217.649 219.962 218.389 221.295 219.145 222.802C219.901 224.308 220.645 226.005 221.334 227.842C222.023 229.678 222.566 231.431 223.014 233.055C223.462 234.679 223.765 236.163 223.983 237.418C224.201 238.672 224.347 239.691 224.409 240.397C224.442 240.722 224.465 240.99 224.487 241.214C224.497 241.298 224.495 241.383 224.481 241.466Z" fill="#263238"/>
<path d="M242.166 237.888H212.839V243.869H242.166V237.888Z" fill="#455A64"/>
<path d="M215.634 243.869L218.803 263.99H236.522L239.479 243.869H215.634Z" fill="#455A64"/>
<path d="M240.363 243.869C240.363 243.958 234.813 244.026 227.976 244.026C221.138 244.026 215.583 243.958 215.583 243.869C215.583 243.779 221.133 243.712 227.976 243.712C234.819 243.712 240.363 243.785 240.363 243.869Z" fill="#263238"/>
<path d="M68.1071 95.2504L68.7175 88.0152C65.1989 85.6765 62.6824 82.1062 61.6625 78.0062C60.6427 73.9061 61.1934 69.5729 63.2064 65.8583C65.2193 62.1437 68.5489 59.3164 72.5407 57.9322C76.5324 56.5479 80.8976 56.7069 84.7781 58.3778C88.6586 60.0486 91.7738 63.1106 93.5113 66.9618C95.2488 70.8129 95.4829 75.1747 94.1676 79.1897C92.8523 83.2047 90.0827 86.5825 86.4034 88.6592C82.724 90.7358 78.4009 91.361 74.2839 90.412L68.1071 95.2504Z" fill="white"/>
<path d="M68.1076 95.2504L74.3292 90.4568L74.3908 90.4064L74.318 90.3728L74.2788 90.468C75.6007 90.7744 76.9539 90.9248 78.3108 90.916C79.9263 90.8963 81.5308 90.6474 83.0764 90.1768C83.933 89.9185 84.765 89.585 85.5628 89.18C85.966 88.9616 86.3916 88.7544 86.8004 88.5248L88.01 87.7296C91.5107 85.1835 93.9129 81.4021 94.73 77.1512C95.2157 74.7889 95.1851 72.3494 94.6404 70C94.0276 67.5404 92.8804 65.246 91.2804 63.28C89.6247 61.2104 87.4996 59.5652 85.0812 58.4808L84.1348 58.0832C83.8212 57.9432 83.4852 57.8648 83.166 57.7584C82.8468 57.652 82.522 57.5344 82.1916 57.4728L81.2004 57.26C80.8725 57.1842 80.5392 57.1337 80.2036 57.1088L79.2068 56.9912H78.21C77.8799 56.9716 77.5489 56.9716 77.2188 56.9912C74.6368 57.1376 72.1204 57.861 69.8548 59.108C67.7077 60.2801 65.8454 61.9111 64.4004 63.8848C61.8139 67.4378 60.6858 71.8461 61.2476 76.2048C61.52 78.0436 62.0715 79.83 62.8828 81.5024C63.5996 82.9475 64.522 84.2811 65.6212 85.4616C66.5358 86.4443 67.5641 87.3147 68.6844 88.0544V88.0096C68.326 92.6352 68.1244 94.8976 68.1244 95.2504C68.158 94.8976 68.3652 92.6408 68.7852 88.0208V87.9928C67.6785 87.2486 66.6618 86.3785 65.7556 85.4C64.6722 84.2195 63.7633 82.89 63.0564 81.452C62.2604 79.792 61.7204 78.021 61.4548 76.1992C60.9086 71.8835 62.0325 67.5223 64.5964 64.008C66.0303 62.0612 67.8729 60.4519 69.9948 59.2928C72.2355 58.0635 74.723 57.3517 77.2748 57.2096C77.6012 57.19 77.9284 57.19 78.2548 57.2096H79.2404L80.226 57.3272C80.556 57.3529 80.8836 57.4035 81.206 57.4784L82.186 57.6856C82.5164 57.7472 82.8244 57.876 83.1492 57.9656C83.474 58.0552 83.7988 58.1504 84.1068 58.2904L85.0364 58.6824C87.4255 59.7531 89.5255 61.3771 91.1628 63.42C92.7367 65.3703 93.861 67.6438 94.4556 70.0784C95.0079 72.3871 95.0595 74.7873 94.6068 77.1176C93.7869 81.33 91.3967 85.0733 87.9204 87.5896L86.7276 88.3792C86.3188 88.6144 85.8988 88.816 85.5012 89.0344C84.71 89.4368 83.8856 89.7703 83.0372 90.0312C81.5074 90.5051 79.9177 90.7578 78.3164 90.7816C76.9681 90.7988 75.6223 90.6578 74.3068 90.3616L74.2732 90.4568V90.3672C70.3476 93.4808 68.3988 95.0208 68.1076 95.2504Z" fill="#263238"/>
<path d="M75.6903 65.3408L76.2111 75.1744C76.2334 75.5624 76.3964 75.9288 76.6696 76.2051C76.9429 76.4814 77.3075 76.6486 77.6951 76.6752C78.1002 76.7011 78.4999 76.5711 78.8122 76.3118C79.1245 76.0526 79.3259 75.6837 79.3751 75.2808L80.5679 65.4136C80.5885 65.2376 80.5715 65.0591 80.5181 64.8901C80.4647 64.7211 80.3761 64.5653 80.2581 64.433C80.1401 64.3007 79.9954 64.195 79.8336 64.1227C79.6717 64.0504 79.4964 64.0132 79.3191 64.0136H76.9223C76.7527 64.0148 76.5851 64.0506 76.4298 64.1189C76.2746 64.1873 76.135 64.2867 76.0196 64.411C75.9041 64.5353 75.8154 64.682 75.7588 64.8419C75.7022 65.0018 75.6789 65.1716 75.6903 65.3408Z" fill="#264FA8"/>
<path d="M80.2652 81.62C80.1157 82.0699 79.8362 82.4655 79.4619 82.7565C79.0877 83.0476 78.6355 83.2211 78.1626 83.2551C77.6897 83.2892 77.2174 83.1822 76.8053 82.9477C76.3932 82.7133 76.0599 82.3619 75.8476 81.938C75.6352 81.5141 75.5534 81.0367 75.6124 80.5663C75.6714 80.0959 75.8685 79.6535 76.179 79.2952C76.4894 78.9368 76.8992 78.6786 77.3564 78.5531C77.8136 78.4277 78.2977 78.4407 78.7476 78.5904C79.3504 78.7911 79.8489 79.2229 80.1335 79.791C80.4181 80.3592 80.4655 81.017 80.2652 81.62Z" fill="#264FA8"/>
</svg>
