<svg width="32" height="32" viewBox="0 0 32 32" fill="none" xmlns="http://www.w3.org/2000/svg">
<rect width="31.9175" height="31.9175" rx="15.9588" fill="#264FA8"/>
<path d="M15.4605 11.4707L15.4605 14.4632C15.4604 14.7277 15.3553 14.9814 15.1683 15.1685C14.9812 15.3556 14.7275 15.4607 14.4629 15.4607L11.4704 15.4606C11.2059 15.4606 10.9522 15.3555 10.7651 15.1684C10.578 14.9814 10.4729 14.7276 10.473 14.4631L10.473 11.4706C10.473 11.206 10.5781 10.9523 10.7652 10.7652C10.9522 10.5782 11.206 10.4731 11.4705 10.4731L14.463 10.4732C14.7276 10.4732 14.9813 10.5783 15.1684 10.7653C15.3554 10.9524 15.4605 11.2061 15.4605 11.4707ZM14.4629 16.4582L11.4704 16.4581C11.2059 16.4581 10.9521 16.5632 10.7651 16.7502C10.578 16.9373 10.4729 17.191 10.4729 17.4556L10.4728 20.4481C10.4728 20.7126 10.5779 20.9664 10.765 21.1534C10.9521 21.3405 11.2058 21.4456 11.4703 21.4456L14.4628 21.4457C14.7274 21.4457 14.9811 21.3406 15.1682 21.1535C15.3552 20.9664 15.4603 20.7127 15.4603 20.4482L15.4604 17.4557C15.4604 17.1911 15.3553 16.9374 15.1682 16.7503C14.9812 16.5633 14.7275 16.4582 14.4629 16.4582ZM20.448 10.4733L17.4555 10.4732C17.191 10.4732 16.9372 10.5783 16.7502 10.7654C16.5631 10.9524 16.458 11.2061 16.458 11.4707L16.458 14.4632C16.4579 14.7277 16.563 14.9815 16.7501 15.1685C16.9372 15.3556 17.1909 15.4607 17.4554 15.4607L20.4479 15.4608C20.7125 15.4608 20.9662 15.3557 21.1533 15.1686C21.3403 14.9815 21.4454 14.7278 21.4455 14.4633L21.4455 11.4708C21.4455 11.2062 21.3404 10.9525 21.1534 10.7654C20.9663 10.5784 20.7126 10.4733 20.448 10.4733ZM16.9566 19.4507C17.0889 19.4507 17.2157 19.3982 17.3093 19.3046C17.4028 19.2111 17.4554 19.0842 17.4554 18.952L17.4554 16.957C17.4554 16.8247 17.4029 16.6978 17.3093 16.6043C17.2158 16.5108 17.0889 16.4582 16.9567 16.4582C16.8244 16.4582 16.6975 16.5107 16.604 16.6043C16.5105 16.6978 16.4579 16.8247 16.4579 16.9569L16.4579 18.9519C16.4579 19.0842 16.5104 19.2111 16.6039 19.3046C16.6975 19.3981 16.8243 19.4507 16.9566 19.4507ZM20.9466 17.4558L19.4504 17.4557L19.4504 16.957C19.4504 16.8247 19.3979 16.6979 19.3043 16.6043C19.2108 16.5108 19.0839 16.4582 18.9517 16.4582C18.8194 16.4582 18.6925 16.5108 18.599 16.6043C18.5055 16.6978 18.4529 16.8247 18.4529 16.957L18.4528 20.4482L16.9566 20.4482C16.8243 20.4482 16.6975 20.5007 16.6039 20.5943C16.5104 20.6878 16.4578 20.8147 16.4578 20.9469C16.4578 21.0792 16.5104 21.2061 16.6039 21.2996C16.6974 21.3931 16.8243 21.4457 16.9566 21.4457L18.9516 21.4457C19.0839 21.4457 19.2107 21.3932 19.3042 21.2997C19.3978 21.2061 19.4503 21.0793 19.4503 20.947L19.4504 18.4532L20.9466 18.4533C21.0789 18.4533 21.2058 18.4007 21.2993 18.3072C21.3928 18.2137 21.4454 18.0868 21.4454 17.9545C21.4454 17.8223 21.3928 17.6954 21.2993 17.6019C21.2058 17.5083 21.0789 17.4558 20.9466 17.4558ZM20.9466 19.4508C20.8143 19.4508 20.6875 19.5033 20.5939 19.5968C20.5004 19.6904 20.4479 19.8172 20.4479 19.9495L20.4478 20.947C20.4478 21.0793 20.5004 21.2061 20.5939 21.2997C20.6874 21.3932 20.8143 21.4458 20.9466 21.4458C21.0789 21.4458 21.2057 21.3932 21.2992 21.2997C21.3928 21.2062 21.4453 21.0793 21.4453 20.947L21.4454 19.9495C21.4454 19.8173 21.3928 19.6904 21.2993 19.5969C21.2057 19.5033 21.0789 19.4508 20.9466 19.4508Z" fill="white"/>
</svg>
