<svg width="16" height="16" viewBox="0 0 16 16" fill="none" xmlns="http://www.w3.org/2000/svg">
<path d="M10.6666 10.5068V4.16683C10.6666 3.81321 10.5261 3.47407 10.2761 3.22402C10.026 2.97397 9.68687 2.8335 9.33325 2.8335H2.66659C2.31296 2.8335 1.97382 2.97397 1.72378 3.22402C1.47373 3.47407 1.33325 3.81321 1.33325 4.16683V10.1668C1.33325 10.3436 1.40349 10.5132 1.52851 10.6382C1.65354 10.7633 1.82311 10.8335 1.99992 10.8335H2.47325C2.60321 10.5368 2.81681 10.2844 3.08794 10.1071C3.35908 9.92986 3.67599 9.83546 3.99992 9.83546C4.32385 9.83546 4.64076 9.92986 4.91189 10.1071C5.18303 10.2844 5.39663 10.5368 5.52659 10.8335H10.4733C10.5221 10.7157 10.5866 10.6068 10.6666 10.5068ZM10.6666 10.5068C10.8398 10.2718 11.072 10.0867 11.3397 9.97005C11.6073 9.85343 11.901 9.80947 12.1911 9.8426C12.4812 9.87573 12.7574 9.98479 12.9919 10.1588C13.2263 10.3327 13.4108 10.5655 13.5266 10.8335H14.6666V8.90683C14.6668 8.42306 14.5355 7.94833 14.2866 7.5335L13.4666 6.16683L12.8599 5.16016C12.8009 5.06064 12.717 4.9782 12.6165 4.92092C12.516 4.86365 12.4023 4.83352 12.2866 4.8335H10.6666V10.5068Z" stroke="#FF7010" stroke-width="1.5" stroke-linecap="round" stroke-linejoin="round"/>
<path d="M7.33325 7.5H3.99992M7.33325 5.5H3.99992M5.66658 11.5C5.66688 11.7479 5.61185 11.9928 5.50551 12.2168C5.39917 12.4408 5.2442 12.6382 5.05189 12.7947C4.85959 12.9512 4.63479 13.0628 4.39388 13.1214C4.15297 13.18 3.90202 13.1841 3.65932 13.1335C3.41661 13.0828 3.18827 12.9786 2.99093 12.8285C2.79359 12.6784 2.63223 12.4862 2.5186 12.2658C2.40497 12.0454 2.34193 11.8025 2.33409 11.5547C2.32624 11.3069 2.37378 11.0604 2.47325 10.8333C2.62672 10.4829 2.89606 10.196 3.23607 10.0206C3.57608 9.84531 3.96605 9.79229 4.34052 9.87047C4.715 9.94865 5.05118 10.1533 5.29264 10.45C5.5341 10.7467 5.66613 11.1175 5.66658 11.5ZM13.6666 11.5C13.6669 11.7479 13.6118 11.9928 13.5055 12.2168C13.3992 12.4408 13.2442 12.6382 13.0519 12.7947C12.8596 12.9512 12.6348 13.0628 12.3939 13.1214C12.153 13.18 11.902 13.1841 11.6593 13.1335C11.4166 13.0828 11.1883 12.9786 10.9909 12.8285C10.7936 12.6784 10.6322 12.4862 10.5186 12.2658C10.405 12.0454 10.3419 11.8025 10.3341 11.5547C10.3262 11.3069 10.3738 11.0604 10.4733 10.8333C10.5221 10.7156 10.5866 10.6067 10.6666 10.5067C10.8398 10.2717 11.072 10.0865 11.3397 9.96989C11.6073 9.85327 11.901 9.8093 12.1911 9.84244C12.4812 9.87557 12.7574 9.98463 12.9919 10.1586C13.2263 10.3326 13.4108 10.5653 13.5266 10.8333C13.6199 11.0433 13.6679 11.2707 13.6666 11.5Z" stroke="#FF7010" stroke-width="1.5" stroke-linecap="round" stroke-linejoin="round"/>
</svg>
