<svg width="37" height="32" viewBox="0 0 37 32" fill="none" xmlns="http://www.w3.org/2000/svg">
<path d="M33.0098 4.26667H27.7881L25.2108 0.474668C25.1112 0.328423 24.9764 0.208563 24.8181 0.125751C24.6599 0.0429379 24.4833 -0.000259417 24.3039 1.17204e-06H12.6961C12.5167 -0.000259417 12.3401 0.0429379 12.1819 0.125751C12.0236 0.208563 11.8888 0.328423 11.7892 0.474668L9.2101 4.26667H3.9902C2.93193 4.26667 1.91701 4.67873 1.1687 5.41221C0.420394 6.14568 0 7.14049 0 8.17778V28.0889C0 29.1262 0.420394 30.121 1.1687 30.8545C1.91701 31.5879 2.93193 32 3.9902 32H33.0098C34.0681 32 35.083 31.5879 35.8313 30.8545C36.5796 30.121 37 29.1262 37 28.0889V8.17778C37 7.14049 36.5796 6.14568 35.8313 5.41221C35.083 4.67873 34.0681 4.26667 33.0098 4.26667ZM34.8235 28.0889C34.8235 28.5604 34.6324 29.0126 34.2923 29.346C33.9522 29.6794 33.4908 29.8667 33.0098 29.8667H3.9902C3.50917 29.8667 3.04784 29.6794 2.7077 29.346C2.36756 29.0126 2.17647 28.5604 2.17647 28.0889V8.17778C2.17647 7.70628 2.36756 7.2541 2.7077 6.9207C3.04784 6.5873 3.50917 6.4 3.9902 6.4H9.79412C9.97348 6.40026 10.1501 6.35706 10.3083 6.27425C10.4666 6.19144 10.6014 6.07158 10.701 5.92533L13.2783 2.13333H23.7199L26.299 5.92533C26.3986 6.07158 26.5334 6.19144 26.6917 6.27425C26.8499 6.35706 27.0265 6.40026 27.2059 6.4H33.0098C33.4908 6.4 33.9522 6.5873 34.2923 6.9207C34.6324 7.2541 34.8235 7.70628 34.8235 8.17778V28.0889ZM18.5 9.95556C16.9934 9.95556 15.5206 10.3935 14.2679 11.2139C13.0151 12.0344 12.0388 13.2005 11.4622 14.5649C10.8857 15.9292 10.7348 17.4305 11.0287 18.8789C11.3227 20.3273 12.0482 21.6577 13.1135 22.702C14.1789 23.7462 15.5362 24.4573 17.0139 24.7454C18.4916 25.0335 20.0232 24.8857 21.4151 24.3205C22.8071 23.7554 23.9968 22.7984 24.8338 21.5705C25.6709 20.3426 26.1176 18.899 26.1176 17.4222C26.1176 15.4419 25.3151 13.5428 23.8865 12.1425C22.4579 10.7422 20.5203 9.95556 18.5 9.95556ZM18.5 22.7556C17.4238 22.7556 16.3718 22.4428 15.477 21.8567C14.5822 21.2707 13.8848 20.4377 13.473 19.4632C13.0612 18.4887 12.9534 17.4163 13.1634 16.3817C13.3733 15.3472 13.8915 14.3969 14.6525 13.651C15.4135 12.9051 16.383 12.3972 17.4385 12.1914C18.494 11.9856 19.588 12.0912 20.5822 12.4949C21.5765 12.8985 22.4263 13.5821 23.0242 14.4592C23.6221 15.3362 23.9412 16.3674 23.9412 17.4222C23.9412 18.8367 23.3679 20.1933 22.3475 21.1935C21.3271 22.1937 19.9431 22.7556 18.5 22.7556Z" fill="#757575"/>
</svg>
