<svg width="72" height="72" viewBox="0 0 72 72" fill="none" xmlns="http://www.w3.org/2000/svg">
<rect width="72" height="72" rx="36" fill="#264FA8"/>
<path d="M51 19.5H21C20.2044 19.5 19.4413 19.8161 18.8787 20.3787C18.3161 20.9413 18 21.7044 18 22.5V33C18 42.885 22.785 48.8756 26.7994 52.1606C31.1231 55.6969 35.4244 56.8969 35.6119 56.9475C35.8697 57.0176 36.1416 57.0176 36.3994 56.9475C36.5869 56.8969 40.8825 55.6969 45.2119 52.1606C49.215 48.8756 54 42.885 54 33V22.5C54 21.7044 53.6839 20.9413 53.1213 20.3787C52.5587 19.8161 51.7957 19.5 51 19.5ZM44.565 32.5613L34.065 43.0613C33.9257 43.2007 33.7603 43.3114 33.5782 43.3868C33.3961 43.4623 33.2009 43.5012 33.0037 43.5012C32.8066 43.5012 32.6114 43.4623 32.4293 43.3868C32.2472 43.3114 32.0818 43.2007 31.9425 43.0613L27.4425 38.5613C27.161 38.2798 27.0029 37.898 27.0029 37.5C27.0029 37.102 27.161 36.7202 27.4425 36.4387C27.724 36.1573 28.1057 35.9992 28.5037 35.9992C28.9018 35.9992 29.2835 36.1573 29.565 36.4387L33 39.8794L42.4387 30.4387C42.5781 30.2994 42.7436 30.1888 42.9257 30.1134C43.1077 30.038 43.3029 29.9992 43.5 29.9992C43.6971 29.9992 43.8923 30.038 44.0743 30.1134C44.2564 30.1888 44.4219 30.2994 44.5613 30.4387C44.7006 30.5781 44.8112 30.7436 44.8866 30.9257C44.962 31.1077 45.0008 31.3029 45.0008 31.5C45.0008 31.6971 44.962 31.8923 44.8866 32.0743C44.8112 32.2564 44.7006 32.4219 44.5613 32.5613H44.565Z" fill="white"/>
</svg>
