<svg width="72" height="72" viewBox="0 0 72 72" fill="none" xmlns="http://www.w3.org/2000/svg">
<rect width="72" height="72" rx="36" fill="#264FA8"/>
<path d="M52.0612 27.4388L41.5613 16.9388C41.4218 16.7995 41.2564 16.6891 41.0743 16.6138C40.8922 16.5385 40.697 16.4998 40.5 16.5H22.5C21.7044 16.5 20.9413 16.8161 20.3787 17.3787C19.8161 17.9413 19.5 18.7044 19.5 19.5V52.5C19.5 53.2957 19.8161 54.0587 20.3787 54.6213C20.9413 55.1839 21.7044 55.5 22.5 55.5H49.5C50.2956 55.5 51.0587 55.1839 51.6213 54.6213C52.1839 54.0587 52.5 53.2957 52.5 52.5V28.5C52.5002 28.303 52.4615 28.1078 52.3862 27.9257C52.3109 27.7436 52.2005 27.5782 52.0612 27.4388ZM42 45H30C29.6022 45 29.2206 44.842 28.9393 44.5607C28.658 44.2794 28.5 43.8978 28.5 43.5C28.5 43.1022 28.658 42.7206 28.9393 42.4393C29.2206 42.158 29.6022 42 30 42H42C42.3978 42 42.7794 42.158 43.0607 42.4393C43.342 42.7206 43.5 43.1022 43.5 43.5C43.5 43.8978 43.342 44.2794 43.0607 44.5607C42.7794 44.842 42.3978 45 42 45ZM42 39H30C29.6022 39 29.2206 38.842 28.9393 38.5607C28.658 38.2794 28.5 37.8978 28.5 37.5C28.5 37.1022 28.658 36.7206 28.9393 36.4393C29.2206 36.158 29.6022 36 30 36H42C42.3978 36 42.7794 36.158 43.0607 36.4393C43.342 36.7206 43.5 37.1022 43.5 37.5C43.5 37.8978 43.342 38.2794 43.0607 38.5607C42.7794 38.842 42.3978 39 42 39ZM40.5 28.5V20.25L48.75 28.5H40.5Z" fill="white"/>
</svg>
