<svg width="72" height="72" viewBox="0 0 72 72" fill="none" xmlns="http://www.w3.org/2000/svg">
<rect width="72" height="72" rx="36" fill="#264FA8"/>
<path d="M54 25.3313C53.6469 25.5141 53.2356 25.5493 52.8566 25.4291C52.4776 25.3088 52.1618 25.043 51.9787 24.69C50.547 21.8616 48.3798 19.471 45.705 17.7694C45.5383 17.6643 45.3939 17.5273 45.2801 17.3664C45.1664 17.2055 45.0854 17.0237 45.0419 16.8315C44.9984 16.6393 44.9931 16.4404 45.0265 16.2461C45.0598 16.0519 45.1311 15.8661 45.2362 15.6994C45.3414 15.5327 45.4783 15.3884 45.6392 15.2746C45.8002 15.1608 45.9819 15.0799 46.1741 15.0363C46.3664 14.9928 46.5653 14.9876 46.7595 15.0209C46.9538 15.0543 47.1395 15.1255 47.3062 15.2307C50.4236 17.2267 52.9549 20.0148 54.6412 23.31C54.8241 23.6631 54.8592 24.0744 54.739 24.4534C54.6188 24.8324 54.3529 25.1482 54 25.3313ZM18.6956 25.5C18.9704 25.4999 19.2399 25.4243 19.4747 25.2815C19.7094 25.1386 19.9004 24.934 20.0269 24.69C21.4586 21.8616 23.6258 19.471 26.3006 17.7694C26.6373 17.5571 26.8758 17.2197 26.9637 16.8315C27.0516 16.4433 26.9817 16.0361 26.7694 15.6994C26.557 15.3628 26.2196 15.1242 25.8314 15.0363C25.4432 14.9484 25.036 15.0183 24.6994 15.2307C21.582 17.2267 19.0507 20.0148 17.3644 23.31C17.2459 23.5386 17.1883 23.7939 17.1971 24.0512C17.2059 24.3085 17.2807 24.5592 17.4145 24.7792C17.5482 24.9992 17.7363 25.1811 17.9607 25.3073C18.1851 25.4336 18.4381 25.4999 18.6956 25.5ZM53.5893 44.9888C53.8551 45.4445 53.996 45.9622 53.9978 46.4897C53.9996 47.0173 53.8623 47.5359 53.5997 47.9935C53.3371 48.451 52.9585 48.8312 52.502 49.0957C52.0456 49.3602 51.5275 49.4997 51 49.5H43.35C43.0057 51.1955 42.0859 52.7198 40.7464 53.8146C39.4068 54.9095 37.73 55.5076 36 55.5076C34.2699 55.5076 32.5931 54.9095 31.2536 53.8146C29.9141 52.7198 28.9942 51.1955 28.65 49.5H21C20.4728 49.499 19.9551 49.359 19.4992 49.0943C19.0433 48.8295 18.6653 48.4493 18.4031 47.9918C18.1409 47.5344 18.0039 47.016 18.0059 46.4888C18.0079 45.9616 18.1488 45.4442 18.4143 44.9888C20.1037 42.0732 21 37.9275 21 33C21 29.0218 22.5803 25.2065 25.3934 22.3934C28.2064 19.5804 32.0217 18 36 18C39.9782 18 43.7935 19.5804 46.6066 22.3934C49.4196 25.2065 51 29.0218 51 33C51 37.9257 51.8962 42.0713 53.5893 44.9888ZM40.2412 49.5H31.7587C32.0695 50.3764 32.6441 51.135 33.4036 51.6716C34.1631 52.2081 35.0701 52.4961 36 52.4961C36.9298 52.4961 37.8369 52.2081 38.5964 51.6716C39.3558 51.135 39.9305 50.3764 40.2412 49.5Z" fill="white"/>
</svg>
