<svg width="72" height="72" viewBox="0 0 72 72" fill="none" xmlns="http://www.w3.org/2000/svg">
<rect width="72" height="72" rx="36" fill="#264FA8"/>
<path d="M55.9294 33.5343L47.4919 40.8149L50.0625 51.7031C50.2043 52.2941 50.1678 52.914 49.9576 53.4843C49.7473 54.0546 49.3727 54.5498 48.8811 54.9074C48.3896 55.2649 47.8031 55.4687 47.1957 55.4931C46.5884 55.5175 45.9874 55.3613 45.4688 55.0443L36 49.2168L26.5256 55.0443C26.0071 55.3595 25.4068 55.5142 24.8005 55.4889C24.1942 55.4636 23.6089 55.2595 23.1184 54.9023C22.6278 54.5451 22.254 54.0507 22.0438 53.4814C21.8337 52.9121 21.7967 52.2933 21.9375 51.7031L24.5175 40.8149L16.08 33.5343C15.6212 33.1378 15.2894 32.6148 15.126 32.0308C14.9626 31.4468 14.9749 30.8276 15.1613 30.2506C15.3477 29.6735 15.7 29.1641 16.1742 28.7861C16.6484 28.4081 17.2234 28.1781 17.8275 28.1249L28.89 27.2324L33.1575 16.9049C33.3885 16.3421 33.7816 15.8607 34.2869 15.5218C34.7923 15.183 35.3869 15.0021 35.9953 15.0021C36.6037 15.0021 37.1984 15.183 37.7037 15.5218C38.209 15.8607 38.6021 16.3421 38.8331 16.9049L43.0988 27.2324L54.1613 28.1249C54.7665 28.1761 55.3433 28.4048 55.8192 28.7823C56.2951 29.1598 56.649 29.6694 56.8366 30.2472C57.0242 30.8249 57.0371 31.4452 56.8737 32.0303C56.7103 32.6154 56.3779 33.1392 55.9181 33.5362L55.9294 33.5343Z" fill="white"/>
</svg>
