<svg width="72" height="72" viewBox="0 0 72 72" fill="none" xmlns="http://www.w3.org/2000/svg">
<rect width="72" height="72" rx="36" fill="#264FA8"/>
<path d="M36.0169 22.7588C36.1009 21.5947 36.4854 20.4723 37.1327 19.5012C37.78 18.53 38.668 17.7433 39.7101 17.2178C40.7522 16.6923 41.9128 16.446 43.0785 16.5029C44.2442 16.5598 45.3753 16.918 46.3612 17.5425C46.474 17.6163 46.5648 17.719 46.6241 17.84C46.6833 17.961 46.709 18.0957 46.6982 18.2299C46.6875 18.3642 46.6408 18.4931 46.563 18.6031C46.4852 18.7131 46.3793 18.8001 46.2562 18.855C44.5423 19.6262 43.0874 20.8757 42.0663 22.4536C41.0452 24.0315 40.5013 25.8706 40.5 27.75C40.5 27.9694 40.5 28.1888 40.5225 28.4044C40.5328 28.5407 40.5057 28.6772 40.4441 28.7992C40.3825 28.9212 40.2887 29.0241 40.1729 29.0967C40.0571 29.1692 39.9236 29.2088 39.787 29.211C39.6503 29.2133 39.5156 29.1781 39.3975 29.1094C38.2925 28.4774 37.3888 27.5457 36.7906 26.422C36.1924 25.2983 35.9242 24.0284 36.0169 22.7588ZM57 42.1144C57.0027 42.9715 56.7652 43.8123 56.3145 44.5413C55.8638 45.2704 55.2179 45.8587 54.45 46.2394L54.3675 46.2769L47.0869 49.3782C47.0149 49.4099 46.9402 49.435 46.8638 49.4532L34.8638 52.4532C34.7449 52.4837 34.6227 52.4995 34.5 52.5H15C14.2044 52.5 13.4413 52.184 12.8787 51.6214C12.3161 51.0587 12 50.2957 12 49.5V42C12 41.2044 12.3161 40.4413 12.8787 39.8787C13.4413 39.3161 14.2044 39 15 39H20.3794L24.6206 34.7569C25.1768 34.1983 25.8381 33.7554 26.5664 33.4539C27.2947 33.1523 28.0755 32.9981 28.8638 33H38.25C39.0423 32.9999 39.8244 33.1792 40.5376 33.5244C41.2508 33.8695 41.8766 34.3716 42.3681 34.993C42.8597 35.6144 43.2042 36.3391 43.3759 37.1126C43.5475 37.8861 43.5419 38.6884 43.3594 39.4594L51.2044 37.6557C51.8873 37.4748 52.6027 37.4532 53.2953 37.5925C53.9879 37.7317 54.6393 38.0282 55.1993 38.459C55.7592 38.8898 56.2128 39.4434 56.525 40.0772C56.8372 40.7109 56.9997 41.4079 57 42.1144ZM54 42.1144C53.9998 41.8664 53.9424 41.6218 53.8323 41.3995C53.7223 41.1773 53.5625 40.9833 53.3654 40.8328C53.1682 40.6823 52.9391 40.5792 52.6957 40.5316C52.4523 40.484 52.2012 40.4931 51.9619 40.5582L51.9038 40.5732L39.3413 43.4625C39.2311 43.4871 39.1185 43.4997 39.0056 43.5H33C32.6022 43.5 32.2206 43.342 31.9393 43.0607C31.658 42.7794 31.5 42.3979 31.5 42C31.5 41.6022 31.658 41.2207 31.9393 40.9394C32.2206 40.6581 32.6022 40.5 33 40.5H38.25C38.8467 40.5 39.419 40.263 39.841 39.841C40.2629 39.4191 40.5 38.8468 40.5 38.25C40.5 37.6533 40.2629 37.081 39.841 36.659C39.419 36.2371 38.8467 36 38.25 36H28.8638C28.4696 35.9988 28.0792 36.0759 27.7152 36.2268C27.3511 36.3778 27.0207 36.5996 26.7431 36.8794L22.5 41.1207V49.5H34.3125L46.0181 46.5732L53.1431 43.5394C53.4025 43.4028 53.6194 43.1977 53.7705 42.9465C53.9215 42.6953 54.0009 42.4075 54 42.1144ZM43.5 27.75C43.5 29.0851 43.8959 30.3901 44.6376 31.5001C45.3793 32.6102 46.4335 33.4753 47.6669 33.9862C48.9003 34.4971 50.2575 34.6308 51.5669 34.3703C52.8762 34.1099 54.079 33.467 55.023 32.523C55.967 31.579 56.6099 30.3763 56.8703 29.0669C57.1308 27.7575 56.9971 26.4003 56.4862 25.1669C55.9753 23.9335 55.1101 22.8793 54.0001 22.1376C52.8901 21.3959 51.585 21 50.25 21C48.4598 21 46.7429 21.7112 45.477 22.9771C44.2112 24.2429 43.5 25.9598 43.5 27.75Z" fill="white"/>
</svg>
