<svg width="72" height="72" viewBox="0 0 72 72" fill="none" xmlns="http://www.w3.org/2000/svg">
<rect width="72" height="72" rx="36" fill="#264FA8"/>
<path d="M34.5 22.5V31.5C34.5 32.2956 34.1839 33.0587 33.6213 33.6213C33.0587 34.1839 32.2956 34.5 31.5 34.5H22.5C21.7044 34.5 20.9413 34.1839 20.3787 33.6213C19.8161 33.0587 19.5 32.2956 19.5 31.5V22.5C19.5 21.7044 19.8161 20.9413 20.3787 20.3787C20.9413 19.8161 21.7044 19.5 22.5 19.5H31.5C32.2956 19.5 33.0587 19.8161 33.6213 20.3787C34.1839 20.9413 34.5 21.7044 34.5 22.5ZM31.5 37.5H22.5C21.7044 37.5 20.9413 37.8161 20.3787 38.3787C19.8161 38.9413 19.5 39.7044 19.5 40.5V49.5C19.5 50.2956 19.8161 51.0587 20.3787 51.6213C20.9413 52.1839 21.7044 52.5 22.5 52.5H31.5C32.2956 52.5 33.0587 52.1839 33.6213 51.6213C34.1839 51.0587 34.5 50.2956 34.5 49.5V40.5C34.5 39.7044 34.1839 38.9413 33.6213 38.3787C33.0587 37.8161 32.2956 37.5 31.5 37.5ZM49.5 19.5H40.5C39.7044 19.5 38.9413 19.8161 38.3787 20.3787C37.8161 20.9413 37.5 21.7044 37.5 22.5V31.5C37.5 32.2956 37.8161 33.0587 38.3787 33.6213C38.9413 34.1839 39.7044 34.5 40.5 34.5H49.5C50.2956 34.5 51.0587 34.1839 51.6213 33.6213C52.1839 33.0587 52.5 32.2956 52.5 31.5V22.5C52.5 21.7044 52.1839 20.9413 51.6213 20.3787C51.0587 19.8161 50.2956 19.5 49.5 19.5ZM39 46.5C39.3978 46.5 39.7794 46.342 40.0607 46.0607C40.342 45.7794 40.5 45.3978 40.5 45V39C40.5 38.6022 40.342 38.2206 40.0607 37.9393C39.7794 37.658 39.3978 37.5 39 37.5C38.6022 37.5 38.2206 37.658 37.9393 37.9393C37.658 38.2206 37.5 38.6022 37.5 39V45C37.5 45.3978 37.658 45.7794 37.9393 46.0607C38.2206 46.342 38.6022 46.5 39 46.5ZM51 40.5H46.5V39C46.5 38.6022 46.342 38.2206 46.0607 37.9393C45.7794 37.658 45.3978 37.5 45 37.5C44.6022 37.5 44.2206 37.658 43.9393 37.9393C43.658 38.2206 43.5 38.6022 43.5 39V49.5H39C38.6022 49.5 38.2206 49.658 37.9393 49.9393C37.658 50.2206 37.5 50.6022 37.5 51C37.5 51.3978 37.658 51.7794 37.9393 52.0607C38.2206 52.342 38.6022 52.5 39 52.5H45C45.3978 52.5 45.7794 52.342 46.0607 52.0607C46.342 51.7794 46.5 51.3978 46.5 51V43.5H51C51.3978 43.5 51.7794 43.342 52.0607 43.0607C52.342 42.7794 52.5 42.3978 52.5 42C52.5 41.6022 52.342 41.2206 52.0607 40.9393C51.7794 40.658 51.3978 40.5 51 40.5ZM51 46.5C50.6022 46.5 50.2206 46.658 49.9393 46.9393C49.658 47.2206 49.5 47.6022 49.5 48V51C49.5 51.3978 49.658 51.7794 49.9393 52.0607C50.2206 52.342 50.6022 52.5 51 52.5C51.3978 52.5 51.7794 52.342 52.0607 52.0607C52.342 51.7794 52.5 51.3978 52.5 51V48C52.5 47.6022 52.342 47.2206 52.0607 46.9393C51.7794 46.658 51.3978 46.5 51 46.5Z" fill="white"/>
</svg>
